<mxfile host="Electron" agent="Mozilla/5.0 (X11; Linux x86_64) AppleWebKit/537.36 (KHTML, like Gecko) draw.io/24.7.8 Chrome/128.0.6613.36 Electron/32.0.1 Safari/537.36" version="24.7.8">
  <diagram name="Page-1" id="P-A_oX0MXwvxtYjogJFg">
    <mxGraphModel dx="1040" dy="797" grid="1" gridSize="10" guides="1" tooltips="1" connect="1" arrows="1" fold="1" page="1" pageScale="1" pageWidth="827" pageHeight="1169" background="#ffffff" math="0" shadow="0">
      <root>
        <mxCell id="0" />
        <mxCell id="1" parent="0" />
        <mxCell id="dq50oJ7oZj0ebTehCImV-1" value="Exécuté par&lt;div&gt;l&#39;interpréteur&lt;/div&gt;" style="ellipse;whiteSpace=wrap;html=1;fillColor=none;fontColor=#000000;strokeColor=#3700CC;strokeWidth=3;" parent="1" vertex="1">
          <mxGeometry x="120" y="280" width="120" height="80" as="geometry" />
        </mxCell>
        <mxCell id="dq50oJ7oZj0ebTehCImV-2" value="Exécutable" style="ellipse;whiteSpace=wrap;html=1;fillColor=none;fontColor=#000000;strokeColor=#3700CC;strokeWidth=3;" parent="1" vertex="1">
          <mxGeometry x="480" y="280" width="120" height="80" as="geometry" />
        </mxCell>
        <mxCell id="dq50oJ7oZj0ebTehCImV-3" value="&lt;font color=&quot;#000000&quot;&gt;Source&lt;/font&gt;" style="ellipse;whiteSpace=wrap;html=1;fillColor=none;fontColor=#ffffff;strokeColor=#3700CC;strokeWidth=3;" parent="1" vertex="1">
          <mxGeometry x="300" y="160" width="120" height="80" as="geometry" />
        </mxCell>
        <mxCell id="dq50oJ7oZj0ebTehCImV-4" value="Compilé" style="endArrow=classic;html=1;rounded=0;entryX=0.567;entryY=-0.037;entryDx=0;entryDy=0;entryPerimeter=0;exitX=0.5;exitY=1;exitDx=0;exitDy=0;strokeWidth=3;strokeColor=#000000;labelBackgroundColor=none;fontColor=#000000;align=left;spacingLeft=12;" parent="1" source="dq50oJ7oZj0ebTehCImV-3" target="dq50oJ7oZj0ebTehCImV-2" edge="1">
          <mxGeometry width="50" height="50" relative="1" as="geometry">
            <mxPoint x="350" y="320" as="sourcePoint" />
            <mxPoint x="400" y="270" as="targetPoint" />
          </mxGeometry>
        </mxCell>
        <mxCell id="dq50oJ7oZj0ebTehCImV-5" value="Interprété" style="endArrow=classic;html=1;rounded=0;entryX=0.5;entryY=0;entryDx=0;entryDy=0;strokeWidth=3;strokeColor=#000000;fontColor=#000000;labelBackgroundColor=none;align=right;spacingRight=12;spacingLeft=0;" parent="1" target="dq50oJ7oZj0ebTehCImV-1" edge="1">
          <mxGeometry width="50" height="50" relative="1" as="geometry">
            <mxPoint x="360" y="240" as="sourcePoint" />
            <mxPoint x="428" y="297" as="targetPoint" />
          </mxGeometry>
        </mxCell>
        <mxCell id="dq50oJ7oZj0ebTehCImV-6" value="Natif" style="endArrow=classic;html=1;rounded=0;exitX=0.5;exitY=1;exitDx=0;exitDy=0;strokeWidth=3;strokeColor=#000000;labelBackgroundColor=none;fontColor=#000000;align=left;spacingLeft=12;entryX=0.5;entryY=0;entryDx=0;entryDy=0;" parent="1" source="dq50oJ7oZj0ebTehCImV-2" target="dq50oJ7oZj0ebTehCImV-9" edge="1">
          <mxGeometry width="50" height="50" relative="1" as="geometry">
            <mxPoint x="500" y="450" as="sourcePoint" />
            <mxPoint x="650" y="370" as="targetPoint" />
          </mxGeometry>
        </mxCell>
        <mxCell id="dq50oJ7oZj0ebTehCImV-7" value="Bytecode" style="endArrow=classic;html=1;rounded=0;strokeWidth=3;strokeColor=#000000;fontColor=#000000;labelBackgroundColor=none;align=right;spacingRight=12;spacingLeft=0;exitX=0.5;exitY=1;exitDx=0;exitDy=0;entryX=0.5;entryY=0;entryDx=0;entryDy=0;" parent="1" source="dq50oJ7oZj0ebTehCImV-2" target="dq50oJ7oZj0ebTehCImV-8" edge="1">
          <mxGeometry width="50" height="50" relative="1" as="geometry">
            <mxPoint x="370" y="250" as="sourcePoint" />
            <mxPoint x="410" y="370" as="targetPoint" />
          </mxGeometry>
        </mxCell>
        <mxCell id="dq50oJ7oZj0ebTehCImV-8" value="&lt;font color=&quot;#000000&quot;&gt;VM comme la JVM&lt;/font&gt;" style="ellipse;whiteSpace=wrap;html=1;fillColor=none;fontColor=#ffffff;strokeColor=#3700CC;strokeWidth=3;" parent="1" vertex="1">
          <mxGeometry x="380" y="400" width="120" height="80" as="geometry" />
        </mxCell>
        <mxCell id="dq50oJ7oZj0ebTehCImV-9" value="&lt;font color=&quot;#000000&quot;&gt;Binaire&lt;/font&gt;" style="ellipse;whiteSpace=wrap;html=1;fillColor=none;fontColor=#ffffff;strokeColor=#3700CC;strokeWidth=3;" parent="1" vertex="1">
          <mxGeometry x="580" y="400" width="120" height="80" as="geometry" />
        </mxCell>
        <mxCell id="IonQVXjq1AOYUMtXGqEm-6" value="" style="shape=image;aspect=fixed;image=data:image/png,iVBORw0KGgoAAAANSUhEUgAAAe0AAADKCAYAAACIahjBAAAAIGNIUk0AAHomAACAhAAA+gAAAIDoAAB1MAAA6mAAADqYAAAXcJy6UTwAAAAGYktHRAD/AP8A/6C9p5MAAHlXSURBVHja7Z13nF3HWfe/z8y5de/uqhdbtlxkO+5JZFuSS5Qeh5BASBR4aQkOBAIEXlroSCLwAqGEGgKBNxDgBSJKgCSYBBJviuWmxCVWYluRLUuyrGJJu3v31jPzvH+cc3bvrtpW7a40X3/ku3v33lPmnDO/mWeeAoFAIBAIBAKBQCAQCAQCgUAgEAgEAoFAIBAIBAKBQCAQCAQCk0Q+tmmTne2DCAQCgUAgcAoUBODgzatXPH71Jatn+3gCgUAgMD7MbB9A4OzyMbBbQJ9dv2pR1Udv7S6bHhgR8kAgEAjMXYJonycoyOc2Ei3diNuyGdNu5X7QCO+weddOPxJEOxAIBOY4QbTPAz62CUsiyvFFreXLnvjEJT/dlbO/VDRSrnvrZvv4AoFAIDA+otk+gMDMoWC2JWLtALlg6NJXRyI/UhRzZ9GY4kDbNTUSne3jDAQCgcD4CKJ9DiPgAb62+/KXf2OtfnOXyHcUjLmw5rxrOFUFI6rBLB4IBALzhCDa85wOB7JRM+bnb7ih63ix9vqi1zuBV5asvdSrMuS8d4oWwxp2IBAIzDuCaM8zFGQLyJbNwFY8HWK9Y+3aXMEOXFN2/tsiqa0re31JxZplLZSG87jks4YxAh8IBAKB+UEQ7XlAOpuWezZuNPT1uS2b8WxN/rZ77WW9g6axvIfS65b4Y682Xl6kRq6sWKHhod95NBFpkXR2HRQ7EAgE5idBtOcoCsImDIc2Cn197p6NG/3L+/o8m+GZT61eUb/BLcnlcust8i1LpXR123NBV2RLCtS853icSLMk/4IpPBAIBM4BQmc+h9gMZssm5J5DSXhW599WDVy+JjZcFHleYoy+pmDkaoSlFlO2Ak2vtLx6BTFy+uuqiqtYYxveP9q2+tY19+9+SsFkjmuBQCAQmJuEmfYsMrw+Pfwrnm3wchKztxquwHOFEa71lpctMHI1RntUTN4gxCgN751TFUTECCaMwgKBQODcJYj22UMYs5wsye+aLk/z9NrVL0LsNU65FsO1olxfNuZSRIqKipJMv51X79QDIkawRoJUBwKBwPlAEO1p5CT5u/UUPyOoPL3hqqsk9mtjja82ald74QoDV1SsWWRQYoFYwavHK94rqCACJgh1IBAInH8E0Z4ko0zbmxC2jQ6/6sDcs3p1vpQbzC/s7bnaYK+PVG7YG625xDm9CC+XdNloQcEIbYW29zS9zzam2QYFjASPskAgEDivCaJ9BrJwq22bkKWHkJezEfr6POC3ZCK9Lf3wRqJj1YVdB32ly6ksKNjclSJ642rVG/Nm4QVeWRYrS4uRVEpGaKnSMokTWd1rtj9gWJzDfDoQCAQCwwTRTslmztd2iPOOalXYsSMG/KZMmOkD4PGN11QWtxrlakN6nPULxcgaqv7yHHJtJTJXWVgYK90OWVC21uYE2oBRpe5Vh5wiqZd3pzAHkQ4EAoHAqTjvRHusWfueQxsF+pA+HKn3dkIizrp5s/n6Z/5hZaHV7G4Ly423CxVdWay2rhsSVuUjvbgo0YUOLcVGigaTy5vErq2iqEeHnPdpLJWkJm4Jbt6BQCAQmCjnqnSMKl21JRXpzFv7ZF/QTdfkDz0ztGjQRRcWjC5rqCy1ht4YLjJerlL88pKRiwrGLIjV21jJGxGxaTPGqngUp3ivqolZXYZFerYbZNS5hjjtQCAQmJfM9Zn2ydJujicL56jPbEl/V5BDG1evOFq1S3PCKjHmAmJdJoaep3c3V0C0VGB1W2VltzVdVjQfKwYLYFFVWqo4FTyqsdfEo5sk/CpVZyMic0ulA4FAIHBOMGOirWeeXcroj4965RS/n25j8tVrrsnlF7V64wG/vJC3K7zzi63VFeLlAmNZ7JVeHWJRQXSBqqwwzi8u52whl4ZWoYpDcEA7FehElFFFk1ePdEydU4/uINGBQCAQmHkmJNoKhk0dCrXttObUMwnu6f4ubMI89ZU10ZElDbPQdEXPDzXs0jbFqGCWGWsXxsjKguhCVX+hIEv2GlmmvlnRhlTyOekG7TGGLoWeYk5yJTE4FOdBEzM2DqHhPLVRB6R6kgOTLId3cOcOBAKBwGwx0Zn2+Nc8167NPVM5Ytv7c5q7sC29VVuoE+XUVLXRLNq2uHLNuAigrGZZzkRFFd+NtxepkZzsdgulx61a3s6Xi8Yt681HXS5PWZWS4gt5lbIKBZCughHKxoAhWVtWwaF4BKdCwys1dSc9zJNocNDlQCAQCMxJxi3aunFjtLv27GW13bJUvfORlbxdqxeIGtMph4XYxC7nu+H4xa5qy/lemr4a5Y6pX6USLzJajCUvpW6JViyUXN6pGhIBNopEXqRkAIfJRUYiK0JOwIrBabJ6nL16wIE2PdRcehQy/DKsvcIc8wQLBAKBQGASnFG0FQzgHz98uKdYkv9zYc5ubKtte68FL+SR0Z7aYlERa5zXvIoxgKqKWGONSaOSRRSLYEgWhb1q6tadpecWRNG2qm+r6pAmebcFQTtM1J0JSEIIVSAQCATOdc4o2lvS1/9VOmaU4gKLLGmqonLyRWkV8Ao+8ftWQFSgnUREafYtrx5PllwkUdwRQdYRRy9Sb69AIBAIBM5zxm0e90Y056Radd7XvdcR36xTIHTMm4Fkxp79CRFJIqkCgUAgEAiMi4l5jydlII2I6HgThoQ5ciAQCAQC04OZ+iYCgUAgEAicDYJoBwKBQCAwTwiiHQgEAoHAPCGIdiAQCAQC84Qg2oFAIBAIzBOCaAcCgUAgME8Ioh0IBAKBwDxhrtfTDgROhwCyKU0HcCh97TuxsI0CsjEdpC5L0/JtI82eO4ESsIFAIDCbBNEOzDdkE5hDIH3gAL9tfN/TvpNXqZO1kKuAvhz81iDigfnPdOS0Cs/AHCWIdmBesAlsOpOODyViDWDWLetaZo+bBWrai31euzxY4+3FSXb8BAWxSOyM22vAa9sMinX9Lmeqlx5rPAe0AXam29wEZlsi8KHjCsw3QhLKc5wg2oG5jgC6LRXq23t7F2oc39iW+PJbhCuk7q5web3IChdYNeUIjIoWT9yMqlXTUFAfMaiYF2ybg3u7S4+o+t1OzIE80ZO3whP7gVuBewcHDWHmHZgvqMomEbMbzI6TW5XORKfgx7N9OoGTE0Q7MNfRd0Huqz3lV8Te3xT79ksxektO7HKFPCgimtSF0zMqbBHACAtRuTitXPM6EevE+6oz8U683u8ND0kkn79lUWnfA0frs33+gcCZSMRWRPYszL0tH9tXrRuxRk0ERckJcqxg678GHO/rH677FJgjBNEOzDWGO4lrllLpGSp+26NG7lTlZZExF2bK7DXpRzKd1hO3cTKGvzRciz2p1R4ZkQWi3IqRW53Sr20ewXPfTeXyPzxUq33lZMcXCMw1tG1fnbPmLjfJO9QIePRIbIp/CByHxmyfUmAMQbQDc4VMDHUNFBZXSt8sdX23GG4yhl5VxY90RDrme+OtuH7Cx7IC7zryhhjoNSIvU6svE++/dX1X8b9j7J8+NDS0k8TsKCNfDwTmDiI0nCqTFG1VEEWdNmQyM/XAWSCIdmDW2QQ2W7O+uVx+sbX6s0b1tcaYRafogKbT2eaEbXmSmbwA1siVKFei/tXrukr/IJ4/B/bfV6+b9LuTWTsMBGYECQPJc54g2oHZxm4Dt3blynI0ePwdxvgfNypXqgixqjKL3rAK2YDBW8OVXvkVhNcA799QKX0cYHu1bpnc+mEgEAhMmJAR7Txk2A4NiNfZDBExgFtfKl2Yq/b/jhX9gCBXOvA+PbzZbqvsOGNNJuDGsAHRP1cr73X5Us+GSsnNoeMMBALnOEG0z0MUJRI0JyJDDTeboR3+poVd14nVP7XouxXJOcWR3JdzSggFjIJJjk+Witdfl3bt92KJrtxQKc2lAUYgEDiHCaJ9nuEBI2IAcfBwtevZA3r2PaIF4Jbu0nrr3IeNkTf6ZHaNgJ3tNjoD1oMXiCKRdxriD3rc1alwh+cpEAjMKKGTOU9IvaR9XoRua6Tf+YcGaP8eUOfsirYAekuhcKkovxuprPeaeK3KPJmtChgP6hUsvAqxf+yxV2+olDzhmQoEAjNI6GDOcXz6Ly8iZSumJNIacPqvLY3uAh7ecN9Z9YA2gK7r6lpuc/IHVrjVpWEmzBPB7kAyv4AIXom4PwL3olS457q1IBAIzFOCaJ+DZF7PTqEgQtmI743M80557HAc/+RRHXrXEAOPXffgHhGSJN1nQTFlE8idayh4437JiLyRcyA8RUE9EMGrFPN7Jle/ODinBQKBmSKEfJ1DZPHFVoSKFYyIDsRO9jRbrQMt96UlpWgz8PjrHzkgSRIFzprr+GaQ+9fgjh8ofrs18n1+JIvZfBc3SYVbjcjr47j4i3G1/hOc/WWHQCBwHhBEe56jgE8XhAsC5chSc8qeZptnGm35crXBl6uN/PHYv6ru46MXSP6DrymXH5ZaLSuGMeNsBnP/GvzA3sLl5HivgS6fxDbPpBl5ONNZx6hgpgYIkjakN/C9hZ7SV9cO1P9ox4jZPwh3IBCYFoJoz1MyMcqJUI6E2Ct7mzF7m02erDd5dKjJrmabtleMYHJGFiyOcj8w6PxNTvVnbu4q/M+DQ82zISiyFZRdKjdXur4jZ/RGPxLWNRPNgnSskVtGL9jriSlQp+08FdQgRef153KV4pfXVhtf2jEDJxkIBM5fgmjPcTKFkY5/VoRcmnF7T6PNrkaLPfU2u5ptvlFvcdx5DGBEyBvBJtvRlgcr8hKQD6uXH11XLn/q/lptpoVbQP3L8oUrmmLfodPrKT48kbZJcwgILe/rBloYOeScvIDxq0UpeMjljOlOvpjkMteTbGsKGA/eGrlAvf5urqfnmxgYODqDbRsIBM4zgmjPITIByVTNAFGiRABYgaZPTN9P1Js8UW+zt9nmuWbMMecxAhFCwcio7CTpTFMAHPhIuDQ2+usS6+PAHpJdzZAHufqX5Qu0I/MtBtYouGmKxfYCxgh4JXbK46j/by/yiIg/4p04a+SYmHhA1Sy3qjmn2La4C6zqhV7NS7xwe2RkKYrJ1vjpaKuJHg9gDBhVWiCfbw8MhBJJgUBgWgmiPYtkIUOZR5aVRKQjk7wfKzhVhrzniXqLJ+ttnmm0ONh2HG07jsUeEcgLlIyMips6TV1pcaAiXK9583Ya/Gr2PtM/45aX5QvazuWWeePebkb2M1V8OqapxV7/R5CPqERfjQcHnwHa2Yc6EoI/0fnlGChVKktj7y9ScTd6kTdblY0CPQr4ke2P9zo6CxYBr/qIen7zzqHGxz5dKXmqoR53IBCYPoJon0UyIR2uICVCPhVpAzRVqTtPXT3PtxxPNZrsqsfsbbY57hxDTql7j5CYx7usnKC041Bd8eByIjZWfcVa+J0dUGOGnLTauRwQXy+Yq7P9T3GTziRZyb7mrPxWS+v/BhwHoHf8GxmkehjL4VK7/GVv7b/HNNfnxfygKK+ySNmNzyKggLeCxXNccX/v4PetMU/e3VXk/mo9OKEFAoFpJYj2DJLNorNeOzKp+doaBKh7pd95hlwyc97TarOr3uYb9ZhjztHynoZCrEoEiVAbM6rgx2QUQQCHIqpLL1pUWb3jaPVrzMxMW7cPDcm67tIdae7uqa4bqwXrVB+y3nx/3dQeAXikn8wTfiLHnx5HTdaXyy9gC5/E+QdjG7/NqPyEgct0pHb2yepwewPGIFbxjznh/RcPtj62rzvf2j7YMOu7i35dV1HvHwoW8kAgMH0E0Z4mtONVFYwknt2RgbwIXpUBp7zgYo7HnsPtmOfaMXubMfuaMQdbMU1VvOqwWTcSGTZ9Z+I/WaEeg6CwOB91vXpBafHHj1ZnrF3WJvfYy00yw5/KoXsrGOf1QVF3F5ivZmLdZfF1N+FF+eFLdl+tJpvAPNPdfShy0R+bvHvYx/JrRtjodaQgWscXfSQYr9r0yj95Yz5w8UBtxzYQBltmfXfRq4cg2IFAYLoJoj1JOtXHkAi0ASIjWIS6dxxznkOtNi+0HQfbjkMtx/PtmH2tmKNxTFvTvJ4qIIpBUpM5w7FJHTWdpwUBGqq6JIq4c0FX/WXl8gAcnrE6mJVKpbdJfHm69cnuQgXEqTzXiPV/lyxfvaBWsySmchqOSU21O7e/DRyDgwZgA11fRNo/5NS834i8cUyYmM+BceiTIvqBrnLjbxYcZGhbeghBsAOBwEwSRHsMYzv9TttoGmWFkJi5RZJ16ZYqB1uOo7HjQKvNgWYi2MfjmEPtmCNtz6Dzw9lETOrllEu3YQQyH/EsWcp0k9m+25ps/+W9Je5c2NVaUpHaTLZn2/tVaihPcUTgDdgY/TBw7/ahttmU+pl1WjimAQ/I9qEhu6Gr6+vWxj/hYalRWe9BDYiiEsPHVeU3e8qN+xcchFSw/fruIkGwA4HATHJeivaojj6dYmYhUjYVZdPhh60iSFrVou49L8SOfS3H4bbj+Vabw+2Y/thT9cqx2NEfO2JNBN1I4lacM0Keky+QTpPJ+6Rk+2qr0lZYYC3ftKiLty3ppiAi+xt+xrKEAerFXwlSnML5eQHr4AAx/zn2jxN0whsPCrjtQ0NmQ1fXN/D+x73l/0XC5bHqc4j8dsHU/ypf5Hgq2EIQ7EAgcJY4Z0W7M+Y5EcURj+1ktpuYs61Jet2YZN3ZqeKB2HsGvedQK2ZPK1mHfq6ZCHQbYTB21L1SdZ6W6nA8dSRQNCdGC3V6ec14CjJGjNFNn5xPEeH6rgLfuqTCjeUCvdYy4ByFmb4ORlbI1O4zNQKx8gjGPIMbNcHmhF+mD799aIj1ldIDzuivqPI2Yn6nWKh/MV+Ezxwc8Qc8BwR7+JbZdIYljGtAtyY/zuRYc7YZd3sAbBvj0jLbB3+eM2wYncS163yds8xb0R47W86EGRJBzoQ5C6eKxKBAS0m8sr2n7ZU2Si1WDsaOY7FjfzPmWOw50G4zkM6Y615pq9LwHpc6mUUIViBvhGLHvaFnON6ZJLMUxJqEj3kP3VZYUyzw6oVlbuwqsCiytH3y97PCdFSYVsHgn+lfPXQsv7t4do47xRnlwYHGP17f2/ufiwr9x/r6EfpHOud5KtiyCcyhtFPrS5YaPMC2CWxkE9jdYCqgfcn356tojWoPklB+BTg0ji9v7Pi5CrkK6LLETyJrk8DMIZtB7gFTBfnmkXt5XO2+efSv5h6w6bVLUzbMPeasaJ8w/NHs9+SHSGREnE0yw7ViMCo01VP3Ss15hryn4ZW212Tm3Ha8ECfrzMdSB7Gqc8QkDl+x+vQ12ZclNXMDZWOQDiex7Phm86lMTPmACG31DMRKQYSlecsVxQLre4q8uKvAgsggCPU0d2dxRtzOph9NEsGAylGg9XCjcVYP/MGBBtf39rpF9B/r6x+dOW6eCbZsGhk+OcAtG/mbvbGXbiPF3qjtKoa8lZPc1hGIMe26uGiwXqzV9sCABVcHSJK1mo1g+0bKuM9lOoU6PtSRi6cEhecrlZ5SFJdp226fjNNPaA+valQkFu/7Ta5eu2GAQTqS+7wLeAKiIOAzgtkIpg/c1o77bQewdiG9vlHqylm3QDQXySna3aoan/fHW3E0dKRarQINwD8DrAZuSfM0zDUBnzXR1lP9nv6QzJAlzaE9Ys7Oi+BIzNJNp9S8o6qJQNe8ZyhOYp+zteXDsWfAeY62HTXv05AsHb4Kmfk8cw4zaV7vgkmcw3SsQM+Rxy6z3zlgyCtt9SzPWa4q5riqnOeGcp6ry0VKJtG4llc8Ou8KqAvZNdLea6/F7tzJWa1VfX1vL4vop68/WbvO3p9Hgp3dKn5bKkxrK5UlJecu95ZVsfEr1nmzGsdyRVcaY5cpPtcRoz5MDKJq+7H+eWmVjgnuCZCjXuyBdd3xk8BTDfAMtrKvzGB63Km1xybwmVDXursXe22/yCIXWOOXNb1ckRe3Qh2LRPxyEaKTtIcasKANL3oAXzr6aIVD4J8UzFFxPH2oVH/yJUcZ6LBeTDHIIUBHduY+8Js2YY98Nr+m0YqucOIuxNsVpq0XY3UJmIvU+PypGtuBUSf7rbgXVlSKh8AcFOOfUWf3xzbeuxu+AbAW2DHQnDPXbtyi3UMyDOk86sn0nELmLZ04aGXe05njV5TGNB+LPU3vGPJK1Sfe1zXnGXCOmlMGnWfIJYLc75TB2DHgks9pRyaPrORTtm9BksFAutBqzIgw0HF+M+HBPRXGrok3vdJUpTcyvKRS4JJinisKea4p51iSi4iAmMSs7zpymcMcuOsmeupJetAFj99DCZi5oPKT8Fh/f/bjqGa7b3BOi/XY20VfSdfyWldrozfR9eL9tbHlGhG9IKe2rAYLiqic+d7InCUMoJFPxtD+ON4+IUYf816+fkul+JUHqo17GZVJds6gm0APVSpLWqqv9sRXG9rXG+EGgyw3aosYjUxH53Gmfs6IvCRrF8HGXqn7SJ9d1C499my3f3K9RE+IG/pvTmJt3z40280x71CA27pL62PPun1367Ve5VqDvyrC9mKS2kHouNXpagAxklj1MI3YuKORmieN6COKfN3Z+Is3L8w9frIvP3isPd79TBtnFO0t6eu9zaJdGGmlR0TzIh6wIqMfcVEZdYMb6fw5+VvDK/2xo+WV487T0ESMj8ZKrMrxtmModQJrOaXmPTVVhmKloT75ribiDiNhWNlDNvy+GV0ZqzMnNx0/zzVxzs5p1DGSmO6TfORKXuCarjzXlgpcWshzeSnHynxEToQ2Huc1sfMwMkiatXMxo2qXTApVBTWXRq3CUmhWCTWqT0VnsjwA1vV0vUZ8fGcdfwNib8oJCzBZxhjBp2s9Y8asZ96PIoIaVYwgS8WyVDC3Y9R5lWfWdZd2iOeLbZV/eq7dPjDoHC1VWqpn+9qNXtLoLb90r/PfLOI2ALdGYnuyUjGexGlzdJNMqD3QpE/tNnCtFa4VLE79gErxflW911n3SeDBka/G4V4+NaPa5ubu7sVW47cKvMx5XmoMVxgxVkRRTVt/Mvdy8mkRVBRKFrkQuNBgXuFU26ZtHzPCV5zKfzxXrX8aqAPsA7l5YU7PtnCPe6a9P3ZGlNKyXKKHde/dkdibtk+WHI0IQ85zqB0Pi8ShtqORmmUPtZJkIrEqdZ8IdM0pMUrTJz97oOo8MSPe2JnoZD1/zhjyJ7Q4pxwRT2MWsRmj09tbNRFol3YgyXkL3Ua4rJTjunKBS4t5VuYtK/MRJTG0UOK0TX3HNueEKVz0OTwtRHKT3IJJo/LWVrxeDTw926c0B5FNYDLz91XQvaCr+AZrzNucd7dYYy6EJIlPR6KeU6UkGPcAqzPpTGKpUhGwVrjciFzujH5LTvV/XZKPPmeN/PUXB1u7LHh38jH0tLdJun2/EaJmb+4GYvtDOL9RRNZYwXiS5yw9ipO1R+frxNoj+Z+QLEn1WGNe41VfY7z5LlX9nLPy5w8O1Hfc1BPpQwPxnDG9zhGGl3QA1i9adKG2Gu8wxK9DdK0VU/bpEqfT4cDdk31/IpMFHTNKk7RGRC4y8lJBXqr4N63qLt6L+r+uVVufXgRDqWCf1YHXeE5KAHTzZvml//uHmw40/ea26lUOTM0rTjUmycFsYoWad8MC1HBJbDAodZ88INkataQmaklNtzbdlRmHOWq+05mkBRKRbqsSp21RACJjWJyzXF6IuLZcZE0pR681LIosZWuIVdO0pxPfvyquYo1teP9o2+pb19y/+6nUKX461x8F0PWV4m3AJ41I7xQ27oyIdaofiwfr37fjxJWa85nhDv+WRYt6aDfuMOh7BNZbkV7tSIt7tslCLL2q956nxMrfNtr6fw+2288Nes+d3tttM2BC3wTD211bLF5sI/lxC5tEuEhEso5+VtpjeEFW2a3IX1mnf9nKtZ+bonAPDzDWdRf/MBL5kUlmUcwSCB3UWNYC+++rn/WiN8MDurULF/bm2s23CrxbRK8XIa86e04S2cTRKcdV+LQx8W8O9be/8ujIn8/KoY1npp1luPTAP/7fQ/07Li7k7uox5lsiI1daIfLJzDAWRGymu0qHAAs9FkYsER0IJ753jjE87EsHK21V2k5pp+ddFuixhm5rWV6IuLwQcUUpz8WFPN1WKBtLwSSi3k6LjEx0GDkLKEDOm91t62tMqAbXCVivqgJvyVVKn6Va/7ONEPUloTnnM5ZUnG7uLb/Ytus/LejrEbMIIFadqey04yLJwJck6bVGrvLK5kJO33BxrvBH7YGejz8o1dpGHZzW67gRom0QX8PSSnf30FsN+hMgNxgBp5rYUWexPTLTrREuA90qkd6eb7Hlpp5o+0MD8Rx/pGecYeG7ubu4wbSbPyHiv8kgXR5I6wDMWhuliqzGyAJU36YuWtvVm3v/rVHt7+99gUHOknCP1zyuAL+295j8Ouzas779K2/YUfmbfvxbEL1NRK8zYlchECfJPOLU8Xt4QjnXXEhnkhGRTgapsUIrFWoH9FjL0pyhO7IszllW53NcXoy4tJhnQWSJ0vhvw0gY2mDMsP/PnDB7j5MVtdoLe3sKz6KykilU+VLAglXRLet6CrsZaH6mc0Z1vpGd+8ZeFrTi0nfh9H8bYY0mM0kvEzcPzgjZ8x+jasBalfWKuyZX6b91qdg/3FPtfhIdnA7zcBZzHt/eW7isHQ/+jIHvMki3RzXWcfmUnbVmcWnSIFF5rUa5KyPVLUr8UTk7Swdzjux+3sSq0rOVF95hVd4ropeoCLEO17efC9dPXDIQVStcrt5/QNvFq9f35N9338DAUc6CcE805EvTg4qBr32pWvs/1/fSm2/nN+SNvErgRo/eFBnpFZJY56yy0xx6YKYVGfOzh+G1+6Y6BKHHWC7KRyyKLMtzllXFiAtyEasKOZbkDDkxwzNxsu/6xPSdjXpm05lsijhV+arCuqnY2SSpEoZBVqDy4VZv4S76m5/taPrzqZOTbeDWVSpXt5z7JTF8G1B0aal2mYPjunQlTF2y1NFj0B9B3S0rKvo+qt3/8YwOZoOMqZiHdUOl+LLYy69Fhjs0STTkJMk5NKcQEFXUJdXrLvHK72+oFIpabf6ZjJzT+XJPm23gbu5m8X498itG5J0CXXP1fs4GxA68QcoKP6ra6n5lV9cvfnZo6OBmMFtnULgnE6ftpQ+BqgD+sX6OQetTwH/dUVx4gYsat7TQa61yo1ezLhK9MBOzMWcxlcixs8ZYT+7OnzNHCJ86j8UoRSMsjSzL8paVuRzL8pbFkWVFPmJFLmJZ3iIiqFdUEu91TWfj2fp01nvNuZ5mcjgrfM4rd03H6XjwFlZ7b/5yb0/ptzZK/h/6+vuPd3zkfOjs9Paurle3Jf5NQdamEQZe5v7YTgDrkpkT1ujNXvXPVlbiS58Z5I8YscRM9PopwIZK6VsV+V2LXubB+2R2bWf7pM/QHpIOZBag/NaGnpJsHnjvn29laxb8ca7fywL4O3oLl7a9/J6KfEvSJuqZ+/ez8aCiRAa5q2q9uZnun9nK4AvM4Ix7qm3SOToedXO9qpvFNS1eK+g1KnKTqtyByOWRqD1JbWjVtPziNB3XpBqg0y7VGa+taR62bIUw8/DOGbiokGNplAjzRcUciyJDT2RZFBmWRhGVyCSeX5r0qj4V+c59nO2TPkuOaJB4NevThcJlubzcC7KsY1wyFbxNHpi6F/7HOP271lDj33dAZ8WyuZjYYyoMd+DrugvvMNhfNXCRG3F6neP92wkoyXW0CnU8v9tVqf/mZw4yxCTE6rbe0replz8Q0VVpIMqcWB6YAM6Cdeghr/Ku11ff+29b2Tree3i+OqIJoK/qLVxW9/JhQV7pRrrFOTW7PgOeEaPob+QH67+S+mnMSNtN5019yrWYG5Yv7yo1q5fjdJVofCOYV4hwvcF0e7SUJjwj8wzUkXXKrCGmdJyjRLFjZODT/WXCnP2cebNnoWxeoTcyXFDIsdAaVuUjluciFkSGBZGhyxq6rKXXCjkR4tRjN13fP2nA52z2JmdbtPeuosRA6c9E+R6dnmzkkI53rID3ehz4Asjf1Gz+M4+MzLyzUKj5nkJSSJKC2P3dxR9H+RWM9M62Y840oQIiqPeYv4hM7ee+2M+xCbQL63pLb7Ze/1BELuxY/5yPxFaIHNxLM/f21zV/Ytc4hXs+irYAektv4dLIy18Y5JUx83KwleENGFWtYfj+/EDj7/tmaOIwK41zxxJW+lp5WcuYy4y6m1S4NSey2uMXgCywiQdXMivNcoqMhB53RkuNOolOUc7SvPhUQNNtDcdAqyYx3xFJytTccAEQw5LIcmE+EeUL8zmW5gy9kaVkDXlJcpAXjSGXeKRma/fEqnNGmE/HWRRtAFm/CtX+8usF/VcgxzQ/mFkcf+z1mIg87lU+qk7/84F6fV/2mY0QvfwkqzRbZ6SFp7f9AK6BXKW7+OORymYxdE2yU56zZJEmXvkLjdlyX72+n9PPVAzgN3SXvxn8nxqRVedAm6iC5sB45XePV+u/sHMkl/npzm6+ibYAensvC2Nf/AeLvHa+j6pTUmsJO6OWf6NtNnf3zcBs+2zmHh/upL9whANQOwA8sukaPnngaKW3VWWpUX+dWr9eVG4AWaLocoOsiERyMrz+Syq5gknWPpJsYZk4+8Qu4dPCH0Wb1LEuGENBhIJJ/hWNsCSKWJpPTNlLchFLrGVJ3hKRem+LkBchn4ZqxamZPKn85anBCeb1uSrUs4gAGke1e6O4+KlI5M2pE/20rTWmFhM1RhaKcjuiL8HqXeu68n/vNPqC1gq7q9D/CeAyjmVFADygG4G+2W6h07ed2Qz6X92lH7HKL6uce4INSTiPEbzBvNNZ/9D6UunPLqrXzSmiAwTwN5fLL0Z1qzWyKp4Bq4OOttCojE6e0pkTabo8mwVQD15F3tZTqfzH0mq17/A51K2khkxes5yuwXrxtwzyWjd91rdRuxqzCqkk+1Ydk9l6Gi0zNk5m3NfExtz1RfgVRqwH0/bUnk3RzlLXyBYwO0GuAWEn8TVUDwOHgZ0Dq/iPp45XuoYKrcXtpr26pdzkRC9z3i2Jjax0Ti9AzCJPUse6bAwlI+SNoWSTMpklayins+JFkWVBx7/FUZK0pNsaREcXI0nKeaa13TSZnceqtHxiPpcOt84g0OPGv24f5hML6SeWv3KWV4nQNY1m8gxxqeuBgS4RWW+wLxXDPu1ufA7R/841cl8+QPeTALcDr2oNmq2gq0H3zHYrneR8ANkM7u7u4ndb5ZcRuv0UwuYmwEnTj8iol+nfpyjW4+6JxH8utpZtyZLAqHKhmWfu+kWlC4n9+wR5aawnFPOY/EGka+1CEmI4HL1xks37dBCfDhod0yAAAsaBy8FFMf7NK+GhIRiqTWWjc4dhsRyodf2g4L5Xmb5rR4dQG7A2jboV5IQdJOY2za6dT32qpjz4ytKOqNV3bKhU/nZ7tfr16W7EmRbtsQ2QjVZPPerYRx2qdaocAZ4APv5na9eW24eee+kzGr8Eda9ueX99JGZRwUpvr7X02ES4u62h2xp6c5Zea6gYM5yhUETSYZ52mM6zBy/J3NYimamPXfue6y6Mc52tAMcwa1nw37br6L9GYt7eMYuZttbNVkY0ma2oEfJJEgsuQ+U72oX4YVH5FNY9cGRp8wt/B82Nu+Bhkswv/bPdUKNOBTaD/1RP+c5I/fsRFs7QjKSTzBlUTmYG6Zh2TvfAQSMwMfqoE/kZ1Dx5X7Uu6yslv61ap0O4ZSvoNdeQ93v9j+bEvsGrTts6aCrUYkSsTzr03U7Za0SPe9XnUerpx1TUFL3oBcAyRS+2xlyQ5VWY6pQqCW9UBXlLoVj8x0WNxvY2HTU/5ykbk3lRvK67fKfgf8kghWkchKoBMWnn7rwe9bBLhMPi9TBwTJP9eyCnoktAFqtykSBX5UxWjnnKGAU1Ihd4jb8V+E3mmXn8hIM9sOGyZa1q3G7afGQjc4lV8i1pRTk1F3hM2YsrqsqFkZD3KiVrpNtqfyFaWVkoaEGSh8R6hAhJO5LRCZWHPb07f/cjHuCa/XHM4vg5FGY118jEpkZB3+/arI3gOsf0msk7kDSuW1HVtHZMVwS3qeFWdbJ/ycHSF53w+aGifmJFo7H3eZL0sc30+8zyEttm0P+sVK6JNP51g6yMSeKNp3EXmblw2FEERGLvWyocVjV7kWFfEkQpIP4iQZZHIqKMjoLoaK+JPkHeJrPLhxX5Iav60PbBhmzoLur2wTrrKyXGCLeWdqJStk84q89HsDKe/LUabgMr4BQfw8OR13uc4UlR+7W6be9VmsfzA1R3dJjq14JtQaWyuLLctP3FHr0K5Q5V/RYrkp9ixh/jwOeMrtJIXlyJou3VOGaA+R0O0ZdZWy3PmZgdKrw6i99ncsKtJEINijhlj6KfNsjjKrLbq/2G89VDB6sM7Use7ey5NtdAsVJigY26L/bOXeWMv1FV3hQZLo2n4ckXQUTkjRvZ+Dt99E1r5sYzNlT60Oqff/Pa8lUD7rblQ9VevLayfCBGfYxSMEYuN8YXrEjsQXDWY1gsyjJBrU9KqHSp6iIVcSAGdLkgkaIGWIxSEKNRxdhcVqJzOMQqlWbns8pXoyryDF/Bsa9jTzBo8ll3RBtmE9g9i/LOtHmjqPmoEVlwFmaP0NGpSyZUSeawIRX9qioPWMu23PHG9i9C3NHhzkbYmGwG/Z/e3oVt3/qjSPgup8RM0wBbUy9XSC94svpznygPWS+PxzZ+nrYZMJE/4gXn0wc11yTXMH5pFOUWWZGFTv0NKrzMINcaIe9HlHsiM980dE8f9sgPGbh/+2Bd1ncX9b7BBhu6i2wfbLC+UuK+MTNuBW7uKrwqEn4tMmZdnJnUxv+IewFjAaf0e/i4xPopH/mvPlBtPcE4M+3d2lNO6tQrtIkW57T5ck/0k8borVPx7k8d0sTj/6mpuXcfrNWOvOD9cNL9McwnRzS5ZUFZS8drK5pdpfcby3ej6QB7/G2ViDWggvdev4LIRyXmvn31+mOkVbjGw4XlMjby3DvQsBtKpZcS6V2K3CWQn8JgIs1mqUfzRl7/hYH6A0zjROCMB7Q57bi+/eYXLYb2h7qRV3loqGYdraomsZaLJHnN1q4pGSOlNB3nsNB2DMuzSi1JkpLRCUuyz5zuqk3oRALDzJZop8gti/KKk3cab37fQMVxVsN0hmeEmXhrElmwR7zscKJ/b0zus8BRgPsGBmRzYpY9W+ItAOsrpXeJ6J/CcI3rqd7iyVpf8jh6VZ4B/km8v1ud7O6/7LIDJCtE46JnYKCk/YdWeZHLI3ilevMtInKJiOa9DuddON01jS1ETvVhlVML9pm4Kdd1Xb7k3o/K6zuTzJyhHTDJ9a97/N2mxZ8eaza3c5Ja7TvP3O46RrhRuCrC/bpB3+KnMChNenk9qM68YX+jsWOf95kj1ck+CvNDtCEVbuOjRUrr3aLySybJ6HdGa1I26BTAKU+I8X+iTf4DeOZkn7+/2Tzt9VsF2iHc3LmGwguHCndZlV82yMrJmu/ThGJtRX/hgcHG7zCNoj3uetr9tqovtHM9lVxuYc37YaesrFPpMCkM/6WpSj32E7Kbjbd1gkjPW/SBoy1uWZT/S48gXn83gt44KSx8Nhwjh2+dbICYiDerMbraqr5SfPvLDv8PWD6zvqfnma0DA5rmRj4bkSl624LcjT7mvYLINA1ofGJhEKOqez3+b1X1b1219RTpUmlp584JbbCdzGaeAp5aBZ/dn+/+S19ovwnP243ItaSZvk7RCTsLUYw+Zoy8S5QHJyPYAA+1h756hy3+YBzxG0b4diA6lXCnAwkMiFd2G+Q387a5jSLHlxZPvv2NZ7jeff1w70AtmXGL8uDAoNzc3f2EjQo/6dr1ohF5w2SFWwEjZrlaVk70u3McfeB4jVsWlI++/njjNz7dUzqmXt8XiSw6Qz/gIrCK9qvyUVrRnyr2awD3t6qnEsXTXr99ALUaF5bLAHL3Lpp3rmn+6fGDxYrC+wRykxk0p9lhcqpy43Q33rhF+9udlzzSrHul7k9aKkdO9kbwsg6cjAeOtuSWRfyl95EX1c2RsDpd4z7rhQFSXwdVUCuyQOCVBnOrOn3Y0fzr23sLn97W39y9Kfn4jBYpWb+KUvu4/fG8cFl85tnquE4v3Yb3+H9H+e37q83ta8HvGP14TmYwIoDsgDatwSdo8Tu35vP/rkXzgwrfHSFLx4b3KfgIrCp7rdefVisPbh+sG2DCgp0dwxcajb239/a+x9Pah+dHbGK9GTVgSGdoYhInr39pW/PrFWpfBujrn/wyyMbe0cK9vqekhYHBqNbd/Wyk9vcUt1ZEVozDAnBSDIpPiu2cczxwvMYDoJsH6h+8u5R/3lj7W1ZY40+yxNJx3+xy6rYWh9r/1MhXGqlYpx+ZHJlwryuX9eJazW7bhW7sbXy44YuvzYm8Op5kiKoRiNVfNt3tNtGbSDqEWMb8Y+y/QOA06ANHW0Zz8Ufa6Pd6+KJJ/QB1dvxtJA230WR2K0Ursj4S8/vOm4+uq5TfdaC3dyEzN7CQ9atA+osvMSJvc9MTCpM44akOKvx2QRvff1+18SVAdySd0JhswhPfPiPWBwNwb6v1xPUDjZ9VkXer0y/bkWuqpF7iquxVZ39Mrfn0qsF65tGrkxDs7Bjki/39x3L99S0q/LxHDyczsuH7SFNzeFvRD+ad+ZEKtS/39WP6+ofr/EyKvv5EuCERboPwcvAPDg7KEHzVC19Mk/9MyjzqFWJxF+/zL8lN4TrNabaCubPe+hdF71JluyR613lfutT34bG26PcWh9p/2wfN+1vV6agOByTCvb9W49ly2W0C6evnuCCfckp70gPnxM2xez0sYpJm9pMxX9P9Bc4N9IGjLSN5/3nb8m936Id8YgLLHsazThaW61BNhbNg4DYj+nvON//y2d7SWzaNdMDTJdyyfhU6sI+8R3/YQJdOwwzbgqjygqI/uWB5fXNfEkaZzRim21rgIXE2/HOI7++v/7MT/90O/RdJynJKejx7DfwYkfv49sGR5CmTFOzhcwVMHzReN1D/IN79qFd9Kpeu36cXKfaG91fLjfeSqz1PPxHTtNwxVri3ptt8dGjoiChfTfysJnevCGDUXHJj766u9ETPtfmQAroT7GuqjS/EEr3DI/9qZCRJngHr0UcReWd5sLG9b8RCPK2D+0y4r8nkVnWHqh4UJj+wE5V8oVBYNJ3HGUQ7MJsoiXDbVpfu1lzjZyP0nYp+1UqH28QsCHgm3j6deQNdFnmzeD74bHfxTzZUKi/qOK6pdqQysA8qleI6UflmnfrswSfrtnrUif7kghXNv7h7F01Sp9YZbE/tWDow91dbX2s786Oq+tFckidhrzp+zAkf3z444uA0RcEePmfSOO7XDbU/pvB9Dr4UJR7iosIftNfUf3Vhg6G+fmxfkjhx2ugU7pQ0K+vU9nNOTq1PcprbwG0F802Dg09KTt/jVf8YwIJR9NFY5PvzA/UHSQR7xu7hfSR5JTaDtq3uQ2RApvB0qwz3H9NGEO3AbKOAe+BoSyA/0M41Ptr27juc6p8oNNLCLVkHOGviraAxYGCZFflBL+5jt/YU3nMN5BmZdU/m8RZArwVrDXcZkV6dwgpT5rWt0HSqmxctb3z07l3A2Q1fy8zmNm/cgUYkm53Kryr2J4j4+PbBevaZyZrET7dftoK8rtr4kvP2XQ7+2ysfrdjir1V20U7Xr2fEJ+Fkwj0NAzAAjYw5H/TbbwV53dH6fu1d8l5V3ezRHSbO/WDXQP3BlyfWlJgZ7gc2k9xDkZOVKN06x1o+iHZgrqAPHG0BeaTQfvyqweU/LbhNDv5LoGpETBKOklQ5nYXjExipCheJXK8qv91TKf3Zuu7uK5j8rFs2gT5XLF4ontvSxH2TPj8DXoTYKX9ydOVFH04Fe0rrtlPANSKh7OyeCwaHflXF/XMq2MC0zbDHooBuBV5fre7UmHc0sT/V9sf6p7p+PR76krR6SdheDwsNch2qdprC9s4HdCvwun376u1q4zes0bdF9cH7+s5i2OU9ab5/kOsRls61a3c2c48HAmckEW54gD0NBvnEui4ebJrc6/IavUPQtZGYnrRiW8xIga+zjlPFIAUR3uHVXbeuu/wr9w/W/pOR45nQ+Nzl5U3G64VeT0jUNxFUwHrhM/U8H9i1a1cry9U9G20E8JXjw6LsGByd82IGBHsUWwGSamHD7XMWTlk2QbS3h5a6wg1G9I6O8V6YJI2T1ETdpr+5G+DlM3Ttto75fSNEy0DvgaKi3xSJFOdaudcg2oG5jLl/iIPQ/ugd5fZnWhTutFa/E2VtzshCn1R4mzXxTpXQW+EmDx9cVy78RlxrfmRHYg1AztzRGMAfggjVV4iRspt8B5EkxlBe8I4PPtZf37cJ7NYZDE+bJ0w5JGi8+0lrt+veHlpQWCMi7xWRVb7Duz4wflJBPRsphQWQtWCXQfsQ0KwUf8qIvHou1qwPoh2Yy2Ret+YLNQ5A8yMbuvikUHyt87xexd+RE3uRJuKt6dN1th8w41BvhEuMkd/Nl4sLtdZ4/5YJiMVQb+/Fede8lKmtf4oIOM+/mqH6f3UkgznfmakOXzpedVPqTLW+B2xcfn1s+Ukr+urZ8MM4x5iJ9htbcsKvBb0M/N6lPWtMo32XKO8GSjpSRGfOEEQ7MNdRRmKjdfsQh6Dxt2tX8i/5ga71sfjXi/F3GMw6ywleKmdrlGyc4oxIRQ1bbi0XubfW+C1IHFo4Q8djtXmzwmqmUNoxKXihB701/3QJ1LeNxGEHxs9EZuXDJQ42Ac/2Fi65NY5uU9U71PpvjUSWuzk4SzuHmcy1A9CNUKl1da17Vtx6aTbvFMztJDmd5+T1C6IdmC9ks0YD6I4D1GDos8A9N3Xnr4hUbkf01ap6pzWyIC2sKzry3RnN+ZPm3fciFNXKr26oFHV7tfH+raf9SpoH28nVYljkp5JQJfHX/uKxodo9DybbON/N4qdi1AyZMR34mb6sILd2dS1tG7cmEnupeHfpXuRyiVnjjX+JFelSFYJgzxidz3GnJWlcA9Q7Fy3qOR4PLRNvrnNer0C4pClcbMRfHyGrdbhy5Ny9fkG0A/ON7EHNOl3/0GDriZu6eSLqLf6rVFvX0dJbvfBt1sg1CmWSEChSz/NJz2bHQVJLF/IefuH27vzXGGz9B6eebSfvGVaZpKqdA3IT3WlSPEGHEPnvXSMlCAMjyKakHGMWigYd12Mn2EGI6kvJVSOKZiC3PDLa601uBd73iNjVeL9IRVbeqroAfCVSWYK6pRjpjRgpVZoWO5qzHf48REiun3Tk/u98lsxasO3l5HMtooIrLPGx75VcdLF4rSiscMhio7pMYGl/u96DSo9HLzSGxdYYK9m1Y3jLc/r6BdEOzFdGieBDgy1ugqNRb/Hzvtr6fF31H7ra5hoV/yYReYXAhUbo0qQc5UyKt3jAivQ67K/d1J1/8qHB1hOcIk76xSsqS7XqLkIUhUnlcTACDvbGuM+dlZafH8imkevrALcTOASR6+3trjeb3QXjFnljblIxlxr1q2iYi3LoQrHSpZ68eMqoyYPvNiLGpAmbE9VIVjuT7CknjMfmbIc/jzAbk+sXA3oI2AiwlEqzWuptWNdbxF6lRq9FuTBfl9WgixTpxpqierpVJYdo2UDeGsGkxa00rezXWVFyDHP6+gXRDpwzPDTYgsGWAGxYUHxmKOeeuai86J6D1RdWWbGvxPM2K3qVRS5AhFh1xjzPXZJG9Aav9mfXsvYHL2OH33aSGXeu7i8EXeGTEjwT7iwS6RBB2f+Gauuph4bfPm8Z9uLOsrO9euHC3qH20EpnoovFc7OJmy/N5+QKwS4EWSBQFjHGiKDZJTCpMAOpyVSzDr7jIs3pzn0+shnMzmRW7frS5aINC4oX0+BCjczV2vTrJdIXl7DLRLWiXrpFyAnJfwpp2MbItQPUpYOrc+HaBdEOnGsowPbjDQHkkf4DNeBJ4Mn1PT0fq8VDtxRs/tvE68bIyJWp5/kZ6/hO8kDUCG/Qnq+9kgEyj+5Ra80Su0UitofRHcq4MSCxeq/Ilwne4oYOsd5QLr8ktu7GwbhxG9j11uuFIlQQyUla4kiS1Uv14DtmXWNHUMIkrSCBcSMkOQUcwE3F4kUmr1fj7Xrv3CttzrwI6BaVskh65UaqC3kdPWOWsdcu++FcIIh24FwlW/uSzUk2Je4bGDgK3L2aZfesKB26UfD/y4u+JSdmlZv+2BzxyWx7map+z25WfmEHB+qMnW1bWa6qWdalic74VUCcypBE+uhsNfQcwZCE7uRsd/611sutGH1zhLkMoZD02sNmUa9JLy8d4TzmXOnU5yHZ0pHb0Ft+Cd6/0iOvMXCTiC4kSYYIKKp4n61NjIjzeXXtgmgHznV064hjidkMwJ4Gde7/BHxZKsV/VfXvFJG3WaSQToOnzRHFAyL6qnzX0Q0M8T8bIeosVqFKniR/+cRPjKTXsmjNt3XfLLbxXEDXd5feiOfbQO80VlakddKHa6Wr6nAu+fOpk58H+Nu6uq51+O/x3r/RiLkqUrVeJat175Vw7TKCaAfOF4ZzUjNiMmuvrTb6Bpeyo7uW+6QzuZ+JRNc6HS70MOX+QcFbZIUTvRP4bF9i/hvebuIXhzOQm0JRa+esGZrl9j3bDFssburqus4a/78FfYMxskKRrLpMZwjded/ZzyGGr93alZTzteIPO+/fYYVrE+c+xXVYygjXbhQhtd55SiYQxvnz8R7IQn9kB1A6THWw3P5H0fi7nboPKTSnUkO3A8l2psgr1nXn15Ak4xhuc4tZHiHFNJf65Gouq7jImZlN5D23MCTtaNd3F9+eN+4fLbxTkBWOJCmGjqQOndH4/MCEGb4Wa8vll+arxb9Rz29Y4VqXhF1px4DZEK7dCZyPHfZ5T/pEeGPEWnx7to9nlpuCHcDOw0h/qfX13sHW/1axPwH+gJmmcpaqYOBFxsllAIc6E6uglUhGjmXiCGoYaoscGH7j3EYAf2Nv74JnK8WfN8gfGpFrOgOwmSNCrYkV5Xx3DuwkC8PTWyqlTXnr/8Yg32aQyI3c/XPi2jE6pn9OEUT7PENBragvGDHO6yOPH8/vV0XGUdziXEd3HkbuhtbCgeqfCvJehx5Kw8Gm0jaSZEqTLm/kxZvB3DOSlhVVraXr6JPsqBTx5Ctd7cpsN+BZQABdWyxeXHStP7DIZoSedpp3fq6QinVswdjQx2YIaSjXhkrprRb9PSNyjQOdY8qoCk4EMTI3r92cPKjAzOAUtaC9UZSrOv/FgYb/LaDJlrNSSWc+oIDcDbZnsPG3ivlpVR2Qkb9NhmETuQi3/E9vby+gm9M/euFgrNo2U8gVrqLFRsMu7jiHc5FEsBfSG+XklyPhe1WQtCranJiZdYp1TiTyqk949GER8VO8h+Y7w2lHb6mUvlXRDxiRVbGO9u+YRbJr5wTICxal5dFPKnpgri2oB9E+D8gWiBbmjERGTL+L/7G/pT9krXn09bt2iWydm2agWcID/m6wDwzW/tajH5HRoUGTIQkpFbMytq0ywM6RIss+S6860Y0KSW8jiFFnyrPdcDNIJtjk4+L3W9Hv9uD8zKakndDBGZCcYCKRyKt/1qn/UNvJ29XxDxLywAPozT2lmwz6u0ZkVczM5EaYKKktXiIweRHrVYc8+u/q5Ed8bH5RkEPpgzln+sjgPX4Okg3n085Ei0ZERVttR1/D8y+ykL8vov2X/ffu2TaLz9UZfua5qiL6J075NitcNAXvbkHAqL+IVtQ9ugE0EiSaSjsolIyJV852o80gunYh5FqFV4uVnxOk6NDJ1h0/5T7G/C5jfzjhNU3Z4VS9R7+mXr4CPB4j22uDje0tpLWoUnglc0CcZhEB9NbFi7t9q/ZrkchlMyTYndfvlNdu+Of05vEqxLgjHvOIFX1AkAfjorkXONhuudUFJxOuBTDTBNE+R8hiUkUgEjAkCzJt9bqj2pKnm83/WZA37wb2UIPv+trzsyqYm5PsR3Nm9HoSPCD3D7Z2rasUP67IeySb2E6crJ9Y3PK+1PkH5+zzkeWQoBd4JmzqzaqY9XiVG4CPzXajzQRrFwJNVmLMjxtY0ladrk5fsywdpGFFoxo/+cULEquqenQAeEGR5ww8r8peFX1W1B0wXp+Oa927QQYcHoewi7rcMokCMOcYeuvixbhW4weM8DqneKZJsDMnP0mu3YkZ65KCXd6oOJdkMj0s6Ase87Sqf87As+rNsyJyUCJ9RmGPRCCt1DDiNTcXE+EF0Z7HKIltVUiEOm8Fj9BWzwttx8NDdR6qNuQb9ZiDbXed8/5XS2J/D3jkD8vlpL+v1c72YRuSeGk/NtHIHCQp2RTJ/4jjPVMZ4aRTd4mM7xnVGFaPAQMCF0xyu2pB8HrdbDfWTJAKNjlT+BYj3JmuI0y101dNBkg2kmTg45NUtoOgdaf6jGB2KTztxB/Me7Pfo8djF9cKRmpNZwd68/mhT7/udf0ITrzDeMXVugGBu/86C1dywcETGdLaBQX0PaKCn6bcBwJqBSskfSAwhFDzqvu9yhPW6AGv/mnEHHLeP49IrN4NSiy1XD46XllxwQBJRbwTuHvXLgu4tT2FOXntgmjPMzyQZHYSIgNdqZfEkFcOtWP2NGIeqjb46lCLw+2YQe9FgLKRi4w13+u8Xwfyc9ur9X9jemKRx02nSN+4MHdtvZ17622x/8iXGo19Z/M4JopR2ZvWHJiUOTZzQhLEquqFANuyzjxmHxEHRHjRcJWDSexAhIs+3dW1jKGhQ7PdXtNKEyq9lSWNwfgNRojiKXajaYdPhFiPelH2OWGfQp/ivoTP7RHvj1WKxWr72LEhOgaVhfQ1ok2z0WDjtqQEjKQ3hiMR7b7hXZ33yI2LSlpsyfcZ4ZK0QabkG6LgrBBJkuLusMKzir9PMffFbXky9nqoVGgMaA91gfqog0lfY1ocb+w67X5mu+FORxDteUAi1ImhJi9C0RpUod95DrTbPN927Kw1eaTa4Lm2o+k9LU1m3+VU1D2oV9SKXOVVP7ihXI6BT2yv1c6GmTyrvBSvhV7bXX5LFPv/jeg1PqdyG8UtX2o0piUmekZouAGflwOCrJpKprR0tj1K+Kv1+qGeSumgiCBJ9MtEZ5GiCh65FOteCfxjx+7mNZvB3NNb8a1qa50R+zI3DYJtBZMmH38Y5T/bBf6Npnnm4qHVx4DW8IfrsI1jki7jdGxi7CZHsoAEb7MTWXm0XjjeVf4mM3VvPAU0J0RedV+Mfl7U/FMc60PRktYRgXqO0WsR9+0b9ayd9NrNR4Joz0Gyu8krWIGSCAUrOJTnm45D7Zj97ZhvNNp8tdrkQOxwXonTFde8CBVDlsoxQwCJwUUiK53xW5ql/Nep8Y0ZXl82m8BvA7euWLndRO7doG8CqQCqmO+TyH7stmJx56sbjTm5zq0QgxwXWDWV7Qjg3PD5ZeLfEuOf16R/MUxiUOCByLCw7eS1wD/MdntNE7IFVA5U5Zae4to80hNPLRrbGzBe9RAqf+PE/Xm52trNUDKTPsROloG9ZiTVrQLMxftxPpDOMbRaKa5H9NIpKmTmdOjbXj/pVT/ge5rb5VixBhAfKfKGRiMr6Zk5kcIUr50IOmnr1wwSRHuOkaxPCzmBghiq6nmm0WZfM+bZZotnmjFPN9ocjmNiD4IiIliEopXhpNmnmpUIWJck+3hp1Gh/z2bYvHUkC9G036CbwB/oZeEtrvhDgnunMXJ5mlvYCYiFi2Nxv7ygseodW9nVmqnjmNI1KRCJ0jXV7ShgzfBkIEuzqd6bJ71QN1CadLExBURvv7W3/OJ7+2sPZ53mbLfdFBABv7FcXtFAb0lrL07WtKqJYMvTxujPHx+s/+vSdFa9LCmXmnX0YbI8Tbw8sRjFbZVXiLB0CurpDRiFQfX+D5uS+wPbUz0sx4o8lFjnAPShGRhcWZ+3EMtce4qCaJ8lThZPkmXCF8AiRAIO4WA7Zk+jzZ5Gi/2xY2+jzXPNmGOxx0jyWSOQM4lYZyqn4+zxk6xoGKO8/BMs7IVj/Uw981fnqSnAJuDp7tIbI6c/ZI3cKWBc0vlq6kykPvn5Lccrz/3PndU1f9HNrhNqTs8m63sKWBsVXOwvlpHzmxCpOkuyLq4Hs3baDGwDjJf7EH1WLFf5JFnIhB2tHGCNrPFOv+vW3vLD0l8zWbKI+cimZNaEs7raKDfoyH010VNSScqk7jGYnwD/bwB9I/f7jNxrm4F0xn5eztSXDfclcq1FrZvktTNgVGl78R8oDjXfV6AZ91Wx0JixNKPZtTOqK1W0W+dYOe4g2jOAdr7qSAYIKyN58TpjqQ+3HbuaLZ6utznQijkcO460HUfaMQ2vWEkEvWSlIzHvSMLqyQf46sJKobaUJv0dncxkyQ7NA6zrzl/xrJp3R+h3RcYsc6r4kQd3OHzSg7eQA/3FY937H2Nwzf0b2TUnvMrX9xS4b6ApGyp6hRFrp6Hyl3PY5wHSGt96DbCqtujr+ytH9gpyFZO/nGoUcei3oO1/vLW3/NDb+mt2Pgs3QAOWFZBeP9lkcSBGJHbefxD4t3sHGpY0gc4MH7pfDyXBLFFU5thkbaYRwN2yaFEPrfqkoiJSknrx8Nmeweb7WxD3nQX3ga3Dz7hbpkqXzrEHKIj2FBkWTQVP6tUtDAttdoe1PbTU0/ZwpB3zTCNmT6vNM402x5xjIPb0O0/deQTBmnRt2spJ9zkVUodXFuei7jsWFC/o29fcNUXBHm6KWxcv7qY99Cav/LgVuVmBjrXIk4RSYhz4yHCJevmDI717v3NJ/5rdsCtiFoU7FWw2btxoW1++/7VTGhwNtw6NSNqjzmknyLVQj0Xut8orphLO5AAjcoXzuffUq90/vI1aTRLTop/lfqdz+WVCzZhTv1LFTqreeLZjr/po1Io+4fOweaS++kyfr7aLxaUR/mqrMm2lXucJAqhvNi+2Rnt1kn6bad9QU9H/BwyR6NWM9wmbSC1g6BWI9Ex6yWqGCKI9AYbTZCmkRdmJRBKBNpATg1doqKfmPXWnDHnPwVbM/lbM7mab/Y02A87TUKXuPHUPiJJLxb5izaj9TTcGaHhYlDO8bmFXc8Oi7kH2HWEaZtrcVCrd7JqNH7HIJmsoOx1fRyUkOaSt6Dp15lf39x5+z539a47dza5Z8SjPBBswjYceWozIa62kmc0mgWQrziL7JLKD0M7aWjeD2QlqYv6dSN9ukFU+OeeJhpdlWU2xwltKleP331Bd/sGFHLQyOonIbNAp1uO6ptekn/eiJTt5sRMRiFV3tBZ3P1MYHOQsCDab0uM1EZdY4bqOvOPnhWhn5x+JW6wqlcmedWq2O+LJ3Q8N7pmBGfZJDk2uAX0X5B4TebEVbFvnRsrVjCDap2CsQBsgZ0z6KuQMoEK/8/THnoY6jsfK8djxfDsR6WfqLQ63PU1VnCrt9B+MiH1PBKoysr8ZPCcrQsN7HOgre8u8fkGluSzPAMAWpiTasqGr8MMYfgrxl6JCrBNKMymamMG8NfyvLtdqHS/t/+U762v2r2PXWfUo7xTsdV1dXsS9XUQuneoBpNaYvTaOap1vbSUZ2VOvP+a7izutsIpJTk3SdvRp+P7PFXqO7z42sPxuEuH2syDcBtA715DvP1B8c9vFzz7UiO/lzM6GAvi1a8mxyy5X1WjyD4Zg8Icc1F5TrZp7z8K9tA38pmvIm2d5mcJyTauzzivFLpWgXp/SJrxVK04mnWpWEpPgoA4O7v7MWUpNlpYOdV8rlW5SWJcmr5pTl+68F209yc9WIIdggcgKORFaXjnmHEPOczR2DMaeQafsbbU50o45GnuebbapOo8RwamOSi2aOJoJBZP4v2ROY1ONPR0PqYmQAedZmo947YIy37m0hwg44vx05G+23pj/lRMujRXnUTPRvNBpL25UUWN4h0cXH608+/P3V9fs5CzNuDPB3gT22a4uZ1Vf7IUfT03Mk50pqZD2OJ6d9aHq8TF/99vYZ9ZDXTF/p95vFJHCFPZnYvAWc5FVfqfQ88KRGwaWP/QoB2WynlyTJHP00hcOFN5VMPI+JP/1W7vN2+8dbD3BOKIElu5YVDreXV8C2Mkn5lC8MdGOdx0wO7YOn/4MPnUDBvDPf6NwocnLm0UkcskAdk51/KduLVAl8o3GEgP7p9JeUepoOuljSa5W3lFZANXDTJ+z7KmQ1MJj2hFvtiKrnapjDs2y4RwX7U5nr5OROIelDmKpsAow4DyH4pgB5znYjhmIlRdiz+F2m0HnOdROHMXqzieeEh3bzGyUUep0Jultlh2Lm4XKv1WnFI1wW2+R1/RWuKlSpNsIA27adNAZb/7EGX8TkJ/0NJER64YReRNqlh/rfu5X7xxc86m72TX2Y9PKCYIdx5e7iD8wYi7wU9e6JOITfRhobznRRKwAvYNy90A3T1m4brKm+LSBTJrH/Fqj0Z+Ueo//7A39y+95lIOTdsGe2O6BJE1tsdlT/Emj/LQKvYKu89g/vbU7/+7xCrdOcYalyUjw8o2/W1nUR/XIzJ76YHY+No54B8gNfmIWp7mBSFGMXo7jkdk+FK/aUyrKFTQ4fDbOHPD/VSneBvr2tKue0v0ioDmRaTXrzzvRPlVaG+n4B1ktxczbWkd+Tp8gEWEg9hyJHc+3HUdjx7GW40js6I89g95RdX7495bqsKibtCCHlWQ7w+FbY44pE6CzQeed5dL9tlTJibChp8iGnjJruwosyVlaTmlOn6FUNnR1ab489B/NevFLRuSV6ZrslLTbg1qRdbHoR4527//wza78xw/Was93NG/nqHvKvnmpYOuzXV0utvHlIuaDRniZTm59uRMVMN6zx3l5CkbKcnZ+5j4QGDp8uxb+yAl/lvoKTuUimSS0T25xTj5cqQz93A3V5f+cCTfTP/gZ5Wh2c3f3lU2Nf8ko346Qj9O61wZeoWo/tKGSf/f2auvrnGaNu776aEteKPSLMR7FTOJgkzZUuTkWtwY4kmbmm/a1UdfRnut6S9+K0x8FnVL1ts7NWzmzA/pGMM0pDi7T8MSys/oKnPxL9v5kzkNHd8kTPpbkwZMlPmrfAdy7cZz+EBOhb+T8EsFeVLqQNu8zsNJNsRpZ2mClRl6W0WDPZNtxLHNKtE9mqu6cpWY21xHxHRHRbO05Ww706RcdyuHY80I75ljsOB57Dqci3e88Te8ZcJ4h56k5peZ9GkScmMetZMlO5MTybh1hV8k+zz4mPQyn0FYdXjzrtYYbu0qs7S5wfbnI8pylrUrD65QU9WSXbfvQkGygq4rV33aqGwxMxbw73LAO1CrLgPd68a++pbv4z+LtR+8cGjrc2dw70wdrTDakM24/jQX2gG4CBqGgRl+d9/IrCLfoSAKUKSGAN/qQl+iZy+jIOz6mHQEsuX+JxX23Ue6Yjhm+Jln11njiD3X1DtxwR7v8IeAAoF+o1bL0sn6c7XbC9tPvD8fMroWydBXfaLX981bkxjQFr2azTQ8Y4eWq5oMbKvkfToXbMlpIdSuYzXto3N2lz6ESg+aZRHtosr9VMf6NqtwvMnxNp+dxVeStHQOB9eXyneL0N0VkkeMEQ9xkuaDaaJSBwVMdxcbMs1o4lExXlEk+g8klcrzW5/2lt+QLT5f6m5Py2nYxKlNLTeKtYGPl2zZ08ZG+IQ5tnH4P8uxe0DuWlFe2G/5DRuQVqaVqymZxhS6nspxp7HJnXLT1VD9r9l5mg0hnroBJBdKmT7pJczvFSSYtvCqxQqwer8nTciyOOdp2HEvXnI+1E6/t487R8olHdyZaTac0UpG3mUCns+aKNcOtq+M8r7NNNtN3qjRUiT0URSgZ4YJ8jpu7i6ztKnBBIUevtXiUmh854pmwD24fGpL1q1b1Sf+RvzUiP+CSSzXVm17SAUbOGlkH+mLEffvdleLHXcFvi9rFw/cNDBzjxJnT6Ub4wwK1LX3jxt7eBU/r0BWW6F3G61tEZOEkPbjHouk5eEE+f1m1euTQGTqdvmr1yK29pT/Ac5MIeR0Zp076ABTUIEvU88ux1VvVuA9GLv/F2yuVwwfA3Q7YajWCJCnGKQY/wwOdQx21Fw6B2wg0e3oWqTbWCfJOVF5phYUdI4FRx+8BK/IKj/3Tjhn3KOHelMSxs07lmAE3yamxpM53NkK+d11X/l7V1iffJthDSfEax+QfZbMRzDKIt4FbC+Wou/ztAr9i4JL0vp2WR03Ra8vOlwHZCKZvzAAHoJrmBfYqA1amNmD2oEbkSpz+6H3V5k+T1AzIXZakIz7pvbFpZH8uG5TeEhef0XzzBUEunuyxOEWNyC1qSj+zkfrP90G8Mb12Gyd57frSwWZ2vADryuW1ccu/z4i8Pt3olAfr6Xa6I9WLN1RK2lut5++Gdkf7TdZXYEL4LCtB5x0x1gScJWxNhHfEfNz5c2RSgTYGC7TSOGan0PSeGGim+bRbPvG6fqGdCPKAS2bML8SOQaccjR0t71MPbYhRYq+0UnHPhHk4+5iRtB6PnHRQMaeC8lKywYtTpemVhvcUxbAgMizJWa4rF7mxK8/FhTwLIkvJQKxQ98mEYoa9YBQw9+3bV9/Q1fWHTtxGI3KlZ1qEO0tbpYIUjLDWKTfmW/b7PK3Hbuku9VnvH/WSe8461x+XSlVggFNcxtLRo1Gtu7vXmFa3b7klJrLXi2+9zhDdDnIhRkhTZk7HOqRaMLHniUjjvkN0Zoo6NV399bsHK6W/j+Cu9hRNdCnZ4EeM8Grv7M1tcdvB/J3R9kNabe2J04pIe4H16ZfuG73i42FkoAOwESqNSv4isNeItr7TYm4XZJkaOEO4n7qkbV7usL+/cVHp+/uO1vcxZga8CdgbcQDVBlBickiy1GJWRUZ+89ausmyn9slN6T27EexpBiqjtpMNWJaNZFLzD0BxfU/pBnV6l1H9TjF0jzfUcRyoghhkmUT6Teujwh83k6QtyfUZap7gmGWQF2LVpoHiZNtLh5Mrmneu6yrtKUb5jwLHDyXXHIC+/n6zOfnxZFYaBcQ0+5/HlvqncPdmgy5FeXejpzhwu48+1FetHt4IVE8/kBi1nc0ky1K7wayF9u5UrG9bWLw4juXNgv4QKi+aBuvWqEaIoBiLvnlhrvG3LGLgzvRvdx89YTV1/I0yjh0bwD+x9solJeP+umLs6+vejxpFRma06ThKBdIrVL0b9pAech4HtLzSVE+swpDzKMpArByNY+peGfCOmktEetB7jrYcMYpHh4tgOE2cujQ1DSfr1Km4kQhcNnMfmdVPspVmieycXLo+3XBKwQhLIsuSnOXKUoEbuvJcUcrTY03i/CbQ9sngRU4x1FfFVayxDe8fbVt965r7dz+VWtWnZDLcnBYe2dBduAvMH5GYyac0Uzzh2JOQJjEioqp4pWmFIQ/7nepeEXlOVXabpKM/GYu8cKkRf7FBLgVZBJQRwav60zTbJA4VjKCxlw88UK39zOZk9nimNhZAby3nXuyN/Zgx5go/vR6s3iAmtXENobrbwWet4b7Y85xK7qCJ4yFXLw4C/QCXcczurlQW2rwrmma8UG1+hVWWe+9uFcNGkIuAbkmeecc4rnky+0/Wub3yUVHzs9uTsqLDzlybwD3X1XVtbPzfW7h+ivZstSCqeshjPojlP+7rf8MjnGCl2TZ23fGk65C3FAqX2gJXei93GpG3CHoRCNNoEh8mGcnoAVR+VXD3oK2j1w9xDGj/efqZTWAPgWt0l18P+n8jWDHJ1KHD7SUgotQ8/DPObcPknmmrHrmsVnuBNHf7HugxpVJ3LLJMQC+pveExwB1iWwTEjUrpr6zw9imGs2ZtGgP/6nF/FUddX6ocO9bf+aG+E6/VSa/dRpZWWj3Vq733LxaR7xCVW0UoTpN17YTjVohF9K+8569NzN69jSWHSAfJ+9g34Y2OW7TvWbtySdzM/cvyXHRHzTuXTmBpe2XQ+2HhbCsMOk+chjwdbjtin8QpH3NJzHLdewZiT1vhaNvRTAdKWbyykKy7ZrdcJromdS7LZszDDmBZ9oJ5Ks4nuyCZUDdV6TLCylzEhYUcl5VyXFbIcUUpz8LIkBnzPYlQex3JZ37KazpDok1ivrPNVeR8f+kPLPwAI5dlOjuyLFmISnofjiHmVI47qoZMAEXQ5D716a02rQ+sFcR52Z1X+dZXDA09tnX8a6kG8BsqlU1G3IcUFqZiMC3Hl7WdSVZZkimnUnfoC6qyFzgK/gWPOWgFL6oFxaz0aLeIXmBEVhmViooWs1RffnJtqKTinQr3z28fXQ9c1kIp6i79YSTyzmmIvPAmSQPvPfqEqt4thofU8qx1+QNrlw3su3cXvr/jHPKgl/bSdcRVVuSIl8XCatRcouhGI/piEbOIJEXvdA74TsAkvX8tVn0c5BnQgwapSzv3Z/c2B75BYjXwrrf3sti3/ioS7phq7XEy4U5iRo87eEYxzwp+L0jdCG1VViosAa5AeLQ+WP8+YGhhugzUqJTfJfgPiEh5ioeThU6Kej3q0E+JMdstfpc2cs/mS9Xnq/0MdV67XvAFKMaF3iWm2F6oPl4F9lK8Xi+G2wxcClLI7t+Z9PK3CA7do8rXjOozKlK1En3+S4OD/8EEHdTGYx73AIfrCwd211744z3Nge6G1xdnNZ7bXjnuvMaaRDfFqvS7xNt67MKi0PHGmDt8WIQzz2xG/m7McHIKOl5GSvPMM3UetbTQcT5xum4fe6UnslxbzrO6ELG6kOOifI5LijkWRmbE2kCyBNDZW9oZ6TLGjfaB37iPeq1c/xVvS1dGsHGyXk6na8Ls1lGGi450/i06ndu+Zo79yWdEZiDxRdLPEXuRv3tFdeixnSc6W522HQHZXv2pf95Q+e0XCfrLRoim6NzXeWxCksxGJRkfWw8lQVZZYZUCIiaNuUhaSIfdtxOV90muAWVknDiZNsyuYWSEd3gct1cqP/fFavUwI11Czah/ALF3pbOWqWAceIMaA1eLkau9UtU2B9W09z34fGlvvoJfMiYe+GisFbHxyrbKBREsFUMxKbCXLKWkg6AZTZ7iE6NiORK5WYWbBYMVaNvmf9HkG4C+HMzW/v5n1lcKexBzxzTsVnxyj2BEFlh4MeiLExVPnXDTUZsRaKnuzYG2gWzd/bbY3x1H8gsWVk/RZT8x2ydr3Isike8W5DuclxfIu93NuHggX5Hqko7nQ5JlmBLSWqqexai5KDLSg8VkeTJ0ZLA1k2F5mqS4ZrUxrDbprR071wX8x0Q3Nu417bft3NkGPrYwl9u5IjJvLRj9Hiv2UlDJHqZkwCkYQQrJlR0OsuwU5+yHse+dbGFkPopyJ53nmC0M+rTTy1JUZfpyUSHiqlKBS4o5VuYsK3M5VhQsXcbgSNbnm6n3d2eTzLFUS74PzMYazzd75Sed+o8alWunIXTqlE08ZnYznmJn2fhwplADEqt8RZQ/2UmSJWsi30+Ocatv5fhDG5euycF3uGke+2QuHiQDn6yTy0IiZNjiNfq4gOGcQTD1cWI2WTdG5C5HrK+EzZ+F/ZtBPgF49fehZqcRrp1qXyBpKJwOnyMVK1REufzUD1LykA4v7OuwZ3Yyvjk7cdiiyfUh6f+ThnAdbjn3JMcRI/KoU9oCuaneMNmz5ToHxh37H35HUREamWiPfJ1ngS8qrJ6GeCeBZFaMYgSNjMhygeWYk18CA8MdrCZLYGPnfmej+5SRiUIWCqd40dZkNjYRR7TsJL8KfLWs0cfVutu8yrda5SUi0otJtqdJD50NrIattXqKDc5jTR7F8PhThmdaOJK196yziSRZb4/EsMRarijlWVNKTN+LrGVxzrAwsuSAVupUN5Q6k+nY/cxdfB/Ixv7al+vdpe8H/YhBXjRdjmlnYLabRo0gztNvPL+8qjZ0cNvk4jMVMM/V6b+o4H/BqZStypumuE55yjYbM7YePoCxnxvz+Wnbv5LFcZt3DlVKO15Zrf9pRzz7o8C/C1zL9Jx/h/50LN+c2fw+dr30bN9rY6/PqPF7XzqmEGf+W43+gBWumK6A9FO5x3S0wynbwxn+QJQ3GujW6Wkzk+583l679I1JLUeeUbTH7ulYu82xZCj1MPDwxqX8c7tRvNR7f6ca8yYrukyRJVESrpLOKokZmd3Mr+xAp2mX7ISyqMjMvO18ItRWhIIRuowhb4SlOcvF+YhLijkuLuZZEhkq1tBtE29vp0JLPQ2v1Dv2c6prMcdRgNJg/b56d/mnBf1jA5dMNWHBHEdTx8cY5P+sqtX+a1tHW0wCf6CBgebTlxSLP+ZiwYq+yY0EcMyzW+L0JNYJHpIGOxYDH0uFfO1QW3M90cfbXjdZkTXT7Ow1ke3MtfYeezzZffEV0CdF5IoZnhGdqT30S40Gt1F80EX8i4i8g+m1uM3nazfpY5pKnLYA9B3meWg8vwkeeLpY/AsfRZcYE9/hVV4pykUKF0ciRRHNZp5ZjOqE81PPFiPiPFqg26lAt9VjgC5r6I0sZSOUrWFpFHFxIeLiQo5LCzm6ozT/uBgKachbW5O17P5YQfT0Q9Z5SB+YjYO1TzYrxeMqfCiHXNeGOBXuc+U0IQtNART98ECp8sFt1do0WATxBxoINPZcUCq+Rx0SIW/0I+nr53sbJg6FgokdXxDf+qlVcfzgxxjxQRVg80D9oU93lX5fhA9Imot8ppy+ZuxE00EIM3vcAqgTtuF5hRFKfnbbSb7UaOiGSv63PPZlBi6bAS/ts8Gw78JsH8hURHvYWjscytJo7AX2boJ7j3Z3/1ndxZf6yN2B2pdY4TKPXpkTs1RInKjSjsfTqYmzyKg19nQGnSRyUdrp7LmNEpEkYVmai6gYoccaFuUsK/MRK/M5LshbluYiSiZL3JKU3VQSgXaq1NxwdqhRHvDnINoHZmO18aVGd+n7HfyuFblNk/Cqzmafz2T1qsWjHxZp/NLOw43qNG5fU+F+9oJS8UdNTF3gLSQOZPMvt3XHeQEYwTj03+NYf+LSZrx7W9IfDAt2+upvGSr9DZXGhsjwnXHiR3hWKj9N17naZD19ppcDPYAfbGwz3cXvFeGVibfY7Ar39mrr6xu6y7+mqh+SaXSqPJvnEAkyF/yrpiMjWlZUXgAznBpycPAF4AVgx0Yo+N7elbFvvcShNyFchOr1gtyYE2zmnAVnb337ZHalduJJl5i3URxKSSwL0wQmXdawOIpYlK47r8hFLIoMy3MRlcigmvrbSofjSlqOs5lF7cvIzP1ctRF3sjERbZaBPTRYv7/Wnb/LevNziHxfGv803x7esQyHTjmVDxVN/ef7+jnO9OdJ1sRU3nh2Va77hy3x0wZ+zAolp/NPuDWNmwY0dvrn4uVXL2029m9L222MYAPIAxwduEm634d3ayLDuvY8mrFZQbxnl4pWBFlxFkSrBuZ3nfdrRejxMxA/Pk6G173zg7W/r3fnXxJh3wPzx1KU+ic1neqjxsjNqS/wrN1305nGVEkyC2XnmZ2U74MG/f1PA08D/7Icui4tl68Cf52zssYjN6D+OhG5PBLJwkmGN8oJP45yQj/lwYx9TT3ck+0zvN6ORylLMnPuiQyLI0tPOpNeEAm9NmJZztBlk6QmZSPEOpL5TdO4AZ++N+yh2OFiew7PpM/IxuS+cIDdONh6ssrCn8h3NXao0Z+2yCUd3jTz4iGm41gtiFftd2J+z2ntgzMk2Bn+QAMLgy+sbrDVVcrfEPzWCFnp5k/7KUCUtNtx9bz/eK3xxzfA4LY0LG6sYGfpGgDz0ODgE7f0dv2Cev2DCK6b4+v7Colgq+ouo/rDDvM6EX4q/eOMXa8dIAzW7t5QKf25EX6GZP4wW22kgPRB41Xdha21oXi58bwtvWfn8sArSzCDUX4nRj8nnm0ismA2BxwzlXu80wo0NiyZgzB0sFb7MvBlgA1dXcvUyyVqudCrv0JFblJ0QyRmGWiOJKZ+2AN9uFY1qftkp4AyZs+pcPo0G8yCyLIwsiyIDEsjy4LIsiwf0W0Th7EumziHlUXojQxWhFh1VGx0zemoExxrHej0Ig8kbCSJ3ewD2cix/urQwj+x3Y0dKvIzRvWNBnI+iQvtXC6Zc2Trkuk/VPSrorLlgYHax0kGJsLM1o5xBxoIReqrq7UPUyzudJH+ojHyOhTjR45xTnWEne1mABXu9chvFW+uf+qGPuJ0hn0qwR42kQPmgf6hz97a1fVjzvg/iuBax8wnx5jk+RqbHPQTHnmviHwGNc97/CYrXByPrHHPFN5ifzvW+FIr8tZZHuAoYP7nucEX1i8q/WTs5ahB3ynJcz/XBl7Jsk0S1eBA37dq6LLfeICdZkW59Jko4m1OiZmlglszstOxbv1bQLZ0vG7bNPL3TQAfGzoMDGdCenl3ZclQrrmi2bLLEbfGq9yM+hsUWWSMlsRLtxGKSfEtSQuLJPkQckZYEFkWRxELIsPiKDFlL4oMvdZSMkLeGgoiVGziFFa2Se3rODWPZzPwus+GAmOuJvPaq3vWSIVbU+HW6uDC+0yP+wEvrTsF88MGXStQZMRhsTP53WyS+V5g01UNr3pMjfyTeP97acGL4c+ejeM50ACKsLrR+JIrl+/y4r9bVH40ElZrWk97BrK8TfxAE2FSm8Zze+VobPjL2OofV25oPLusD7aNREieTrA7hVvuHRr63IZy7ntia37RYL7VCtYnkZWzGqEyfL6CFcXHns/RaP+iFHP3o4bC0NBTzUrxXxH5cdEZFSsFJJb4cNzmJ8mpWOQtPonJn60IDg/IfUfr+9eu5KeioeIeq/KzESxIB16zHVmiCs6muujR57zobzww2PyTNFc9zvK3RvWbBSnO1vFO6GbRTdgdu9ee9oFYe9kOv2VbcoJb0q8xmY5s0zV5Ft6uNJ+w//DFp5Z+vd5efERblzY9L14Q2Y0erq4Ys6RsjVkcWRZYw4KcodsaLELeJOU08wI5Y8hLUmIz8WDXkfzlJHajKTXMPGMG05iOYuMp3u/r+HuVheR6HNa2LnYtfZMx8r2iXImRXgCnw2Oosx1tkK25ZTMmgwqKHvYq29XHfxb3tu7ZcYAak4vDnhZWFmF1A1y5jIO1OevfbTGvBl0tSepElyUvOZvtlz5aakWiNP/HEaf6eeP1jw+tbN574YU0U8HOPj8ewR61xg3oxkplSVPaP2ZE7hKVC9NaBNmA72ydr2ZibYQoTdu2J/b8P/H8CZb9qOG+oSGzvlL0TvyVObEfsXBrnPi42skcqxG8E/+q+/ub93Q0DxvKZbbXasMfW99d9IWcrGq0eL8VNiFEPgmAmbY2MoAT/aQMNDbVoP7o6Z+J5NpB1OgufROqv2hE1kriWBl3DLzOSjecrZIaiIwI6n2/R74g6G87o59/YKCZnaJuBNvsLr0vEvk5p+rSUdeEhDs7Ka/6gfurjZ9kgv3HREWbHbvXTrhRymZocb7ZssVC3rncUMG7Yq+rOys5pOnMInB5MWoib5d7q6UILTvMJQ7N5WBxQWRhwZhcwbK45bSnrixoqS+jkpNUjCNRDIKRJM4+9U5PZ84jM+hTZmg7j5hLot03MtPwABuKrI4LhVdYZ95q4BqES21a3cwn4yxlpJbKdF++UUJtkixduGQx8Gsefdyp/D9r6n3AUYD7BmZXsAESz/Lk+NeysszCYy+JYr7PqrwM4YqseE9qvZipDvGkgxwvekCRB73X/1uy9b79Szl+4YXQ1zfSbhMV7BOEG6JqV+H2vDE/DPpyK2apJsHyWX6IM6Xjn+r52kiS2uUe9jrkS1HbfPA1jeqX7u4q+fuH6mZ9peRT4Zb1laLGRm7OK78jyMsU7bQsjUdEVZNa08TiX/tAf/OznFq0AWR9d1ELg40FzZ7yjxnV7xPkkkns95RMULSHjwvQW3p7LxXferuFtwFXJ2ndZnywnq14qoUoXQatCjzgnP+b3qj578cpHH1gYLiSmm5OCiLp7fQu8JXm+xD5foFCPDGroJKslXuv+qH7q433MN2inZq69ak1awq53vaGtthLBYn9SZwaLCoOWQK+R0S8VY0Ril7NZYLmRKStqt0oq4xgVYiKYpfkhZwXNarkfBIWYbwma9mZEGc9jQKxz1IKJkVGOh3Lhs3XQZxPyVwS7Y73hh0XAW5ZtKjHtmovVpHXW+EG77lK4HJrRhwV/ZiUpWM65jP5KI5KZ5itt1qSjHVtVUTZJYYnnPovq7H/VszXngCqAH2HsZy8LOFZYeVJCi/e3hjJb74XSlqJ1qrkvjlveHHs9aVRFm6ZDICGvXc7Gmoij0kmuImzVVr23pD4gAj6oPc8GHt/d5QrfqkgA0f3L4WX7MJu62i3yQr2GOEG0FsWLeqRVv3VxvBmPOuMkSsMic28Y7lgMl1Cp6tMtt5pkmqC0PY4a+Sh2MUPq8q/VLt67gWqOw8fFkDWJcLN+kqJzhm3aeWuinPtH7eGt0ZilvrkWE+bhjdN7yCRCA6l6du376jGX+L0og3pjPuiOxt2/6e6Xubx3ydGXxmJXJiFonaE3064fQTwop+Qgca3T0S0N6cD9p2bsPv+q/RS7/3brDEbvLI+J2K9Km6a79XUr0KsSDqZ8/ss5oG2c3cbaf5bt+XQcQqkgj22TxRA10PJ9xTusmp+0CDXi2g2o/CnOumsj4nSeEbn+T/bh+q/yAyItgH8125+0eKca/z9ikJuY0uJnZ5oEkg7hMgn93LSUEkUlIz+3Eg1r+zhG3EoyxzMsoSxyduJl7aiSQoSkayWwSSu4PnOXBTtjr8Nj2whKTm4u8LCSAvXKebFxuga4EWoXIpwSU7EdN4oGac6kc4h+0jvJLRVPejzgvkG8Lj3+jXJ6SP4xmOvG+B4tsmtYwYXs8HK01RKTmfdnc5wZm2lssjSus2KvRWRF3mv1xrh8igtBNL53I1natTZjlnhgbZq1Yp8RdFHvZcnHOazfmjoyVxPT7sgAyzrx24b8R1Nr9jUBLvDv0Q2pZM9gN1QplJ8Sc6YV4v6l6DyUmO4yKR5Fzov3kTOdyT7YXK+RvWriHlYVR92Lfe5oVbrGdKSlZvSWVm2i3VdJU4m3EeqjcKiSv7OSKLXg9/gRW7IDfeMI5hsv6iK12+ImAe913ux9f9330Bi9ck4hWhDOuO+6M4GT2yjK9dTuK3g7Wu90VvUsyE3Og31Gduns++1Ai38F+KB5p1tqI1TtEdOL93lJrDPdndfZox7hXj/UlXWqpGX5hCT3asTvXbZA5FdvzgJ9/kahp2Cfs3l+Hx8tPlAvov+bgufHjjhGTrl8a7vLb9UY32LMf5lXuWGnJEeOcn1S5eqcKqHLPJ15/2XIqK/+9LQ0OPjbKMTzuuUbE4P8NtvvmBx3hf+bkGUe10tqad9UvwJkVlJEpXOz3SOJMcMK4flvXNEFQR5epnLop3+vdPMNPaYotuKxQviiItVuShClmDMhR7Xg8hqUUoe8qL+YkTyjIyyDUjTwC5AVLQuynOqcgxlv7F6wDv7QtvapysDA3sYydyXHdOowcRscTrB7qTTZN7xtqytsDjKVV4ksb9M1F8A8iIvrBHVJSosNkqPNSY/dntZD+a8P67IAOgLYngWL08Zw7Ou7fZYL4/nms1RbTd2+YOOg5qqYJ+kXzjhnK+ssGQRxWvBXGFFrvD4S1X1YhVZKcoiK1IZnmGM2VBb1avqcUH6VXhORI+I6k5R8yxwQHFP5KutXSc5XzYn+StGcTLhztplLeSknLsuEnsNyFIMK0B7svMxmGe86qA3pt/45rPHqvGjHgYBnhqzn9OI9nAbbdqEPrENHgWztqdwaQ5ZK7G5EqNXIKxW5TJFF0TGdJ+q/3Xe170waGAf8Iyq/ud91eZHGH81u7HHNeo+WQu5/MLcVbTs9Yi5GNE1mtQtv0pVe6zIInMKdfCA9/64Ci2BAyLsV2W/qPmGquxr++ZTrXzXU2XbOBYfbZLvglSwx/ucjxqUrC8U1ti8uVrVr8DbZc765ZKWmgA5irLPiDS8c/vbjqceajafHsc+Tn0BT8do0S5+pGTtN9e911N99xQblHF8JnCWmOuiPeazJxOfscg1kMstKi0tOJ83ilU1i2PVzugIKYrEsfHPOzBta5rR0foxoHaa7Sbxrmfe/1lhvILdySnEe5hbFy/urrery01se6zxXSKmgmp57OdssgHXRo9ZkYb3phpVOLz94NARTn7fnHK/0yXYpzNDnmLf9uYLuhfokeaSYsEuaHnTZcX3CNixKmOBWKSh6gfVSd06d3wolxsADnZ+bvHQEHDifboZGCvacFLhPtWpyDWQa6XbNZimR/HGYLzjWEejHxvzxTOI9vD2N206cb97/mdRD25oMd4sd96XrJheGE7oOOZC+oFYpG7xRx35Q8CRHdUpJwI85X2znlWleOGRJTknK/Ba8iILUHInHFY65vKRHrcxzqg7roXoGEfrR2G4rAMAbSDfBduHJuWbcrpnK1oDNp/87ZTVvHZOooEmGvIlJp35zoBjRyBwAhvH9yAlD8bR+v6O93ad7IMTveHPtP++8W5oikxGsNPvnfb4nx56YZB0xjbhIVv/aY9LAQ40TnxzugT7NB3Qqc7ZPfhcmqlxMkURW6f90rg6/PuH6qzrKnFfNRHu9ZWSnmZ7w3s0GDpFOw2RAqBn7DfHdx1127aTvX10ABggSYQ1kcaZRINOrB3vY1+dY+wF9k54q0Ptk769IRHs0+53MscKxLvGWOumi1kJDg8EZpq+U/fpsz5jniiTFeyJ0DEjHy8TbsfpFuypXMhJTDqm7b7pFO7xkok2qWifTpf3TM9hTtjR6ywybdcuFex5RRDtwDnJOGfoU2amZ9pnQ7DT/cxIe2Uz7ZkQ7Cma+mZ18JYJ93iZiGiP3c98bJ95fGwzzkTXtP+qy9pvrnk/W8nnA9PAfFrTDgQCgcAIcyZXbyAQCAQCgdMTRDsQCAQCgXlCEO1AIBAIBOYJQbQDgUAgEJgnBNEOBAKBQGCeEEQ7EAgEAoF5QhDtQCAQCATmCUG0A4FAIBCYJwTRDgQCgUBgnhBEOxAIBAKBeUIQ7UAgEAgE5glBtAOBQCAQmCcE0Q4EAoFAYJ4QRPs8pKM8m4jXUK0tEAgE5glBtM9DFMUIWBHiRhTP9vEEAoFAYHwE0T7P8KBGBBGl6f3XSl2LD6QV5c/rwvKBQCAwH4hm+wACZwcFVVVfMMYWjLH97Xi7tWbrRffdVweMgJ/tYwwEAoHA6Qkz7XMcD+pVYwssjKyNRKtDzv1Tm+iu1Q/s2kkQ7EAgEJg3BNE+R/GK96ouLyKLclFkhLjp/ReHYn6KdvwDV+148utbgmAHAoHAvCKYx88hFFBFBbRixZSs5XjbH296f18TPtOvbKu4eO8lj+wBMFuDYAcCgcC8Ioj2PCZzIJM0iiuP0JUz4lRlyPuvtp37fN3TN6TtLzjJHai0Yy55ZI9sAQmCHQgEAvOPINrzCAVVEoU2IFaESJCI5M0hx6HB2H1GkHuHiLd/rLznsW+vXhw7yVFpx/zVI3vM1kTrg2AHAoHAPCSI9hxGU4s3qioiEgkmJ4IRwamSF2kMtP0RRD8H8nlFv3YUvgraD5Y3Vi/DiXDdQ9+QNINKEOtAIBCYxwTRnmP4RKS9gIqIzYuYvDU4VZxqqyCmv+rdcy3199XQzxXE7DwEzyZCfSJNVXasvUwfmu0TCwQCgcCUCaI9yyQijQdVC+SNiUrWWCvCkPcYry8ocrDq9GlRfWCo3b43svLkmpWLjgA1gIsAPrEjS0cakqQEAoHAOUoQ7bNMkuQEVVStQEGMLVixBRGaqjScHo/VP9v0sq+h+oRHH2jGrYdXLVxyYGG7MgQkaUcHYVtfn30cdEtmRg8EAoHAOU0Q7Rkmcx5Dk6DogojkrUjZGOreU3X+qHi+4fB7asgzXvWxY675lQr5Z9ewsAa0ATgGUGXbZTvspm2JSG8Ct2m2TzAQCAQCZ40g2lNEO2a4WehVZqeORLCC5ETIi1D1nqbXA87x9bbGT7SUXS2vuyWSJ56qDjz78p2Ha5zoLCbbNmEe35bMqDftwM32OQcCgUBgdgiiPQ6yeGgFRNFUncWAiCAGwQAiWTiWAOqHVAdanm80la9acY8j7HfqDkhcfPqfhtwBoDki8b08uqYXgKO7dhmALanZe9O2MKMOBAKBQBDtUaQLwyqamrRRFcCIGCsiRiAiiZ7yKF5RI7QLQnPQ+abz+qSIPCNiHoP2E2rs4fZQdKRaO3wA6PDuHuC2jv2u3X1MxhxGCM0KBAKBwAmcl6KdiTM6vOSsAIkwi40MYhFyAl6TsCmEmoWmRQeGvNZjdC+Yx8Tr0w3kyZyPnnfl+HjtWKsKHE325IAWxWLXaY/n8Wu6ghNZIBAIBM7IOSvawzWiO2bNCmoFtYjJxDkSQ0EEBYa84tXXVWVQhcFY9UjN6aBTvxuRxxU94J0+GXWZY15M/QrbHgQao3a81ELfHjn54QQCgUAgMHnmvWhrx1qzkvlpJ7NmK2KsQaxADkvBQKww5D1O9bhTjnovx8X6wy1lYDD2B/OGXbHz+2LMc3Vae0yPqS1uuuZF9+1rcBLx3QJmy2ZgK3T8PYh0IBAIBKadOS/aevL3UmFGcohEkoo0QvIzDDhPy2tVlSMeORrjD3nV5+vKsab6I+p41og857R1YH+1fch2aX1t95Ut+vrcKXYrgNm2CdmUeHKzJYmR9qlgBwKBQCAwo8yYaOuol1MzNkxq+GdJin0bkfQV7MjvIsAx5zX2esgZDqJ6zKgcFPwhUXm+jb6g1rzgnB7xNj7aFHl+3wv2+P27drU5haPXf3AAgC3JIUj6c+bFDeA3bSP7TCAQCAQCZ5UJibYozis+yeg1SmezcCfprEIlknzGIMMfNjK8rVR6YUQTBQPeoN4KftD7VtvrUVSOWpHnRHkBjQ8YK/s99DvHgObkmFdzTJxWC63W0b9c9OwgWdawsVyY/kvZ0jcszLJl9ABj2Dlty2xfoUAgEAgEUsYt2sarqGhPb2RM5JNZcCeOLPVXonZOVQX1IBihZZLZrY+EpiB+SLXRcu6YIINeZa8RHRRlv4oetXn/vLRsf1O1kXd+UL3U61FhsOiLtb965JEBJhEStWX0IGPU2vOWsAYdCAQCgXnAuEW7EC+L46j6LOjXrOA01W0DqKIN56tO9QiqBpG2R54RpIp6FTFPq/ihWF3DKM+rzTfyRpqRxI2K8a3nhkxt+aJKe9nLd54sI9gotnzrpM81CHMgEAgE5jVypg9sTl+3gHnqxWsW13yroiLDAlgEvBEtR9ocsq5ljnvpykVeui5oDAwMuGtLOxUxbRVPrGAU1OaJDKCt0Tu7H9mSmKrHriVnBOENBAKBwHnLGUV7Oshm5ds2JftLC16cTJiDKAcCgUAgcAomJNqbwWw5zd+3jP45iHEgEAgEAoFAIBAIBAKBQCAQCAQCgUAgEAgEAoFAIBAIBAKBQCAQCAQCgUAgEAgEAoFAIBAIBAKBQCAQmDX+P9dAMk7DXHhiAAAAAElFTkSuQmCC;" vertex="1" parent="1">
          <mxGeometry x="128.75" y="520" width="102.5" height="42" as="geometry" />
        </mxCell>
        <mxCell id="IonQVXjq1AOYUMtXGqEm-7" value="" style="shape=image;aspect=fixed;image=data:image/png,iVBORw0KGgoAAAANSUhEUgAAAe0AAADKCAYAAACIahjBAAAAIGNIUk0AAHomAACAhAAA+gAAAIDoAAB1MAAA6mAAADqYAAAXcJy6UTwAAAAGYktHRAD/AP8A/6C9p5MAAHlXSURBVHja7Z13nF3HWfe/z8y5de/uqhdbtlxkO+5JZFuSS5Qeh5BASBR4aQkOBAIEXlroSCLwAqGEGgKBNxDgBSJKgCSYBBJviuWmxCVWYluRLUuyrGJJu3v31jPzvH+cc3bvrtpW7a40X3/ku3v33lPmnDO/mWeeAoFAIBAIBAKBQCAQCAQCgUAgEAgEAoFAIBAIBAKBQCAQCAQCk0Q+tmmTne2DCAQCgUAgcAoUBODgzatXPH71Jatn+3gCgUAgMD7MbB9A4OzyMbBbQJ9dv2pR1Udv7S6bHhgR8kAgEAjMXYJonycoyOc2Ei3diNuyGdNu5X7QCO+weddOPxJEOxAIBOY4QbTPAz62CUsiyvFFreXLnvjEJT/dlbO/VDRSrnvrZvv4AoFAIDA+otk+gMDMoWC2JWLtALlg6NJXRyI/UhRzZ9GY4kDbNTUSne3jDAQCgcD4CKJ9DiPgAb62+/KXf2OtfnOXyHcUjLmw5rxrOFUFI6rBLB4IBALzhCDa85wOB7JRM+bnb7ih63ix9vqi1zuBV5asvdSrMuS8d4oWwxp2IBAIzDuCaM8zFGQLyJbNwFY8HWK9Y+3aXMEOXFN2/tsiqa0re31JxZplLZSG87jks4YxAh8IBAKB+UEQ7XlAOpuWezZuNPT1uS2b8WxN/rZ77WW9g6axvIfS65b4Y682Xl6kRq6sWKHhod95NBFpkXR2HRQ7EAgE5idBtOcoCsImDIc2Cn197p6NG/3L+/o8m+GZT61eUb/BLcnlcust8i1LpXR123NBV2RLCtS853icSLMk/4IpPBAIBM4BQmc+h9gMZssm5J5DSXhW599WDVy+JjZcFHleYoy+pmDkaoSlFlO2Ak2vtLx6BTFy+uuqiqtYYxveP9q2+tY19+9+SsFkjmuBQCAQmJuEmfYsMrw+Pfwrnm3wchKztxquwHOFEa71lpctMHI1RntUTN4gxCgN751TFUTECCaMwgKBQODcJYj22UMYs5wsye+aLk/z9NrVL0LsNU65FsO1olxfNuZSRIqKipJMv51X79QDIkawRoJUBwKBwPlAEO1p5CT5u/UUPyOoPL3hqqsk9mtjja82ald74QoDV1SsWWRQYoFYwavHK94rqCACJgh1IBAInH8E0Z4ko0zbmxC2jQ6/6sDcs3p1vpQbzC/s7bnaYK+PVG7YG625xDm9CC+XdNloQcEIbYW29zS9zzam2QYFjASPskAgEDivCaJ9BrJwq22bkKWHkJezEfr6POC3ZCK9Lf3wRqJj1YVdB32ly6ksKNjclSJ642rVG/Nm4QVeWRYrS4uRVEpGaKnSMokTWd1rtj9gWJzDfDoQCAQCwwTRTslmztd2iPOOalXYsSMG/KZMmOkD4PGN11QWtxrlakN6nPULxcgaqv7yHHJtJTJXWVgYK90OWVC21uYE2oBRpe5Vh5wiqZd3pzAHkQ4EAoHAqTjvRHusWfueQxsF+pA+HKn3dkIizrp5s/n6Z/5hZaHV7G4Ly423CxVdWay2rhsSVuUjvbgo0YUOLcVGigaTy5vErq2iqEeHnPdpLJWkJm4Jbt6BQCAQmCjnqnSMKl21JRXpzFv7ZF/QTdfkDz0ztGjQRRcWjC5rqCy1ht4YLjJerlL88pKRiwrGLIjV21jJGxGxaTPGqngUp3ivqolZXYZFerYbZNS5hjjtQCAQmJfM9Zn2ydJujicL56jPbEl/V5BDG1evOFq1S3PCKjHmAmJdJoaep3c3V0C0VGB1W2VltzVdVjQfKwYLYFFVWqo4FTyqsdfEo5sk/CpVZyMic0ulA4FAIHBOMGOirWeeXcroj4965RS/n25j8tVrrsnlF7V64wG/vJC3K7zzi63VFeLlAmNZ7JVeHWJRQXSBqqwwzi8u52whl4ZWoYpDcEA7FehElFFFk1ePdEydU4/uINGBQCAQmHkmJNoKhk0dCrXttObUMwnu6f4ubMI89ZU10ZElDbPQdEXPDzXs0jbFqGCWGWsXxsjKguhCVX+hIEv2GlmmvlnRhlTyOekG7TGGLoWeYk5yJTE4FOdBEzM2DqHhPLVRB6R6kgOTLId3cOcOBAKBwGwx0Zn2+Nc8167NPVM5Ytv7c5q7sC29VVuoE+XUVLXRLNq2uHLNuAigrGZZzkRFFd+NtxepkZzsdgulx61a3s6Xi8Yt681HXS5PWZWS4gt5lbIKBZCughHKxoAhWVtWwaF4BKdCwys1dSc9zJNocNDlQCAQCMxJxi3aunFjtLv27GW13bJUvfORlbxdqxeIGtMph4XYxC7nu+H4xa5qy/lemr4a5Y6pX6USLzJajCUvpW6JViyUXN6pGhIBNopEXqRkAIfJRUYiK0JOwIrBabJ6nL16wIE2PdRcehQy/DKsvcIc8wQLBAKBQGASnFG0FQzgHz98uKdYkv9zYc5ubKtte68FL+SR0Z7aYlERa5zXvIoxgKqKWGONSaOSRRSLYEgWhb1q6tadpecWRNG2qm+r6pAmebcFQTtM1J0JSEIIVSAQCATOdc4o2lvS1/9VOmaU4gKLLGmqonLyRWkV8Ao+8ftWQFSgnUREafYtrx5PllwkUdwRQdYRRy9Sb69AIBAIBM5zxm0e90Y056Radd7XvdcR36xTIHTMm4Fkxp79CRFJIqkCgUAgEAiMi4l5jydlII2I6HgThoQ5ciAQCAQC04OZ+iYCgUAgEAicDYJoBwKBQCAwTwiiHQgEAoHAPCGIdiAQCAQC84Qg2oFAIBAIzBOCaAcCgUAgME8Ioh0IBAKBwDxhrtfTDgROhwCyKU0HcCh97TuxsI0CsjEdpC5L0/JtI82eO4ESsIFAIDCbBNEOzDdkE5hDIH3gAL9tfN/TvpNXqZO1kKuAvhz81iDigfnPdOS0Cs/AHCWIdmBesAlsOpOODyViDWDWLetaZo+bBWrai31euzxY4+3FSXb8BAWxSOyM22vAa9sMinX9Lmeqlx5rPAe0AXam29wEZlsi8KHjCsw3QhLKc5wg2oG5jgC6LRXq23t7F2oc39iW+PJbhCuk7q5web3IChdYNeUIjIoWT9yMqlXTUFAfMaiYF2ybg3u7S4+o+t1OzIE80ZO3whP7gVuBewcHDWHmHZgvqMomEbMbzI6TW5XORKfgx7N9OoGTE0Q7MNfRd0Huqz3lV8Te3xT79ksxektO7HKFPCgimtSF0zMqbBHACAtRuTitXPM6EevE+6oz8U683u8ND0kkn79lUWnfA0frs33+gcCZSMRWRPYszL0tH9tXrRuxRk0ERckJcqxg678GHO/rH677FJgjBNEOzDWGO4lrllLpGSp+26NG7lTlZZExF2bK7DXpRzKd1hO3cTKGvzRciz2p1R4ZkQWi3IqRW53Sr20ewXPfTeXyPzxUq33lZMcXCMw1tG1fnbPmLjfJO9QIePRIbIp/CByHxmyfUmAMQbQDc4VMDHUNFBZXSt8sdX23GG4yhl5VxY90RDrme+OtuH7Cx7IC7zryhhjoNSIvU6svE++/dX1X8b9j7J8+NDS0k8TsKCNfDwTmDiI0nCqTFG1VEEWdNmQyM/XAWSCIdmDW2QQ2W7O+uVx+sbX6s0b1tcaYRafogKbT2eaEbXmSmbwA1siVKFei/tXrukr/IJ4/B/bfV6+b9LuTWTsMBGYECQPJc54g2oHZxm4Dt3blynI0ePwdxvgfNypXqgixqjKL3rAK2YDBW8OVXvkVhNcA799QKX0cYHu1bpnc+mEgEAhMmJAR7Txk2A4NiNfZDBExgFtfKl2Yq/b/jhX9gCBXOvA+PbzZbqvsOGNNJuDGsAHRP1cr73X5Us+GSsnNoeMMBALnOEG0z0MUJRI0JyJDDTeboR3+poVd14nVP7XouxXJOcWR3JdzSggFjIJJjk+Witdfl3bt92KJrtxQKc2lAUYgEDiHCaJ9nuEBI2IAcfBwtevZA3r2PaIF4Jbu0nrr3IeNkTf6ZHaNgJ3tNjoD1oMXiCKRdxriD3rc1alwh+cpEAjMKKGTOU9IvaR9XoRua6Tf+YcGaP8eUOfsirYAekuhcKkovxuprPeaeK3KPJmtChgP6hUsvAqxf+yxV2+olDzhmQoEAjNI6GDOcXz6Ly8iZSumJNIacPqvLY3uAh7ecN9Z9YA2gK7r6lpuc/IHVrjVpWEmzBPB7kAyv4AIXom4PwL3olS457q1IBAIzFOCaJ+DZF7PTqEgQtmI743M80557HAc/+RRHXrXEAOPXffgHhGSJN1nQTFlE8idayh4437JiLyRcyA8RUE9EMGrFPN7Jle/ODinBQKBmSKEfJ1DZPHFVoSKFYyIDsRO9jRbrQMt96UlpWgz8PjrHzkgSRIFzprr+GaQ+9fgjh8ofrs18n1+JIvZfBc3SYVbjcjr47j4i3G1/hOc/WWHQCBwHhBEe56jgE8XhAsC5chSc8qeZptnGm35crXBl6uN/PHYv6ru46MXSP6DrymXH5ZaLSuGMeNsBnP/GvzA3sLl5HivgS6fxDbPpBl5ONNZx6hgpgYIkjakN/C9hZ7SV9cO1P9ox4jZPwh3IBCYFoJoz1MyMcqJUI6E2Ct7mzF7m02erDd5dKjJrmabtleMYHJGFiyOcj8w6PxNTvVnbu4q/M+DQ82zISiyFZRdKjdXur4jZ/RGPxLWNRPNgnSskVtGL9jriSlQp+08FdQgRef153KV4pfXVhtf2jEDJxkIBM5fgmjPcTKFkY5/VoRcmnF7T6PNrkaLPfU2u5ptvlFvcdx5DGBEyBvBJtvRlgcr8hKQD6uXH11XLn/q/lptpoVbQP3L8oUrmmLfodPrKT48kbZJcwgILe/rBloYOeScvIDxq0UpeMjljOlOvpjkMteTbGsKGA/eGrlAvf5urqfnmxgYODqDbRsIBM4zgmjPITIByVTNAFGiRABYgaZPTN9P1Js8UW+zt9nmuWbMMecxAhFCwcio7CTpTFMAHPhIuDQ2+usS6+PAHpJdzZAHufqX5Qu0I/MtBtYouGmKxfYCxgh4JXbK46j/by/yiIg/4p04a+SYmHhA1Sy3qjmn2La4C6zqhV7NS7xwe2RkKYrJ1vjpaKuJHg9gDBhVWiCfbw8MhBJJgUBgWgmiPYtkIUOZR5aVRKQjk7wfKzhVhrzniXqLJ+ttnmm0ONh2HG07jsUeEcgLlIyMips6TV1pcaAiXK9583Ya/Gr2PtM/45aX5QvazuWWeePebkb2M1V8OqapxV7/R5CPqERfjQcHnwHa2Yc6EoI/0fnlGChVKktj7y9ScTd6kTdblY0CPQr4ke2P9zo6CxYBr/qIen7zzqHGxz5dKXmqoR53IBCYPoJon0UyIR2uICVCPhVpAzRVqTtPXT3PtxxPNZrsqsfsbbY57hxDTql7j5CYx7usnKC041Bd8eByIjZWfcVa+J0dUGOGnLTauRwQXy+Yq7P9T3GTziRZyb7mrPxWS+v/BhwHoHf8GxmkehjL4VK7/GVv7b/HNNfnxfygKK+ySNmNzyKggLeCxXNccX/v4PetMU/e3VXk/mo9OKEFAoFpJYj2DJLNorNeOzKp+doaBKh7pd95hlwyc97TarOr3uYb9ZhjztHynoZCrEoEiVAbM6rgx2QUQQCHIqpLL1pUWb3jaPVrzMxMW7cPDcm67tIdae7uqa4bqwXrVB+y3nx/3dQeAXikn8wTfiLHnx5HTdaXyy9gC5/E+QdjG7/NqPyEgct0pHb2yepwewPGIFbxjznh/RcPtj62rzvf2j7YMOu7i35dV1HvHwoW8kAgMH0E0Z4mtONVFYwknt2RgbwIXpUBp7zgYo7HnsPtmOfaMXubMfuaMQdbMU1VvOqwWTcSGTZ9Z+I/WaEeg6CwOB91vXpBafHHj1ZnrF3WJvfYy00yw5/KoXsrGOf1QVF3F5ivZmLdZfF1N+FF+eFLdl+tJpvAPNPdfShy0R+bvHvYx/JrRtjodaQgWscXfSQYr9r0yj95Yz5w8UBtxzYQBltmfXfRq4cg2IFAYLoJoj1JOtXHkAi0ASIjWIS6dxxznkOtNi+0HQfbjkMtx/PtmH2tmKNxTFvTvJ4qIIpBUpM5w7FJHTWdpwUBGqq6JIq4c0FX/WXl8gAcnrE6mJVKpbdJfHm69cnuQgXEqTzXiPV/lyxfvaBWsySmchqOSU21O7e/DRyDgwZgA11fRNo/5NS834i8cUyYmM+BceiTIvqBrnLjbxYcZGhbeghBsAOBwEwSRHsMYzv9TttoGmWFkJi5RZJ16ZYqB1uOo7HjQKvNgWYi2MfjmEPtmCNtz6Dzw9lETOrllEu3YQQyH/EsWcp0k9m+25ps/+W9Je5c2NVaUpHaTLZn2/tVaihPcUTgDdgY/TBw7/ahttmU+pl1WjimAQ/I9qEhu6Gr6+vWxj/hYalRWe9BDYiiEsPHVeU3e8qN+xcchFSw/fruIkGwA4HATHJeivaojj6dYmYhUjYVZdPhh60iSFrVou49L8SOfS3H4bbj+Vabw+2Y/thT9cqx2NEfO2JNBN1I4lacM0Keky+QTpPJ+6Rk+2qr0lZYYC3ftKiLty3ppiAi+xt+xrKEAerFXwlSnML5eQHr4AAx/zn2jxN0whsPCrjtQ0NmQ1fXN/D+x73l/0XC5bHqc4j8dsHU/ypf5Hgq2EIQ7EAgcJY4Z0W7M+Y5EcURj+1ktpuYs61Jet2YZN3ZqeKB2HsGvedQK2ZPK1mHfq6ZCHQbYTB21L1SdZ6W6nA8dSRQNCdGC3V6ec14CjJGjNFNn5xPEeH6rgLfuqTCjeUCvdYy4ByFmb4ORlbI1O4zNQKx8gjGPIMbNcHmhF+mD799aIj1ldIDzuivqPI2Yn6nWKh/MV+Ezxwc8Qc8BwR7+JbZdIYljGtAtyY/zuRYc7YZd3sAbBvj0jLbB3+eM2wYncS163yds8xb0R47W86EGRJBzoQ5C6eKxKBAS0m8sr2n7ZU2Si1WDsaOY7FjfzPmWOw50G4zkM6Y615pq9LwHpc6mUUIViBvhGLHvaFnON6ZJLMUxJqEj3kP3VZYUyzw6oVlbuwqsCiytH3y97PCdFSYVsHgn+lfPXQsv7t4do47xRnlwYHGP17f2/ufiwr9x/r6EfpHOud5KtiyCcyhtFPrS5YaPMC2CWxkE9jdYCqgfcn356tojWoPklB+BTg0ji9v7Pi5CrkK6LLETyJrk8DMIZtB7gFTBfnmkXt5XO2+efSv5h6w6bVLUzbMPeasaJ8w/NHs9+SHSGREnE0yw7ViMCo01VP3Ss15hryn4ZW212Tm3Ha8ECfrzMdSB7Gqc8QkDl+x+vQ12ZclNXMDZWOQDiex7Phm86lMTPmACG31DMRKQYSlecsVxQLre4q8uKvAgsggCPU0d2dxRtzOph9NEsGAylGg9XCjcVYP/MGBBtf39rpF9B/r6x+dOW6eCbZsGhk+OcAtG/mbvbGXbiPF3qjtKoa8lZPc1hGIMe26uGiwXqzV9sCABVcHSJK1mo1g+0bKuM9lOoU6PtSRi6cEhecrlZ5SFJdp226fjNNPaA+valQkFu/7Ta5eu2GAQTqS+7wLeAKiIOAzgtkIpg/c1o77bQewdiG9vlHqylm3QDQXySna3aoan/fHW3E0dKRarQINwD8DrAZuSfM0zDUBnzXR1lP9nv6QzJAlzaE9Ys7Oi+BIzNJNp9S8o6qJQNe8ZyhOYp+zteXDsWfAeY62HTXv05AsHb4Kmfk8cw4zaV7vgkmcw3SsQM+Rxy6z3zlgyCtt9SzPWa4q5riqnOeGcp6ry0VKJtG4llc8Ou8KqAvZNdLea6/F7tzJWa1VfX1vL4vop68/WbvO3p9Hgp3dKn5bKkxrK5UlJecu95ZVsfEr1nmzGsdyRVcaY5cpPtcRoz5MDKJq+7H+eWmVjgnuCZCjXuyBdd3xk8BTDfAMtrKvzGB63Km1xybwmVDXursXe22/yCIXWOOXNb1ckRe3Qh2LRPxyEaKTtIcasKANL3oAXzr6aIVD4J8UzFFxPH2oVH/yJUcZ6LBeTDHIIUBHduY+8Js2YY98Nr+m0YqucOIuxNsVpq0XY3UJmIvU+PypGtuBUSf7rbgXVlSKh8AcFOOfUWf3xzbeuxu+AbAW2DHQnDPXbtyi3UMyDOk86sn0nELmLZ04aGXe05njV5TGNB+LPU3vGPJK1Sfe1zXnGXCOmlMGnWfIJYLc75TB2DHgks9pRyaPrORTtm9BksFAutBqzIgw0HF+M+HBPRXGrok3vdJUpTcyvKRS4JJinisKea4p51iSi4iAmMSs7zpymcMcuOsmeupJetAFj99DCZi5oPKT8Fh/f/bjqGa7b3BOi/XY20VfSdfyWldrozfR9eL9tbHlGhG9IKe2rAYLiqic+d7InCUMoJFPxtD+ON4+IUYf816+fkul+JUHqo17GZVJds6gm0APVSpLWqqv9sRXG9rXG+EGgyw3aosYjUxH53Gmfs6IvCRrF8HGXqn7SJ9d1C499my3f3K9RE+IG/pvTmJt3z40280x71CA27pL62PPun1367Ve5VqDvyrC9mKS2kHouNXpagAxklj1MI3YuKORmieN6COKfN3Z+Is3L8w9frIvP3isPd79TBtnFO0t6eu9zaJdGGmlR0TzIh6wIqMfcVEZdYMb6fw5+VvDK/2xo+WV487T0ESMj8ZKrMrxtmModQJrOaXmPTVVhmKloT75ribiDiNhWNlDNvy+GV0ZqzMnNx0/zzVxzs5p1DGSmO6TfORKXuCarjzXlgpcWshzeSnHynxEToQ2Huc1sfMwMkiatXMxo2qXTApVBTWXRq3CUmhWCTWqT0VnsjwA1vV0vUZ8fGcdfwNib8oJCzBZxhjBp2s9Y8asZ96PIoIaVYwgS8WyVDC3Y9R5lWfWdZd2iOeLbZV/eq7dPjDoHC1VWqpn+9qNXtLoLb90r/PfLOI2ALdGYnuyUjGexGlzdJNMqD3QpE/tNnCtFa4VLE79gErxflW911n3SeDBka/G4V4+NaPa5ubu7sVW47cKvMx5XmoMVxgxVkRRTVt/Mvdy8mkRVBRKFrkQuNBgXuFU26ZtHzPCV5zKfzxXrX8aqAPsA7l5YU7PtnCPe6a9P3ZGlNKyXKKHde/dkdibtk+WHI0IQ85zqB0Pi8ShtqORmmUPtZJkIrEqdZ8IdM0pMUrTJz97oOo8MSPe2JnoZD1/zhjyJ7Q4pxwRT2MWsRmj09tbNRFol3YgyXkL3Ua4rJTjunKBS4t5VuYtK/MRJTG0UOK0TX3HNueEKVz0OTwtRHKT3IJJo/LWVrxeDTw926c0B5FNYDLz91XQvaCr+AZrzNucd7dYYy6EJIlPR6KeU6UkGPcAqzPpTGKpUhGwVrjciFzujH5LTvV/XZKPPmeN/PUXB1u7LHh38jH0tLdJun2/EaJmb+4GYvtDOL9RRNZYwXiS5yw9ipO1R+frxNoj+Z+QLEn1WGNe41VfY7z5LlX9nLPy5w8O1Hfc1BPpQwPxnDG9zhGGl3QA1i9adKG2Gu8wxK9DdK0VU/bpEqfT4cDdk31/IpMFHTNKk7RGRC4y8lJBXqr4N63qLt6L+r+uVVufXgRDqWCf1YHXeE5KAHTzZvml//uHmw40/ea26lUOTM0rTjUmycFsYoWad8MC1HBJbDAodZ88INkataQmaklNtzbdlRmHOWq+05mkBRKRbqsSp21RACJjWJyzXF6IuLZcZE0pR681LIosZWuIVdO0pxPfvyquYo1teP9o2+pb19y/+6nUKX461x8F0PWV4m3AJ41I7xQ27oyIdaofiwfr37fjxJWa85nhDv+WRYt6aDfuMOh7BNZbkV7tSIt7tslCLL2q956nxMrfNtr6fw+2288Nes+d3tttM2BC3wTD211bLF5sI/lxC5tEuEhEso5+VtpjeEFW2a3IX1mnf9nKtZ+bonAPDzDWdRf/MBL5kUlmUcwSCB3UWNYC+++rn/WiN8MDurULF/bm2s23CrxbRK8XIa86e04S2cTRKcdV+LQx8W8O9be/8ujIn8/KoY1npp1luPTAP/7fQ/07Li7k7uox5lsiI1daIfLJzDAWRGymu0qHAAs9FkYsER0IJ753jjE87EsHK21V2k5pp+ddFuixhm5rWV6IuLwQcUUpz8WFPN1WKBtLwSSi3k6LjEx0GDkLKEDOm91t62tMqAbXCVivqgJvyVVKn6Va/7ONEPUloTnnM5ZUnG7uLb/Ytus/LejrEbMIIFadqey04yLJwJck6bVGrvLK5kJO33BxrvBH7YGejz8o1dpGHZzW67gRom0QX8PSSnf30FsN+hMgNxgBp5rYUWexPTLTrREuA90qkd6eb7Hlpp5o+0MD8Rx/pGecYeG7ubu4wbSbPyHiv8kgXR5I6wDMWhuliqzGyAJU36YuWtvVm3v/rVHt7+99gUHOknCP1zyuAL+295j8Ouzas779K2/YUfmbfvxbEL1NRK8zYlchECfJPOLU8Xt4QjnXXEhnkhGRTgapsUIrFWoH9FjL0pyhO7IszllW53NcXoy4tJhnQWSJ0vhvw0gY2mDMsP/PnDB7j5MVtdoLe3sKz6KykilU+VLAglXRLet6CrsZaH6mc0Z1vpGd+8ZeFrTi0nfh9H8bYY0mM0kvEzcPzgjZ8x+jasBalfWKuyZX6b91qdg/3FPtfhIdnA7zcBZzHt/eW7isHQ/+jIHvMki3RzXWcfmUnbVmcWnSIFF5rUa5KyPVLUr8UTk7Swdzjux+3sSq0rOVF95hVd4ropeoCLEO17efC9dPXDIQVStcrt5/QNvFq9f35N9338DAUc6CcE805EvTg4qBr32pWvs/1/fSm2/nN+SNvErgRo/eFBnpFZJY56yy0xx6YKYVGfOzh+G1+6Y6BKHHWC7KRyyKLMtzllXFiAtyEasKOZbkDDkxwzNxsu/6xPSdjXpm05lsijhV+arCuqnY2SSpEoZBVqDy4VZv4S76m5/taPrzqZOTbeDWVSpXt5z7JTF8G1B0aal2mYPjunQlTF2y1NFj0B9B3S0rKvo+qt3/8YwOZoOMqZiHdUOl+LLYy69Fhjs0STTkJMk5NKcQEFXUJdXrLvHK72+oFIpabf6ZjJzT+XJPm23gbu5m8X498itG5J0CXXP1fs4GxA68QcoKP6ra6n5lV9cvfnZo6OBmMFtnULgnE6ftpQ+BqgD+sX6OQetTwH/dUVx4gYsat7TQa61yo1ezLhK9MBOzMWcxlcixs8ZYT+7OnzNHCJ86j8UoRSMsjSzL8paVuRzL8pbFkWVFPmJFLmJZ3iIiqFdUEu91TWfj2fp01nvNuZ5mcjgrfM4rd03H6XjwFlZ7b/5yb0/ptzZK/h/6+vuPd3zkfOjs9Paurle3Jf5NQdamEQZe5v7YTgDrkpkT1ujNXvXPVlbiS58Z5I8YscRM9PopwIZK6VsV+V2LXubB+2R2bWf7pM/QHpIOZBag/NaGnpJsHnjvn29laxb8ca7fywL4O3oLl7a9/J6KfEvSJuqZ+/ez8aCiRAa5q2q9uZnun9nK4AvM4Ix7qm3SOToedXO9qpvFNS1eK+g1KnKTqtyByOWRqD1JbWjVtPziNB3XpBqg0y7VGa+taR62bIUw8/DOGbiokGNplAjzRcUciyJDT2RZFBmWRhGVyCSeX5r0qj4V+c59nO2TPkuOaJB4NevThcJlubzcC7KsY1wyFbxNHpi6F/7HOP271lDj33dAZ8WyuZjYYyoMd+DrugvvMNhfNXCRG3F6neP92wkoyXW0CnU8v9tVqf/mZw4yxCTE6rbe0replz8Q0VVpIMqcWB6YAM6Cdeghr/Ku11ff+29b2Tree3i+OqIJoK/qLVxW9/JhQV7pRrrFOTW7PgOeEaPob+QH67+S+mnMSNtN5019yrWYG5Yv7yo1q5fjdJVofCOYV4hwvcF0e7SUJjwj8wzUkXXKrCGmdJyjRLFjZODT/WXCnP2cebNnoWxeoTcyXFDIsdAaVuUjluciFkSGBZGhyxq6rKXXCjkR4tRjN13fP2nA52z2JmdbtPeuosRA6c9E+R6dnmzkkI53rID3ehz4Asjf1Gz+M4+MzLyzUKj5nkJSSJKC2P3dxR9H+RWM9M62Y840oQIiqPeYv4hM7ee+2M+xCbQL63pLb7Ze/1BELuxY/5yPxFaIHNxLM/f21zV/Ytc4hXs+irYAektv4dLIy18Y5JUx83KwleENGFWtYfj+/EDj7/tmaOIwK41zxxJW+lp5WcuYy4y6m1S4NSey2uMXgCywiQdXMivNcoqMhB53RkuNOolOUc7SvPhUQNNtDcdAqyYx3xFJytTccAEQw5LIcmE+EeUL8zmW5gy9kaVkDXlJcpAXjSGXeKRma/fEqnNGmE/HWRRtAFm/CtX+8usF/VcgxzQ/mFkcf+z1mIg87lU+qk7/84F6fV/2mY0QvfwkqzRbZ6SFp7f9AK6BXKW7+OORymYxdE2yU56zZJEmXvkLjdlyX72+n9PPVAzgN3SXvxn8nxqRVedAm6iC5sB45XePV+u/sHMkl/npzm6+ibYAensvC2Nf/AeLvHa+j6pTUmsJO6OWf6NtNnf3zcBs+2zmHh/upL9whANQOwA8sukaPnngaKW3VWWpUX+dWr9eVG4AWaLocoOsiERyMrz+Syq5gknWPpJsYZk4+8Qu4dPCH0Wb1LEuGENBhIJJ/hWNsCSKWJpPTNlLchFLrGVJ3hKRem+LkBchn4ZqxamZPKn85anBCeb1uSrUs4gAGke1e6O4+KlI5M2pE/20rTWmFhM1RhaKcjuiL8HqXeu68n/vNPqC1gq7q9D/CeAyjmVFADygG4G+2W6h07ed2Qz6X92lH7HKL6uce4INSTiPEbzBvNNZ/9D6UunPLqrXzSmiAwTwN5fLL0Z1qzWyKp4Bq4OOttCojE6e0pkTabo8mwVQD15F3tZTqfzH0mq17/A51K2khkxes5yuwXrxtwzyWjd91rdRuxqzCqkk+1Ydk9l6Gi0zNk5m3NfExtz1RfgVRqwH0/bUnk3RzlLXyBYwO0GuAWEn8TVUDwOHgZ0Dq/iPp45XuoYKrcXtpr26pdzkRC9z3i2Jjax0Ti9AzCJPUse6bAwlI+SNoWSTMpklayins+JFkWVBx7/FUZK0pNsaREcXI0nKeaa13TSZnceqtHxiPpcOt84g0OPGv24f5hML6SeWv3KWV4nQNY1m8gxxqeuBgS4RWW+wLxXDPu1ufA7R/841cl8+QPeTALcDr2oNmq2gq0H3zHYrneR8ANkM7u7u4ndb5ZcRuv0UwuYmwEnTj8iol+nfpyjW4+6JxH8utpZtyZLAqHKhmWfu+kWlC4n9+wR5aawnFPOY/EGka+1CEmI4HL1xks37dBCfDhod0yAAAsaBy8FFMf7NK+GhIRiqTWWjc4dhsRyodf2g4L5Xmb5rR4dQG7A2jboV5IQdJOY2za6dT32qpjz4ytKOqNV3bKhU/nZ7tfr16W7EmRbtsQ2QjVZPPerYRx2qdaocAZ4APv5na9eW24eee+kzGr8Eda9ueX99JGZRwUpvr7X02ES4u62h2xp6c5Zea6gYM5yhUETSYZ52mM6zBy/J3NYimamPXfue6y6Mc52tAMcwa1nw37br6L9GYt7eMYuZttbNVkY0ma2oEfJJEgsuQ+U72oX4YVH5FNY9cGRp8wt/B82Nu+Bhkswv/bPdUKNOBTaD/1RP+c5I/fsRFs7QjKSTzBlUTmYG6Zh2TvfAQSMwMfqoE/kZ1Dx5X7Uu6yslv61ap0O4ZSvoNdeQ93v9j+bEvsGrTts6aCrUYkSsTzr03U7Za0SPe9XnUerpx1TUFL3oBcAyRS+2xlyQ5VWY6pQqCW9UBXlLoVj8x0WNxvY2HTU/5ykbk3lRvK67fKfgf8kghWkchKoBMWnn7rwe9bBLhMPi9TBwTJP9eyCnoktAFqtykSBX5UxWjnnKGAU1Ihd4jb8V+E3mmXn8hIM9sOGyZa1q3G7afGQjc4lV8i1pRTk1F3hM2YsrqsqFkZD3KiVrpNtqfyFaWVkoaEGSh8R6hAhJO5LRCZWHPb07f/cjHuCa/XHM4vg5FGY118jEpkZB3+/arI3gOsf0msk7kDSuW1HVtHZMVwS3qeFWdbJ/ycHSF53w+aGifmJFo7H3eZL0sc30+8zyEttm0P+sVK6JNP51g6yMSeKNp3EXmblw2FEERGLvWyocVjV7kWFfEkQpIP4iQZZHIqKMjoLoaK+JPkHeJrPLhxX5Iav60PbBhmzoLur2wTrrKyXGCLeWdqJStk84q89HsDKe/LUabgMr4BQfw8OR13uc4UlR+7W6be9VmsfzA1R3dJjq14JtQaWyuLLctP3FHr0K5Q5V/RYrkp9ixh/jwOeMrtJIXlyJou3VOGaA+R0O0ZdZWy3PmZgdKrw6i99ncsKtJEINijhlj6KfNsjjKrLbq/2G89VDB6sM7Use7ey5NtdAsVJigY26L/bOXeWMv1FV3hQZLo2n4ckXQUTkjRvZ+Dt99E1r5sYzNlT60Oqff/Pa8lUD7rblQ9VevLayfCBGfYxSMEYuN8YXrEjsQXDWY1gsyjJBrU9KqHSp6iIVcSAGdLkgkaIGWIxSEKNRxdhcVqJzOMQqlWbns8pXoyryDF/Bsa9jTzBo8ll3RBtmE9g9i/LOtHmjqPmoEVlwFmaP0NGpSyZUSeawIRX9qioPWMu23PHG9i9C3NHhzkbYmGwG/Z/e3oVt3/qjSPgup8RM0wBbUy9XSC94svpznygPWS+PxzZ+nrYZMJE/4gXn0wc11yTXMH5pFOUWWZGFTv0NKrzMINcaIe9HlHsiM980dE8f9sgPGbh/+2Bd1ncX9b7BBhu6i2wfbLC+UuK+MTNuBW7uKrwqEn4tMmZdnJnUxv+IewFjAaf0e/i4xPopH/mvPlBtPcE4M+3d2lNO6tQrtIkW57T5ck/0k8borVPx7k8d0sTj/6mpuXcfrNWOvOD9cNL9McwnRzS5ZUFZS8drK5pdpfcby3ej6QB7/G2ViDWggvdev4LIRyXmvn31+mOkVbjGw4XlMjby3DvQsBtKpZcS6V2K3CWQn8JgIs1mqUfzRl7/hYH6A0zjROCMB7Q57bi+/eYXLYb2h7qRV3loqGYdraomsZaLJHnN1q4pGSOlNB3nsNB2DMuzSi1JkpLRCUuyz5zuqk3oRALDzJZop8gti/KKk3cab37fQMVxVsN0hmeEmXhrElmwR7zscKJ/b0zus8BRgPsGBmRzYpY9W+ItAOsrpXeJ6J/CcI3rqd7iyVpf8jh6VZ4B/km8v1ud7O6/7LIDJCtE46JnYKCk/YdWeZHLI3ilevMtInKJiOa9DuddON01jS1ETvVhlVML9pm4Kdd1Xb7k3o/K6zuTzJyhHTDJ9a97/N2mxZ8eaza3c5Ja7TvP3O46RrhRuCrC/bpB3+KnMChNenk9qM68YX+jsWOf95kj1ck+CvNDtCEVbuOjRUrr3aLySybJ6HdGa1I26BTAKU+I8X+iTf4DeOZkn7+/2Tzt9VsF2iHc3LmGwguHCndZlV82yMrJmu/ThGJtRX/hgcHG7zCNoj3uetr9tqovtHM9lVxuYc37YaesrFPpMCkM/6WpSj32E7Kbjbd1gkjPW/SBoy1uWZT/S48gXn83gt44KSx8Nhwjh2+dbICYiDerMbraqr5SfPvLDv8PWD6zvqfnma0DA5rmRj4bkSl624LcjT7mvYLINA1ofGJhEKOqez3+b1X1b1219RTpUmlp584JbbCdzGaeAp5aBZ/dn+/+S19ovwnP243ItaSZvk7RCTsLUYw+Zoy8S5QHJyPYAA+1h756hy3+YBzxG0b4diA6lXCnAwkMiFd2G+Q387a5jSLHlxZPvv2NZ7jeff1w70AtmXGL8uDAoNzc3f2EjQo/6dr1ohF5w2SFWwEjZrlaVk70u3McfeB4jVsWlI++/njjNz7dUzqmXt8XiSw6Qz/gIrCK9qvyUVrRnyr2awD3t6qnEsXTXr99ALUaF5bLAHL3Lpp3rmn+6fGDxYrC+wRykxk0p9lhcqpy43Q33rhF+9udlzzSrHul7k9aKkdO9kbwsg6cjAeOtuSWRfyl95EX1c2RsDpd4z7rhQFSXwdVUCuyQOCVBnOrOn3Y0fzr23sLn97W39y9Kfn4jBYpWb+KUvu4/fG8cFl85tnquE4v3Yb3+H9H+e37q83ta8HvGP14TmYwIoDsgDatwSdo8Tu35vP/rkXzgwrfHSFLx4b3KfgIrCp7rdefVisPbh+sG2DCgp0dwxcajb239/a+x9Pah+dHbGK9GTVgSGdoYhInr39pW/PrFWpfBujrn/wyyMbe0cK9vqekhYHBqNbd/Wyk9vcUt1ZEVozDAnBSDIpPiu2cczxwvMYDoJsH6h+8u5R/3lj7W1ZY40+yxNJx3+xy6rYWh9r/1MhXGqlYpx+ZHJlwryuX9eJazW7bhW7sbXy44YuvzYm8Op5kiKoRiNVfNt3tNtGbSDqEWMb8Y+y/QOA06ANHW0Zz8Ufa6Pd6+KJJ/QB1dvxtJA230WR2K0Ursj4S8/vOm4+uq5TfdaC3dyEzN7CQ9atA+osvMSJvc9MTCpM44akOKvx2QRvff1+18SVAdySd0JhswhPfPiPWBwNwb6v1xPUDjZ9VkXer0y/bkWuqpF7iquxVZ39Mrfn0qsF65tGrkxDs7Bjki/39x3L99S0q/LxHDyczsuH7SFNzeFvRD+ad+ZEKtS/39WP6+ofr/EyKvv5EuCERboPwcvAPDg7KEHzVC19Mk/9MyjzqFWJxF+/zL8lN4TrNabaCubPe+hdF71JluyR613lfutT34bG26PcWh9p/2wfN+1vV6agOByTCvb9W49ly2W0C6evnuCCfckp70gPnxM2xez0sYpJm9pMxX9P9Bc4N9IGjLSN5/3nb8m936Id8YgLLHsazThaW61BNhbNg4DYj+nvON//y2d7SWzaNdMDTJdyyfhU6sI+8R3/YQJdOwwzbgqjygqI/uWB5fXNfEkaZzRim21rgIXE2/HOI7++v/7MT/90O/RdJynJKejx7DfwYkfv49sGR5CmTFOzhcwVMHzReN1D/IN79qFd9Kpeu36cXKfaG91fLjfeSqz1PPxHTtNwxVri3ptt8dGjoiChfTfysJnevCGDUXHJj766u9ETPtfmQAroT7GuqjS/EEr3DI/9qZCRJngHr0UcReWd5sLG9b8RCPK2D+0y4r8nkVnWHqh4UJj+wE5V8oVBYNJ3HGUQ7MJsoiXDbVpfu1lzjZyP0nYp+1UqH28QsCHgm3j6deQNdFnmzeD74bHfxTzZUKi/qOK6pdqQysA8qleI6UflmnfrswSfrtnrUif7kghXNv7h7F01Sp9YZbE/tWDow91dbX2s786Oq+tFckidhrzp+zAkf3z444uA0RcEePmfSOO7XDbU/pvB9Dr4UJR7iosIftNfUf3Vhg6G+fmxfkjhx2ugU7pQ0K+vU9nNOTq1PcprbwG0F802Dg09KTt/jVf8YwIJR9NFY5PvzA/UHSQR7xu7hfSR5JTaDtq3uQ2RApvB0qwz3H9NGEO3AbKOAe+BoSyA/0M41Ptr27juc6p8oNNLCLVkHOGviraAxYGCZFflBL+5jt/YU3nMN5BmZdU/m8RZArwVrDXcZkV6dwgpT5rWt0HSqmxctb3z07l3A2Q1fy8zmNm/cgUYkm53Kryr2J4j4+PbBevaZyZrET7dftoK8rtr4kvP2XQ7+2ysfrdjir1V20U7Xr2fEJ+Fkwj0NAzAAjYw5H/TbbwV53dH6fu1d8l5V3ezRHSbO/WDXQP3BlyfWlJgZ7gc2k9xDkZOVKN06x1o+iHZgrqAPHG0BeaTQfvyqweU/LbhNDv5LoGpETBKOklQ5nYXjExipCheJXK8qv91TKf3Zuu7uK5j8rFs2gT5XLF4ontvSxH2TPj8DXoTYKX9ydOVFH04Fe0rrtlPANSKh7OyeCwaHflXF/XMq2MC0zbDHooBuBV5fre7UmHc0sT/V9sf6p7p+PR76krR6SdheDwsNch2qdprC9s4HdCvwun376u1q4zes0bdF9cH7+s5i2OU9ab5/kOsRls61a3c2c48HAmckEW54gD0NBvnEui4ebJrc6/IavUPQtZGYnrRiW8xIga+zjlPFIAUR3uHVXbeuu/wr9w/W/pOR45nQ+Nzl5U3G64VeT0jUNxFUwHrhM/U8H9i1a1cry9U9G20E8JXjw6LsGByd82IGBHsUWwGSamHD7XMWTlk2QbS3h5a6wg1G9I6O8V6YJI2T1ETdpr+5G+DlM3Ttto75fSNEy0DvgaKi3xSJFOdaudcg2oG5jLl/iIPQ/ugd5fZnWhTutFa/E2VtzshCn1R4mzXxTpXQW+EmDx9cVy78RlxrfmRHYg1AztzRGMAfggjVV4iRspt8B5EkxlBe8I4PPtZf37cJ7NYZDE+bJ0w5JGi8+0lrt+veHlpQWCMi7xWRVb7Duz4wflJBPRsphQWQtWCXQfsQ0KwUf8qIvHou1qwPoh2Yy2Ret+YLNQ5A8yMbuvikUHyt87xexd+RE3uRJuKt6dN1th8w41BvhEuMkd/Nl4sLtdZ4/5YJiMVQb+/Fede8lKmtf4oIOM+/mqH6f3UkgznfmakOXzpedVPqTLW+B2xcfn1s+Ukr+urZ8MM4x5iJ9htbcsKvBb0M/N6lPWtMo32XKO8GSjpSRGfOEEQ7MNdRRmKjdfsQh6Dxt2tX8i/5ga71sfjXi/F3GMw6ywleKmdrlGyc4oxIRQ1bbi0XubfW+C1IHFo4Q8djtXmzwmqmUNoxKXihB701/3QJ1LeNxGEHxs9EZuXDJQ42Ac/2Fi65NY5uU9U71PpvjUSWuzk4SzuHmcy1A9CNUKl1da17Vtx6aTbvFMztJDmd5+T1C6IdmC9ks0YD6I4D1GDos8A9N3Xnr4hUbkf01ap6pzWyIC2sKzry3RnN+ZPm3fciFNXKr26oFHV7tfH+raf9SpoH28nVYljkp5JQJfHX/uKxodo9DybbON/N4qdi1AyZMR34mb6sILd2dS1tG7cmEnupeHfpXuRyiVnjjX+JFelSFYJgzxidz3GnJWlcA9Q7Fy3qOR4PLRNvrnNer0C4pClcbMRfHyGrdbhy5Ny9fkG0A/ON7EHNOl3/0GDriZu6eSLqLf6rVFvX0dJbvfBt1sg1CmWSEChSz/NJz2bHQVJLF/IefuH27vzXGGz9B6eebSfvGVaZpKqdA3IT3WlSPEGHEPnvXSMlCAMjyKakHGMWigYd12Mn2EGI6kvJVSOKZiC3PDLa601uBd73iNjVeL9IRVbeqroAfCVSWYK6pRjpjRgpVZoWO5qzHf48REiun3Tk/u98lsxasO3l5HMtooIrLPGx75VcdLF4rSiscMhio7pMYGl/u96DSo9HLzSGxdYYK9m1Y3jLc/r6BdEOzFdGieBDgy1ugqNRb/Hzvtr6fF31H7ra5hoV/yYReYXAhUbo0qQc5UyKt3jAivQ67K/d1J1/8qHB1hOcIk76xSsqS7XqLkIUhUnlcTACDvbGuM+dlZafH8imkevrALcTOASR6+3trjeb3QXjFnljblIxlxr1q2iYi3LoQrHSpZ68eMqoyYPvNiLGpAmbE9VIVjuT7CknjMfmbIc/jzAbk+sXA3oI2AiwlEqzWuptWNdbxF6lRq9FuTBfl9WgixTpxpqierpVJYdo2UDeGsGkxa00rezXWVFyDHP6+gXRDpwzPDTYgsGWAGxYUHxmKOeeuai86J6D1RdWWbGvxPM2K3qVRS5AhFh1xjzPXZJG9Aav9mfXsvYHL2OH33aSGXeu7i8EXeGTEjwT7iwS6RBB2f+Gauuph4bfPm8Z9uLOsrO9euHC3qH20EpnoovFc7OJmy/N5+QKwS4EWSBQFjHGiKDZJTCpMAOpyVSzDr7jIs3pzn0+shnMzmRW7frS5aINC4oX0+BCjczV2vTrJdIXl7DLRLWiXrpFyAnJfwpp2MbItQPUpYOrc+HaBdEOnGsowPbjDQHkkf4DNeBJ4Mn1PT0fq8VDtxRs/tvE68bIyJWp5/kZ6/hO8kDUCG/Qnq+9kgEyj+5Ra80Su0UitofRHcq4MSCxeq/Ilwne4oYOsd5QLr8ktu7GwbhxG9j11uuFIlQQyUla4kiS1Uv14DtmXWNHUMIkrSCBcSMkOQUcwE3F4kUmr1fj7Xrv3CttzrwI6BaVskh65UaqC3kdPWOWsdcu++FcIIh24FwlW/uSzUk2Je4bGDgK3L2aZfesKB26UfD/y4u+JSdmlZv+2BzxyWx7map+z25WfmEHB+qMnW1bWa6qWdalic74VUCcypBE+uhsNfQcwZCE7uRsd/611sutGH1zhLkMoZD02sNmUa9JLy8d4TzmXOnU5yHZ0pHb0Ft+Cd6/0iOvMXCTiC4kSYYIKKp4n61NjIjzeXXtgmgHznV064hjidkMwJ4Gde7/BHxZKsV/VfXvFJG3WaSQToOnzRHFAyL6qnzX0Q0M8T8bIeosVqFKniR/+cRPjKTXsmjNt3XfLLbxXEDXd5feiOfbQO80VlakddKHa6Wr6nAu+fOpk58H+Nu6uq51+O/x3r/RiLkqUrVeJat175Vw7TKCaAfOF4ZzUjNiMmuvrTb6Bpeyo7uW+6QzuZ+JRNc6HS70MOX+QcFbZIUTvRP4bF9i/hvebuIXhzOQm0JRa+esGZrl9j3bDFssburqus4a/78FfYMxskKRrLpMZwjded/ZzyGGr93alZTzteIPO+/fYYVrE+c+xXVYygjXbhQhtd55SiYQxvnz8R7IQn9kB1A6THWw3P5H0fi7nboPKTSnUkO3A8l2psgr1nXn15Ak4xhuc4tZHiHFNJf65Gouq7jImZlN5D23MCTtaNd3F9+eN+4fLbxTkBWOJCmGjqQOndH4/MCEGb4Wa8vll+arxb9Rz29Y4VqXhF1px4DZEK7dCZyPHfZ5T/pEeGPEWnx7to9nlpuCHcDOw0h/qfX13sHW/1axPwH+gJmmcpaqYOBFxsllAIc6E6uglUhGjmXiCGoYaoscGH7j3EYAf2Nv74JnK8WfN8gfGpFrOgOwmSNCrYkV5Xx3DuwkC8PTWyqlTXnr/8Yg32aQyI3c/XPi2jE6pn9OEUT7PENBragvGDHO6yOPH8/vV0XGUdziXEd3HkbuhtbCgeqfCvJehx5Kw8Gm0jaSZEqTLm/kxZvB3DOSlhVVraXr6JPsqBTx5Ctd7cpsN+BZQABdWyxeXHStP7DIZoSedpp3fq6QinVswdjQx2YIaSjXhkrprRb9PSNyjQOdY8qoCk4EMTI3r92cPKjAzOAUtaC9UZSrOv/FgYb/LaDJlrNSSWc+oIDcDbZnsPG3ivlpVR2Qkb9NhmETuQi3/E9vby+gm9M/euFgrNo2U8gVrqLFRsMu7jiHc5FEsBfSG+XklyPhe1WQtCranJiZdYp1TiTyqk949GER8VO8h+Y7w2lHb6mUvlXRDxiRVbGO9u+YRbJr5wTICxal5dFPKnpgri2oB9E+D8gWiBbmjERGTL+L/7G/pT9krXn09bt2iWydm2agWcID/m6wDwzW/tajH5HRoUGTIQkpFbMytq0ywM6RIss+S6860Y0KSW8jiFFnyrPdcDNIJtjk4+L3W9Hv9uD8zKakndDBGZCcYCKRyKt/1qn/UNvJ29XxDxLywAPozT2lmwz6u0ZkVczM5EaYKKktXiIweRHrVYc8+u/q5Ed8bH5RkEPpgzln+sjgPX4Okg3n085Ei0ZERVttR1/D8y+ykL8vov2X/ffu2TaLz9UZfua5qiL6J075NitcNAXvbkHAqL+IVtQ9ugE0EiSaSjsolIyJV852o80gunYh5FqFV4uVnxOk6NDJ1h0/5T7G/C5jfzjhNU3Z4VS9R7+mXr4CPB4j22uDje0tpLWoUnglc0CcZhEB9NbFi7t9q/ZrkchlMyTYndfvlNdu+Of05vEqxLgjHvOIFX1AkAfjorkXONhuudUFJxOuBTDTBNE+R8hiUkUgEjAkCzJt9bqj2pKnm83/WZA37wb2UIPv+trzsyqYm5PsR3Nm9HoSPCD3D7Z2rasUP67IeySb2E6crJ9Y3PK+1PkH5+zzkeWQoBd4JmzqzaqY9XiVG4CPzXajzQRrFwJNVmLMjxtY0ladrk5fsywdpGFFoxo/+cULEquqenQAeEGR5ww8r8peFX1W1B0wXp+Oa927QQYcHoewi7rcMokCMOcYeuvixbhW4weM8DqneKZJsDMnP0mu3YkZ65KCXd6oOJdkMj0s6Ase87Sqf87As+rNsyJyUCJ9RmGPRCCt1DDiNTcXE+EF0Z7HKIltVUiEOm8Fj9BWzwttx8NDdR6qNuQb9ZiDbXed8/5XS2J/D3jkD8vlpL+v1c72YRuSeGk/NtHIHCQp2RTJ/4jjPVMZ4aRTd4mM7xnVGFaPAQMCF0xyu2pB8HrdbDfWTJAKNjlT+BYj3JmuI0y101dNBkg2kmTg45NUtoOgdaf6jGB2KTztxB/Me7Pfo8djF9cKRmpNZwd68/mhT7/udf0ITrzDeMXVugGBu/86C1dywcETGdLaBQX0PaKCn6bcBwJqBSskfSAwhFDzqvu9yhPW6AGv/mnEHHLeP49IrN4NSiy1XD46XllxwQBJRbwTuHvXLgu4tT2FOXntgmjPMzyQZHYSIgNdqZfEkFcOtWP2NGIeqjb46lCLw+2YQe9FgLKRi4w13+u8Xwfyc9ur9X9jemKRx02nSN+4MHdtvZ17622x/8iXGo19Z/M4JopR2ZvWHJiUOTZzQhLEquqFANuyzjxmHxEHRHjRcJWDSexAhIs+3dW1jKGhQ7PdXtNKEyq9lSWNwfgNRojiKXajaYdPhFiPelH2OWGfQp/ivoTP7RHvj1WKxWr72LEhOgaVhfQ1ok2z0WDjtqQEjKQ3hiMR7b7hXZ33yI2LSlpsyfcZ4ZK0QabkG6LgrBBJkuLusMKzir9PMffFbXky9nqoVGgMaA91gfqog0lfY1ocb+w67X5mu+FORxDteUAi1ImhJi9C0RpUod95DrTbPN927Kw1eaTa4Lm2o+k9LU1m3+VU1D2oV9SKXOVVP7ihXI6BT2yv1c6GmTyrvBSvhV7bXX5LFPv/jeg1PqdyG8UtX2o0piUmekZouAGflwOCrJpKprR0tj1K+Kv1+qGeSumgiCBJ9MtEZ5GiCh65FOteCfxjx+7mNZvB3NNb8a1qa50R+zI3DYJtBZMmH38Y5T/bBf6Npnnm4qHVx4DW8IfrsI1jki7jdGxi7CZHsoAEb7MTWXm0XjjeVf4mM3VvPAU0J0RedV+Mfl7U/FMc60PRktYRgXqO0WsR9+0b9ayd9NrNR4Joz0Gyu8krWIGSCAUrOJTnm45D7Zj97ZhvNNp8tdrkQOxwXonTFde8CBVDlsoxQwCJwUUiK53xW5ql/Nep8Y0ZXl82m8BvA7euWLndRO7doG8CqQCqmO+TyH7stmJx56sbjTm5zq0QgxwXWDWV7Qjg3PD5ZeLfEuOf16R/MUxiUOCByLCw7eS1wD/MdntNE7IFVA5U5Zae4to80hNPLRrbGzBe9RAqf+PE/Xm52trNUDKTPsROloG9ZiTVrQLMxftxPpDOMbRaKa5H9NIpKmTmdOjbXj/pVT/ge5rb5VixBhAfKfKGRiMr6Zk5kcIUr50IOmnr1wwSRHuOkaxPCzmBghiq6nmm0WZfM+bZZotnmjFPN9ocjmNiD4IiIliEopXhpNmnmpUIWJck+3hp1Gh/z2bYvHUkC9G036CbwB/oZeEtrvhDgnunMXJ5mlvYCYiFi2Nxv7ygseodW9nVmqnjmNI1KRCJ0jXV7ShgzfBkIEuzqd6bJ71QN1CadLExBURvv7W3/OJ7+2sPZ53mbLfdFBABv7FcXtFAb0lrL07WtKqJYMvTxujPHx+s/+vSdFa9LCmXmnX0YbI8Tbw8sRjFbZVXiLB0CurpDRiFQfX+D5uS+wPbUz0sx4o8lFjnAPShGRhcWZ+3EMtce4qCaJ8lThZPkmXCF8AiRAIO4WA7Zk+jzZ5Gi/2xY2+jzXPNmGOxx0jyWSOQM4lYZyqn4+zxk6xoGKO8/BMs7IVj/Uw981fnqSnAJuDp7tIbI6c/ZI3cKWBc0vlq6kykPvn5Lccrz/3PndU1f9HNrhNqTs8m63sKWBsVXOwvlpHzmxCpOkuyLq4Hs3baDGwDjJf7EH1WLFf5JFnIhB2tHGCNrPFOv+vW3vLD0l8zWbKI+cimZNaEs7raKDfoyH010VNSScqk7jGYnwD/bwB9I/f7jNxrm4F0xn5eztSXDfclcq1FrZvktTNgVGl78R8oDjXfV6AZ91Wx0JixNKPZtTOqK1W0W+dYOe4g2jOAdr7qSAYIKyN58TpjqQ+3HbuaLZ6utznQijkcO460HUfaMQ2vWEkEvWSlIzHvSMLqyQf46sJKobaUJv0dncxkyQ7NA6zrzl/xrJp3R+h3RcYsc6r4kQd3OHzSg7eQA/3FY937H2Nwzf0b2TUnvMrX9xS4b6ApGyp6hRFrp6Hyl3PY5wHSGt96DbCqtujr+ytH9gpyFZO/nGoUcei3oO1/vLW3/NDb+mt2Pgs3QAOWFZBeP9lkcSBGJHbefxD4t3sHGpY0gc4MH7pfDyXBLFFU5thkbaYRwN2yaFEPrfqkoiJSknrx8Nmeweb7WxD3nQX3ga3Dz7hbpkqXzrEHKIj2FBkWTQVP6tUtDAttdoe1PbTU0/ZwpB3zTCNmT6vNM402x5xjIPb0O0/deQTBmnRt2spJ9zkVUodXFuei7jsWFC/o29fcNUXBHm6KWxcv7qY99Cav/LgVuVmBjrXIk4RSYhz4yHCJevmDI717v3NJ/5rdsCtiFoU7FWw2btxoW1++/7VTGhwNtw6NSNqjzmknyLVQj0Xut8orphLO5AAjcoXzuffUq90/vI1aTRLTop/lfqdz+WVCzZhTv1LFTqreeLZjr/po1Io+4fOweaS++kyfr7aLxaUR/mqrMm2lXucJAqhvNi+2Rnt1kn6bad9QU9H/BwyR6NWM9wmbSC1g6BWI9Ex6yWqGCKI9AYbTZCmkRdmJRBKBNpATg1doqKfmPXWnDHnPwVbM/lbM7mab/Y02A87TUKXuPHUPiJJLxb5izaj9TTcGaHhYlDO8bmFXc8Oi7kH2HWEaZtrcVCrd7JqNH7HIJmsoOx1fRyUkOaSt6Dp15lf39x5+z539a47dza5Z8SjPBBswjYceWozIa62kmc0mgWQrziL7JLKD0M7aWjeD2QlqYv6dSN9ukFU+OeeJhpdlWU2xwltKleP331Bd/sGFHLQyOonIbNAp1uO6ptekn/eiJTt5sRMRiFV3tBZ3P1MYHOQsCDab0uM1EZdY4bqOvOPnhWhn5x+JW6wqlcmedWq2O+LJ3Q8N7pmBGfZJDk2uAX0X5B4TebEVbFvnRsrVjCDap2CsQBsgZ0z6KuQMoEK/8/THnoY6jsfK8djxfDsR6WfqLQ63PU1VnCrt9B+MiH1PBKoysr8ZPCcrQsN7HOgre8u8fkGluSzPAMAWpiTasqGr8MMYfgrxl6JCrBNKMymamMG8NfyvLtdqHS/t/+U762v2r2PXWfUo7xTsdV1dXsS9XUQuneoBpNaYvTaOap1vbSUZ2VOvP+a7izutsIpJTk3SdvRp+P7PFXqO7z42sPxuEuH2syDcBtA715DvP1B8c9vFzz7UiO/lzM6GAvi1a8mxyy5X1WjyD4Zg8Icc1F5TrZp7z8K9tA38pmvIm2d5mcJyTauzzivFLpWgXp/SJrxVK04mnWpWEpPgoA4O7v7MWUpNlpYOdV8rlW5SWJcmr5pTl+68F209yc9WIIdggcgKORFaXjnmHEPOczR2DMaeQafsbbU50o45GnuebbapOo8RwamOSi2aOJoJBZP4v2ROY1ONPR0PqYmQAedZmo947YIy37m0hwg44vx05G+23pj/lRMujRXnUTPRvNBpL25UUWN4h0cXH608+/P3V9fs5CzNuDPB3gT22a4uZ1Vf7IUfT03Mk50pqZD2OJ6d9aHq8TF/99vYZ9ZDXTF/p95vFJHCFPZnYvAWc5FVfqfQ88KRGwaWP/QoB2WynlyTJHP00hcOFN5VMPI+JP/1W7vN2+8dbD3BOKIElu5YVDreXV8C2Mkn5lC8MdGOdx0wO7YOn/4MPnUDBvDPf6NwocnLm0UkcskAdk51/KduLVAl8o3GEgP7p9JeUepoOuljSa5W3lFZANXDTJ+z7KmQ1MJj2hFvtiKrnapjDs2y4RwX7U5nr5OROIelDmKpsAow4DyH4pgB5znYjhmIlRdiz+F2m0HnOdROHMXqzieeEh3bzGyUUep0Jultlh2Lm4XKv1WnFI1wW2+R1/RWuKlSpNsIA27adNAZb/7EGX8TkJ/0NJER64YReRNqlh/rfu5X7xxc86m72TX2Y9PKCYIdx5e7iD8wYi7wU9e6JOITfRhobznRRKwAvYNy90A3T1m4brKm+LSBTJrH/Fqj0Z+Ueo//7A39y+95lIOTdsGe2O6BJE1tsdlT/Emj/LQKvYKu89g/vbU7/+7xCrdOcYalyUjw8o2/W1nUR/XIzJ76YHY+No54B8gNfmIWp7mBSFGMXo7jkdk+FK/aUyrKFTQ4fDbOHPD/VSneBvr2tKue0v0ioDmRaTXrzzvRPlVaG+n4B1ktxczbWkd+Tp8gEWEg9hyJHc+3HUdjx7GW40js6I89g95RdX7495bqsKibtCCHlWQ7w+FbY44pE6CzQeed5dL9tlTJibChp8iGnjJruwosyVlaTmlOn6FUNnR1ab489B/NevFLRuSV6ZrslLTbg1qRdbHoR4527//wza78xw/Was93NG/nqHvKvnmpYOuzXV0utvHlIuaDRniZTm59uRMVMN6zx3l5CkbKcnZ+5j4QGDp8uxb+yAl/lvoKTuUimSS0T25xTj5cqQz93A3V5f+cCTfTP/gZ5Wh2c3f3lU2Nf8ko346Qj9O61wZeoWo/tKGSf/f2auvrnGaNu776aEteKPSLMR7FTOJgkzZUuTkWtwY4kmbmm/a1UdfRnut6S9+K0x8FnVL1ts7NWzmzA/pGMM0pDi7T8MSys/oKnPxL9v5kzkNHd8kTPpbkwZMlPmrfAdy7cZz+EBOhb+T8EsFeVLqQNu8zsNJNsRpZ2mClRl6W0WDPZNtxLHNKtE9mqu6cpWY21xHxHRHRbO05Ww706RcdyuHY80I75ljsOB57Dqci3e88Te8ZcJ4h56k5peZ9GkScmMetZMlO5MTybh1hV8k+zz4mPQyn0FYdXjzrtYYbu0qs7S5wfbnI8pylrUrD65QU9WSXbfvQkGygq4rV33aqGwxMxbw73LAO1CrLgPd68a++pbv4z+LtR+8cGjrc2dw70wdrTDakM24/jQX2gG4CBqGgRl+d9/IrCLfoSAKUKSGAN/qQl+iZy+jIOz6mHQEsuX+JxX23Ue6Yjhm+Jln11njiD3X1DtxwR7v8IeAAoF+o1bL0sn6c7XbC9tPvD8fMroWydBXfaLX981bkxjQFr2azTQ8Y4eWq5oMbKvkfToXbMlpIdSuYzXto3N2lz6ESg+aZRHtosr9VMf6NqtwvMnxNp+dxVeStHQOB9eXyneL0N0VkkeMEQ9xkuaDaaJSBwVMdxcbMs1o4lExXlEk+g8klcrzW5/2lt+QLT5f6m5Py2nYxKlNLTeKtYGPl2zZ08ZG+IQ5tnH4P8uxe0DuWlFe2G/5DRuQVqaVqymZxhS6nspxp7HJnXLT1VD9r9l5mg0hnroBJBdKmT7pJczvFSSYtvCqxQqwer8nTciyOOdp2HEvXnI+1E6/t487R8olHdyZaTac0UpG3mUCns+aKNcOtq+M8r7NNNtN3qjRUiT0URSgZ4YJ8jpu7i6ztKnBBIUevtXiUmh854pmwD24fGpL1q1b1Sf+RvzUiP+CSSzXVm17SAUbOGlkH+mLEffvdleLHXcFvi9rFw/cNDBzjxJnT6Ub4wwK1LX3jxt7eBU/r0BWW6F3G61tEZOEkPbjHouk5eEE+f1m1euTQGTqdvmr1yK29pT/Ac5MIeR0Zp076ABTUIEvU88ux1VvVuA9GLv/F2yuVwwfA3Q7YajWCJCnGKQY/wwOdQx21Fw6B2wg0e3oWqTbWCfJOVF5phYUdI4FRx+8BK/IKj/3Tjhn3KOHelMSxs07lmAE3yamxpM53NkK+d11X/l7V1iffJthDSfEax+QfZbMRzDKIt4FbC+Wou/ztAr9i4JL0vp2WR03Ra8vOlwHZCKZvzAAHoJrmBfYqA1amNmD2oEbkSpz+6H3V5k+T1AzIXZakIz7pvbFpZH8uG5TeEhef0XzzBUEunuyxOEWNyC1qSj+zkfrP90G8Mb12Gyd57frSwWZ2vADryuW1ccu/z4i8Pt3olAfr6Xa6I9WLN1RK2lut5++Gdkf7TdZXYEL4LCtB5x0x1gScJWxNhHfEfNz5c2RSgTYGC7TSOGan0PSeGGim+bRbPvG6fqGdCPKAS2bML8SOQaccjR0t71MPbYhRYq+0UnHPhHk4+5iRtB6PnHRQMaeC8lKywYtTpemVhvcUxbAgMizJWa4rF7mxK8/FhTwLIkvJQKxQ98mEYoa9YBQw9+3bV9/Q1fWHTtxGI3KlZ1qEO0tbpYIUjLDWKTfmW/b7PK3Hbuku9VnvH/WSe8461x+XSlVggFNcxtLRo1Gtu7vXmFa3b7klJrLXi2+9zhDdDnIhRkhTZk7HOqRaMLHniUjjvkN0Zoo6NV399bsHK6W/j+Cu9hRNdCnZ4EeM8Grv7M1tcdvB/J3R9kNabe2J04pIe4H16ZfuG73i42FkoAOwESqNSv4isNeItr7TYm4XZJkaOEO4n7qkbV7usL+/cVHp+/uO1vcxZga8CdgbcQDVBlBickiy1GJWRUZ+89ausmyn9slN6T27EexpBiqjtpMNWJaNZFLzD0BxfU/pBnV6l1H9TjF0jzfUcRyoghhkmUT6Teujwh83k6QtyfUZap7gmGWQF2LVpoHiZNtLh5Mrmneu6yrtKUb5jwLHDyXXHIC+/n6zOfnxZFYaBcQ0+5/HlvqncPdmgy5FeXejpzhwu48+1FetHt4IVE8/kBi1nc0ky1K7wayF9u5UrG9bWLw4juXNgv4QKi+aBuvWqEaIoBiLvnlhrvG3LGLgzvRvdx89YTV1/I0yjh0bwD+x9solJeP+umLs6+vejxpFRma06ThKBdIrVL0b9pAech4HtLzSVE+swpDzKMpArByNY+peGfCOmktEetB7jrYcMYpHh4tgOE2cujQ1DSfr1Km4kQhcNnMfmdVPspVmieycXLo+3XBKwQhLIsuSnOXKUoEbuvJcUcrTY03i/CbQ9sngRU4x1FfFVayxDe8fbVt965r7dz+VWtWnZDLcnBYe2dBduAvMH5GYyac0Uzzh2JOQJjEioqp4pWmFIQ/7nepeEXlOVXabpKM/GYu8cKkRf7FBLgVZBJQRwav60zTbJA4VjKCxlw88UK39zOZk9nimNhZAby3nXuyN/Zgx5go/vR6s3iAmtXENobrbwWet4b7Y85xK7qCJ4yFXLw4C/QCXcczurlQW2rwrmma8UG1+hVWWe+9uFcNGkIuAbkmeecc4rnky+0/Wub3yUVHzs9uTsqLDzlybwD3X1XVtbPzfW7h+ivZstSCqeshjPojlP+7rf8MjnGCl2TZ23fGk65C3FAqX2gJXei93GpG3CHoRCNNoEh8mGcnoAVR+VXD3oK2j1w9xDGj/efqZTWAPgWt0l18P+n8jWDHJ1KHD7SUgotQ8/DPObcPknmmrHrmsVnuBNHf7HugxpVJ3LLJMQC+pveExwB1iWwTEjUrpr6zw9imGs2ZtGgP/6nF/FUddX6ocO9bf+aG+E6/VSa/dRpZWWj3Vq733LxaR7xCVW0UoTpN17YTjVohF9K+8569NzN69jSWHSAfJ+9g34Y2OW7TvWbtySdzM/cvyXHRHzTuXTmBpe2XQ+2HhbCsMOk+chjwdbjtin8QpH3NJzHLdewZiT1vhaNvRTAdKWbyykKy7ZrdcJromdS7LZszDDmBZ9oJ5Ks4nuyCZUDdV6TLCylzEhYUcl5VyXFbIcUUpz8LIkBnzPYlQex3JZ37KazpDok1ivrPNVeR8f+kPLPwAI5dlOjuyLFmISnofjiHmVI47qoZMAEXQ5D716a02rQ+sFcR52Z1X+dZXDA09tnX8a6kG8BsqlU1G3IcUFqZiMC3Hl7WdSVZZkimnUnfoC6qyFzgK/gWPOWgFL6oFxaz0aLeIXmBEVhmViooWs1RffnJtqKTinQr3z28fXQ9c1kIp6i79YSTyzmmIvPAmSQPvPfqEqt4thofU8qx1+QNrlw3su3cXvr/jHPKgl/bSdcRVVuSIl8XCatRcouhGI/piEbOIJEXvdA74TsAkvX8tVn0c5BnQgwapSzv3Z/c2B75BYjXwrrf3sti3/ioS7phq7XEy4U5iRo87eEYxzwp+L0jdCG1VViosAa5AeLQ+WP8+YGhhugzUqJTfJfgPiEh5ioeThU6Kej3q0E+JMdstfpc2cs/mS9Xnq/0MdV67XvAFKMaF3iWm2F6oPl4F9lK8Xi+G2wxcClLI7t+Z9PK3CA7do8rXjOozKlK1En3+S4OD/8EEHdTGYx73AIfrCwd211744z3Nge6G1xdnNZ7bXjnuvMaaRDfFqvS7xNt67MKi0PHGmDt8WIQzz2xG/m7McHIKOl5GSvPMM3UetbTQcT5xum4fe6UnslxbzrO6ELG6kOOifI5LijkWRmbE2kCyBNDZW9oZ6TLGjfaB37iPeq1c/xVvS1dGsHGyXk6na8Ls1lGGi450/i06ndu+Zo79yWdEZiDxRdLPEXuRv3tFdeixnSc6W522HQHZXv2pf95Q+e0XCfrLRoim6NzXeWxCksxGJRkfWw8lQVZZYZUCIiaNuUhaSIfdtxOV90muAWVknDiZNsyuYWSEd3gct1cqP/fFavUwI11Czah/ALF3pbOWqWAceIMaA1eLkau9UtU2B9W09z34fGlvvoJfMiYe+GisFbHxyrbKBREsFUMxKbCXLKWkg6AZTZ7iE6NiORK5WYWbBYMVaNvmf9HkG4C+HMzW/v5n1lcKexBzxzTsVnxyj2BEFlh4MeiLExVPnXDTUZsRaKnuzYG2gWzd/bbY3x1H8gsWVk/RZT8x2ydr3Isike8W5DuclxfIu93NuHggX5Hqko7nQ5JlmBLSWqqexai5KDLSg8VkeTJ0ZLA1k2F5mqS4ZrUxrDbprR071wX8x0Q3Nu417bft3NkGPrYwl9u5IjJvLRj9Hiv2UlDJHqZkwCkYQQrJlR0OsuwU5+yHse+dbGFkPopyJ53nmC0M+rTTy1JUZfpyUSHiqlKBS4o5VuYsK3M5VhQsXcbgSNbnm6n3d2eTzLFUS74PzMYazzd75Sed+o8alWunIXTqlE08ZnYznmJn2fhwplADEqt8RZQ/2UmSJWsi30+Ocatv5fhDG5euycF3uGke+2QuHiQDn6yTy0IiZNjiNfq4gOGcQTD1cWI2WTdG5C5HrK+EzZ+F/ZtBPgF49fehZqcRrp1qXyBpKJwOnyMVK1REufzUD1LykA4v7OuwZ3Yyvjk7cdiiyfUh6f+ThnAdbjn3JMcRI/KoU9oCuaneMNmz5ToHxh37H35HUREamWiPfJ1ngS8qrJ6GeCeBZFaMYgSNjMhygeWYk18CA8MdrCZLYGPnfmej+5SRiUIWCqd40dZkNjYRR7TsJL8KfLWs0cfVutu8yrda5SUi0otJtqdJD50NrIattXqKDc5jTR7F8PhThmdaOJK196yziSRZb4/EsMRarijlWVNKTN+LrGVxzrAwsuSAVupUN5Q6k+nY/cxdfB/Ixv7al+vdpe8H/YhBXjRdjmlnYLabRo0gztNvPL+8qjZ0cNvk4jMVMM/V6b+o4H/BqZStypumuE55yjYbM7YePoCxnxvz+Wnbv5LFcZt3DlVKO15Zrf9pRzz7o8C/C1zL9Jx/h/50LN+c2fw+dr30bN9rY6/PqPF7XzqmEGf+W43+gBWumK6A9FO5x3S0wynbwxn+QJQ3GujW6Wkzk+583l679I1JLUeeUbTH7ulYu82xZCj1MPDwxqX8c7tRvNR7f6ca8yYrukyRJVESrpLOKokZmd3Mr+xAp2mX7ISyqMjMvO18ItRWhIIRuowhb4SlOcvF+YhLijkuLuZZEhkq1tBtE29vp0JLPQ2v1Dv2c6prMcdRgNJg/b56d/mnBf1jA5dMNWHBHEdTx8cY5P+sqtX+a1tHW0wCf6CBgebTlxSLP+ZiwYq+yY0EcMyzW+L0JNYJHpIGOxYDH0uFfO1QW3M90cfbXjdZkTXT7Ow1ke3MtfYeezzZffEV0CdF5IoZnhGdqT30S40Gt1F80EX8i4i8g+m1uM3nazfpY5pKnLYA9B3meWg8vwkeeLpY/AsfRZcYE9/hVV4pykUKF0ciRRHNZp5ZjOqE81PPFiPiPFqg26lAt9VjgC5r6I0sZSOUrWFpFHFxIeLiQo5LCzm6ozT/uBgKachbW5O17P5YQfT0Q9Z5SB+YjYO1TzYrxeMqfCiHXNeGOBXuc+U0IQtNART98ECp8sFt1do0WATxBxoINPZcUCq+Rx0SIW/0I+nr53sbJg6FgokdXxDf+qlVcfzgxxjxQRVg80D9oU93lX5fhA9Imot8ppy+ZuxE00EIM3vcAqgTtuF5hRFKfnbbSb7UaOiGSv63PPZlBi6bAS/ts8Gw78JsH8hURHvYWjscytJo7AX2boJ7j3Z3/1ndxZf6yN2B2pdY4TKPXpkTs1RInKjSjsfTqYmzyKg19nQGnSRyUdrp7LmNEpEkYVmai6gYoccaFuUsK/MRK/M5LshbluYiSiZL3JKU3VQSgXaq1NxwdqhRHvDnINoHZmO18aVGd+n7HfyuFblNk/Cqzmafz2T1qsWjHxZp/NLOw43qNG5fU+F+9oJS8UdNTF3gLSQOZPMvt3XHeQEYwTj03+NYf+LSZrx7W9IfDAt2+upvGSr9DZXGhsjwnXHiR3hWKj9N17naZD19ppcDPYAfbGwz3cXvFeGVibfY7Ar39mrr6xu6y7+mqh+SaXSqPJvnEAkyF/yrpiMjWlZUXgAznBpycPAF4AVgx0Yo+N7elbFvvcShNyFchOr1gtyYE2zmnAVnb337ZHalduJJl5i3URxKSSwL0wQmXdawOIpYlK47r8hFLIoMy3MRlcigmvrbSofjSlqOs5lF7cvIzP1ctRF3sjERbZaBPTRYv7/Wnb/LevNziHxfGv803x7esQyHTjmVDxVN/ef7+jnO9OdJ1sRU3nh2Va77hy3x0wZ+zAolp/NPuDWNmwY0dvrn4uVXL2029m9L222MYAPIAxwduEm634d3ayLDuvY8mrFZQbxnl4pWBFlxFkSrBuZ3nfdrRejxMxA/Pk6G173zg7W/r3fnXxJh3wPzx1KU+ic1neqjxsjNqS/wrN1305nGVEkyC2XnmZ2U74MG/f1PA08D/7Icui4tl68Cf52zssYjN6D+OhG5PBLJwkmGN8oJP45yQj/lwYx9TT3ck+0zvN6ORylLMnPuiQyLI0tPOpNeEAm9NmJZztBlk6QmZSPEOpL5TdO4AZ++N+yh2OFiew7PpM/IxuS+cIDdONh6ssrCn8h3NXao0Z+2yCUd3jTz4iGm41gtiFftd2J+z2ntgzMk2Bn+QAMLgy+sbrDVVcrfEPzWCFnp5k/7KUCUtNtx9bz/eK3xxzfA4LY0LG6sYGfpGgDz0ODgE7f0dv2Cev2DCK6b4+v7Colgq+ouo/rDDvM6EX4q/eOMXa8dIAzW7t5QKf25EX6GZP4wW22kgPRB41Xdha21oXi58bwtvWfn8sArSzCDUX4nRj8nnm0ismA2BxwzlXu80wo0NiyZgzB0sFb7MvBlgA1dXcvUyyVqudCrv0JFblJ0QyRmGWiOJKZ+2AN9uFY1qftkp4AyZs+pcPo0G8yCyLIwsiyIDEsjy4LIsiwf0W0Th7EumziHlUXojQxWhFh1VGx0zemoExxrHej0Ig8kbCSJ3ewD2cix/urQwj+x3Y0dKvIzRvWNBnI+iQvtXC6Zc2Trkuk/VPSrorLlgYHax0kGJsLM1o5xBxoIReqrq7UPUyzudJH+ojHyOhTjR45xTnWEne1mABXu9chvFW+uf+qGPuJ0hn0qwR42kQPmgf6hz97a1fVjzvg/iuBax8wnx5jk+RqbHPQTHnmviHwGNc97/CYrXByPrHHPFN5ifzvW+FIr8tZZHuAoYP7nucEX1i8q/WTs5ahB3ynJcz/XBl7Jsk0S1eBA37dq6LLfeICdZkW59Jko4m1OiZmlglszstOxbv1bQLZ0vG7bNPL3TQAfGzoMDGdCenl3ZclQrrmi2bLLEbfGq9yM+hsUWWSMlsRLtxGKSfEtSQuLJPkQckZYEFkWRxELIsPiKDFlL4oMvdZSMkLeGgoiVGziFFa2Se3rODWPZzPwus+GAmOuJvPaq3vWSIVbU+HW6uDC+0yP+wEvrTsF88MGXStQZMRhsTP53WyS+V5g01UNr3pMjfyTeP97acGL4c+ejeM50ACKsLrR+JIrl+/y4r9bVH40ElZrWk97BrK8TfxAE2FSm8Zze+VobPjL2OofV25oPLusD7aNREieTrA7hVvuHRr63IZy7ntia37RYL7VCtYnkZWzGqEyfL6CFcXHns/RaP+iFHP3o4bC0NBTzUrxXxH5cdEZFSsFJJb4cNzmJ8mpWOQtPonJn60IDg/IfUfr+9eu5KeioeIeq/KzESxIB16zHVmiCs6muujR57zobzww2PyTNFc9zvK3RvWbBSnO1vFO6GbRTdgdu9ee9oFYe9kOv2VbcoJb0q8xmY5s0zV5Ft6uNJ+w//DFp5Z+vd5efERblzY9L14Q2Y0erq4Ys6RsjVkcWRZYw4KcodsaLELeJOU08wI5Y8hLUmIz8WDXkfzlJHajKTXMPGMG05iOYuMp3u/r+HuVheR6HNa2LnYtfZMx8r2iXImRXgCnw2Oosx1tkK25ZTMmgwqKHvYq29XHfxb3tu7ZcYAak4vDnhZWFmF1A1y5jIO1OevfbTGvBl0tSepElyUvOZvtlz5aakWiNP/HEaf6eeP1jw+tbN574YU0U8HOPj8ewR61xg3oxkplSVPaP2ZE7hKVC9NaBNmA72ydr2ZibYQoTdu2J/b8P/H8CZb9qOG+oSGzvlL0TvyVObEfsXBrnPi42skcqxG8E/+q+/ub93Q0DxvKZbbXasMfW99d9IWcrGq0eL8VNiFEPgmAmbY2MoAT/aQMNDbVoP7o6Z+J5NpB1OgufROqv2hE1kriWBl3DLzOSjecrZIaiIwI6n2/R74g6G87o59/YKCZnaJuBNvsLr0vEvk5p+rSUdeEhDs7Ka/6gfurjZ9kgv3HREWbHbvXTrhRymZocb7ZssVC3rncUMG7Yq+rOys5pOnMInB5MWoib5d7q6UILTvMJQ7N5WBxQWRhwZhcwbK45bSnrixoqS+jkpNUjCNRDIKRJM4+9U5PZ84jM+hTZmg7j5hLot03MtPwABuKrI4LhVdYZ95q4BqES21a3cwn4yxlpJbKdF++UUJtkixduGQx8Gsefdyp/D9r6n3AUYD7BmZXsAESz/Lk+NeysszCYy+JYr7PqrwM4YqseE9qvZipDvGkgxwvekCRB73X/1uy9b79Szl+4YXQ1zfSbhMV7BOEG6JqV+H2vDE/DPpyK2apJsHyWX6IM6Xjn+r52kiS2uUe9jrkS1HbfPA1jeqX7u4q+fuH6mZ9peRT4Zb1laLGRm7OK78jyMsU7bQsjUdEVZNa08TiX/tAf/OznFq0AWR9d1ELg40FzZ7yjxnV7xPkkkns95RMULSHjwvQW3p7LxXferuFtwFXJ2ndZnywnq14qoUoXQatCjzgnP+b3qj578cpHH1gYLiSmm5OCiLp7fQu8JXm+xD5foFCPDGroJKslXuv+qH7q433MN2inZq69ak1awq53vaGtthLBYn9SZwaLCoOWQK+R0S8VY0Ril7NZYLmRKStqt0oq4xgVYiKYpfkhZwXNarkfBIWYbwma9mZEGc9jQKxz1IKJkVGOh3Lhs3XQZxPyVwS7Y73hh0XAW5ZtKjHtmovVpHXW+EG77lK4HJrRhwV/ZiUpWM65jP5KI5KZ5itt1qSjHVtVUTZJYYnnPovq7H/VszXngCqAH2HsZy8LOFZYeVJCi/e3hjJb74XSlqJ1qrkvjlveHHs9aVRFm6ZDICGvXc7Gmoij0kmuImzVVr23pD4gAj6oPc8GHt/d5QrfqkgA0f3L4WX7MJu62i3yQr2GOEG0FsWLeqRVv3VxvBmPOuMkSsMic28Y7lgMl1Cp6tMtt5pkmqC0PY4a+Sh2MUPq8q/VLt67gWqOw8fFkDWJcLN+kqJzhm3aeWuinPtH7eGt0ZilvrkWE+bhjdN7yCRCA6l6du376jGX+L0og3pjPuiOxt2/6e6Xubx3ydGXxmJXJiFonaE3064fQTwop+Qgca3T0S0N6cD9p2bsPv+q/RS7/3brDEbvLI+J2K9Km6a79XUr0KsSDqZ8/ss5oG2c3cbaf5bt+XQcQqkgj22TxRA10PJ9xTusmp+0CDXi2g2o/CnOumsj4nSeEbn+T/bh+q/yAyItgH8125+0eKca/z9ikJuY0uJnZ5oEkg7hMgn93LSUEkUlIz+3Eg1r+zhG3EoyxzMsoSxyduJl7aiSQoSkayWwSSu4PnOXBTtjr8Nj2whKTm4u8LCSAvXKebFxuga4EWoXIpwSU7EdN4oGac6kc4h+0jvJLRVPejzgvkG8Lj3+jXJ6SP4xmOvG+B4tsmtYwYXs8HK01RKTmfdnc5wZm2lssjSus2KvRWRF3mv1xrh8igtBNL53I1natTZjlnhgbZq1Yp8RdFHvZcnHOazfmjoyVxPT7sgAyzrx24b8R1Nr9jUBLvDv0Q2pZM9gN1QplJ8Sc6YV4v6l6DyUmO4yKR5Fzov3kTOdyT7YXK+RvWriHlYVR92Lfe5oVbrGdKSlZvSWVm2i3VdJU4m3EeqjcKiSv7OSKLXg9/gRW7IDfeMI5hsv6iK12+ImAe913ux9f9330Bi9ck4hWhDOuO+6M4GT2yjK9dTuK3g7Wu90VvUsyE3Og31Gduns++1Ai38F+KB5p1tqI1TtEdOL93lJrDPdndfZox7hXj/UlXWqpGX5hCT3asTvXbZA5FdvzgJ9/kahp2Cfs3l+Hx8tPlAvov+bgufHjjhGTrl8a7vLb9UY32LMf5lXuWGnJEeOcn1S5eqcKqHLPJ15/2XIqK/+9LQ0OPjbKMTzuuUbE4P8NtvvmBx3hf+bkGUe10tqad9UvwJkVlJEpXOz3SOJMcMK4flvXNEFQR5epnLop3+vdPMNPaYotuKxQviiItVuShClmDMhR7Xg8hqUUoe8qL+YkTyjIyyDUjTwC5AVLQuynOqcgxlv7F6wDv7QtvapysDA3sYydyXHdOowcRscTrB7qTTZN7xtqytsDjKVV4ksb9M1F8A8iIvrBHVJSosNkqPNSY/dntZD+a8P67IAOgLYngWL08Zw7Ou7fZYL4/nms1RbTd2+YOOg5qqYJ+kXzjhnK+ssGQRxWvBXGFFrvD4S1X1YhVZKcoiK1IZnmGM2VBb1avqcUH6VXhORI+I6k5R8yxwQHFP5KutXSc5XzYn+StGcTLhztplLeSknLsuEnsNyFIMK0B7svMxmGe86qA3pt/45rPHqvGjHgYBnhqzn9OI9nAbbdqEPrENHgWztqdwaQ5ZK7G5EqNXIKxW5TJFF0TGdJ+q/3Xe170waGAf8Iyq/ud91eZHGH81u7HHNeo+WQu5/MLcVbTs9Yi5GNE1mtQtv0pVe6zIInMKdfCA9/64Ci2BAyLsV2W/qPmGquxr++ZTrXzXU2XbOBYfbZLvglSwx/ucjxqUrC8U1ti8uVrVr8DbZc765ZKWmgA5irLPiDS8c/vbjqceajafHsc+Tn0BT8do0S5+pGTtN9e911N99xQblHF8JnCWmOuiPeazJxOfscg1kMstKi0tOJ83ilU1i2PVzugIKYrEsfHPOzBta5rR0foxoHaa7Sbxrmfe/1lhvILdySnEe5hbFy/urrery01se6zxXSKmgmp57OdssgHXRo9ZkYb3phpVOLz94NARTn7fnHK/0yXYpzNDnmLf9uYLuhfokeaSYsEuaHnTZcX3CNixKmOBWKSh6gfVSd06d3wolxsADnZ+bvHQEHDifboZGCvacFLhPtWpyDWQa6XbNZimR/HGYLzjWEejHxvzxTOI9vD2N206cb97/mdRD25oMd4sd96XrJheGE7oOOZC+oFYpG7xRx35Q8CRHdUpJwI85X2znlWleOGRJTknK/Ba8iILUHInHFY65vKRHrcxzqg7roXoGEfrR2G4rAMAbSDfBduHJuWbcrpnK1oDNp/87ZTVvHZOooEmGvIlJp35zoBjRyBwAhvH9yAlD8bR+v6O93ad7IMTveHPtP++8W5oikxGsNPvnfb4nx56YZB0xjbhIVv/aY9LAQ40TnxzugT7NB3Qqc7ZPfhcmqlxMkURW6f90rg6/PuH6qzrKnFfNRHu9ZWSnmZ7w3s0GDpFOw2RAqBn7DfHdx1127aTvX10ABggSYQ1kcaZRINOrB3vY1+dY+wF9k54q0Ptk769IRHs0+53MscKxLvGWOumi1kJDg8EZpq+U/fpsz5jniiTFeyJ0DEjHy8TbsfpFuypXMhJTDqm7b7pFO7xkok2qWifTpf3TM9hTtjR6ywybdcuFex5RRDtwDnJOGfoU2amZ9pnQ7DT/cxIe2Uz7ZkQ7Cma+mZ18JYJ93iZiGiP3c98bJ95fGwzzkTXtP+qy9pvrnk/W8nnA9PAfFrTDgQCgcAIcyZXbyAQCAQCgdMTRDsQCAQCgXlCEO1AIBAIBOYJQbQDgUAgEJgnBNEOBAKBQGCeEEQ7EAgEAoF5QhDtQCAQCATmCUG0A4FAIBCYJwTRDgQCgUBgnhBEOxAIBAKBeUIQ7UAgEAgE5glBtAOBQCAQmCcE0Q4EAoFAYJ4QRPs8pKM8m4jXUK0tEAgE5glBtM9DFMUIWBHiRhTP9vEEAoFAYHwE0T7P8KBGBBGl6f3XSl2LD6QV5c/rwvKBQCAwH4hm+wACZwcFVVVfMMYWjLH97Xi7tWbrRffdVweMgJ/tYwwEAoHA6Qkz7XMcD+pVYwssjKyNRKtDzv1Tm+iu1Q/s2kkQ7EAgEJg3BNE+R/GK96ouLyKLclFkhLjp/ReHYn6KdvwDV+148utbgmAHAoHAvCKYx88hFFBFBbRixZSs5XjbH296f18TPtOvbKu4eO8lj+wBMFuDYAcCgcC8Ioj2PCZzIJM0iiuP0JUz4lRlyPuvtp37fN3TN6TtLzjJHai0Yy55ZI9sAQmCHQgEAvOPINrzCAVVEoU2IFaESJCI5M0hx6HB2H1GkHuHiLd/rLznsW+vXhw7yVFpx/zVI3vM1kTrg2AHAoHAPCSI9hxGU4s3qioiEgkmJ4IRwamSF2kMtP0RRD8H8nlFv3YUvgraD5Y3Vi/DiXDdQ9+QNINKEOtAIBCYxwTRnmP4RKS9gIqIzYuYvDU4VZxqqyCmv+rdcy3199XQzxXE7DwEzyZCfSJNVXasvUwfmu0TCwQCgcCUCaI9yyQijQdVC+SNiUrWWCvCkPcYry8ocrDq9GlRfWCo3b43svLkmpWLjgA1gIsAPrEjS0cakqQEAoHAOUoQ7bNMkuQEVVStQEGMLVixBRGaqjScHo/VP9v0sq+h+oRHH2jGrYdXLVxyYGG7MgQkaUcHYVtfn30cdEtmRg8EAoHAOU0Q7Rkmcx5Dk6DogojkrUjZGOreU3X+qHi+4fB7asgzXvWxY675lQr5Z9ewsAa0ATgGUGXbZTvspm2JSG8Ct2m2TzAQCAQCZ40g2lNEO2a4WehVZqeORLCC5ETIi1D1nqbXA87x9bbGT7SUXS2vuyWSJ56qDjz78p2Ha5zoLCbbNmEe35bMqDftwM32OQcCgUBgdgiiPQ6yeGgFRNFUncWAiCAGwQAiWTiWAOqHVAdanm80la9acY8j7HfqDkhcfPqfhtwBoDki8b08uqYXgKO7dhmALanZe9O2MKMOBAKBQBDtUaQLwyqamrRRFcCIGCsiRiAiiZ7yKF5RI7QLQnPQ+abz+qSIPCNiHoP2E2rs4fZQdKRaO3wA6PDuHuC2jv2u3X1MxhxGCM0KBAKBwAmcl6KdiTM6vOSsAIkwi40MYhFyAl6TsCmEmoWmRQeGvNZjdC+Yx8Tr0w3kyZyPnnfl+HjtWKsKHE325IAWxWLXaY/n8Wu6ghNZIBAIBM7IOSvawzWiO2bNCmoFtYjJxDkSQ0EEBYa84tXXVWVQhcFY9UjN6aBTvxuRxxU94J0+GXWZY15M/QrbHgQao3a81ELfHjn54QQCgUAgMHnmvWhrx1qzkvlpJ7NmK2KsQaxADkvBQKww5D1O9bhTjnovx8X6wy1lYDD2B/OGXbHz+2LMc3Vae0yPqS1uuuZF9+1rcBLx3QJmy2ZgK3T8PYh0IBAIBKadOS/aevL3UmFGcohEkoo0QvIzDDhPy2tVlSMeORrjD3nV5+vKsab6I+p41og857R1YH+1fch2aX1t95Ut+vrcKXYrgNm2CdmUeHKzJYmR9qlgBwKBQCAwo8yYaOuol1MzNkxq+GdJin0bkfQV7MjvIsAx5zX2esgZDqJ6zKgcFPwhUXm+jb6g1rzgnB7xNj7aFHl+3wv2+P27drU5haPXf3AAgC3JIUj6c+bFDeA3bSP7TCAQCAQCZ5UJibYozis+yeg1SmezcCfprEIlknzGIMMfNjK8rVR6YUQTBQPeoN4KftD7VtvrUVSOWpHnRHkBjQ8YK/s99DvHgObkmFdzTJxWC63W0b9c9OwgWdawsVyY/kvZ0jcszLJl9ABj2Dlty2xfoUAgEAgEUsYt2sarqGhPb2RM5JNZcCeOLPVXonZOVQX1IBihZZLZrY+EpiB+SLXRcu6YIINeZa8RHRRlv4oetXn/vLRsf1O1kXd+UL3U61FhsOiLtb965JEBJhEStWX0IGPU2vOWsAYdCAQCgXnAuEW7EC+L46j6LOjXrOA01W0DqKIN56tO9QiqBpG2R54RpIp6FTFPq/ihWF3DKM+rzTfyRpqRxI2K8a3nhkxt+aJKe9nLd54sI9gotnzrpM81CHMgEAgE5jVypg9sTl+3gHnqxWsW13yroiLDAlgEvBEtR9ocsq5ljnvpykVeui5oDAwMuGtLOxUxbRVPrGAU1OaJDKCt0Tu7H9mSmKrHriVnBOENBAKBwHnLGUV7Oshm5ds2JftLC16cTJiDKAcCgUAgcAomJNqbwWw5zd+3jP45iHEgEAgEAoFAIBAIBAKBQCAQCAQCgUAgEAgEAoFAIBAIBAKBQCAQCAQCgUAgEAgEAoFAIBAIBAKBQCAQmDX+P9dAMk7DXHhiAAAAAElFTkSuQmCC;" vertex="1" parent="1">
          <mxGeometry x="388.75" y="520" width="102.5" height="42" as="geometry" />
        </mxCell>
        <mxCell id="IonQVXjq1AOYUMtXGqEm-8" value="" style="shape=image;aspect=fixed;image=data:image/png,iVBORw0KGgoAAAANSUhEUgAAAe0AAADKCAYAAACIahjBAAAAIGNIUk0AAHomAACAhAAA+gAAAIDoAAB1MAAA6mAAADqYAAAXcJy6UTwAAAAGYktHRAD/AP8A/6C9p5MAAHlXSURBVHja7Z13nF3HWfe/z8y5de/uqhdbtlxkO+5JZFuSS5Qeh5BASBR4aQkOBAIEXlroSCLwAqGEGgKBNxDgBSJKgCSYBBJviuWmxCVWYluRLUuyrGJJu3v31jPzvH+cc3bvrtpW7a40X3/ku3v33lPmnDO/mWeeAoFAIBAIBAKBQCAQCAQCgUAgEAgEAoFAIBAIBAKBQCAQCAQCk0Q+tmmTne2DCAQCgUAgcAoUBODgzatXPH71Jatn+3gCgUAgMD7MbB9A4OzyMbBbQJ9dv2pR1Udv7S6bHhgR8kAgEAjMXYJonycoyOc2Ei3diNuyGdNu5X7QCO+weddOPxJEOxAIBOY4QbTPAz62CUsiyvFFreXLnvjEJT/dlbO/VDRSrnvrZvv4AoFAIDA+otk+gMDMoWC2JWLtALlg6NJXRyI/UhRzZ9GY4kDbNTUSne3jDAQCgcD4CKJ9DiPgAb62+/KXf2OtfnOXyHcUjLmw5rxrOFUFI6rBLB4IBALzhCDa85wOB7JRM+bnb7ih63ix9vqi1zuBV5asvdSrMuS8d4oWwxp2IBAIzDuCaM8zFGQLyJbNwFY8HWK9Y+3aXMEOXFN2/tsiqa0re31JxZplLZSG87jks4YxAh8IBAKB+UEQ7XlAOpuWezZuNPT1uS2b8WxN/rZ77WW9g6axvIfS65b4Y682Xl6kRq6sWKHhod95NBFpkXR2HRQ7EAgE5idBtOcoCsImDIc2Cn197p6NG/3L+/o8m+GZT61eUb/BLcnlcust8i1LpXR123NBV2RLCtS853icSLMk/4IpPBAIBM4BQmc+h9gMZssm5J5DSXhW599WDVy+JjZcFHleYoy+pmDkaoSlFlO2Ak2vtLx6BTFy+uuqiqtYYxveP9q2+tY19+9+SsFkjmuBQCAQmJuEmfYsMrw+Pfwrnm3wchKztxquwHOFEa71lpctMHI1RntUTN4gxCgN751TFUTECCaMwgKBQODcJYj22UMYs5wsye+aLk/z9NrVL0LsNU65FsO1olxfNuZSRIqKipJMv51X79QDIkawRoJUBwKBwPlAEO1p5CT5u/UUPyOoPL3hqqsk9mtjja82ald74QoDV1SsWWRQYoFYwavHK94rqCACJgh1IBAInH8E0Z4ko0zbmxC2jQ6/6sDcs3p1vpQbzC/s7bnaYK+PVG7YG625xDm9CC+XdNloQcEIbYW29zS9zzam2QYFjASPskAgEDivCaJ9BrJwq22bkKWHkJezEfr6POC3ZCK9Lf3wRqJj1YVdB32ly6ksKNjclSJ642rVG/Nm4QVeWRYrS4uRVEpGaKnSMokTWd1rtj9gWJzDfDoQCAQCwwTRTslmztd2iPOOalXYsSMG/KZMmOkD4PGN11QWtxrlakN6nPULxcgaqv7yHHJtJTJXWVgYK90OWVC21uYE2oBRpe5Vh5wiqZd3pzAHkQ4EAoHAqTjvRHusWfueQxsF+pA+HKn3dkIizrp5s/n6Z/5hZaHV7G4Ly423CxVdWay2rhsSVuUjvbgo0YUOLcVGigaTy5vErq2iqEeHnPdpLJWkJm4Jbt6BQCAQmCjnqnSMKl21JRXpzFv7ZF/QTdfkDz0ztGjQRRcWjC5rqCy1ht4YLjJerlL88pKRiwrGLIjV21jJGxGxaTPGqngUp3ivqolZXYZFerYbZNS5hjjtQCAQmJfM9Zn2ydJujicL56jPbEl/V5BDG1evOFq1S3PCKjHmAmJdJoaep3c3V0C0VGB1W2VltzVdVjQfKwYLYFFVWqo4FTyqsdfEo5sk/CpVZyMic0ulA4FAIHBOMGOirWeeXcroj4965RS/n25j8tVrrsnlF7V64wG/vJC3K7zzi63VFeLlAmNZ7JVeHWJRQXSBqqwwzi8u52whl4ZWoYpDcEA7FehElFFFk1ePdEydU4/uINGBQCAQmHkmJNoKhk0dCrXttObUMwnu6f4ubMI89ZU10ZElDbPQdEXPDzXs0jbFqGCWGWsXxsjKguhCVX+hIEv2GlmmvlnRhlTyOekG7TGGLoWeYk5yJTE4FOdBEzM2DqHhPLVRB6R6kgOTLId3cOcOBAKBwGwx0Zn2+Nc8167NPVM5Ytv7c5q7sC29VVuoE+XUVLXRLNq2uHLNuAigrGZZzkRFFd+NtxepkZzsdgulx61a3s6Xi8Yt681HXS5PWZWS4gt5lbIKBZCughHKxoAhWVtWwaF4BKdCwys1dSc9zJNocNDlQCAQCMxJxi3aunFjtLv27GW13bJUvfORlbxdqxeIGtMph4XYxC7nu+H4xa5qy/lemr4a5Y6pX6USLzJajCUvpW6JViyUXN6pGhIBNopEXqRkAIfJRUYiK0JOwIrBabJ6nL16wIE2PdRcehQy/DKsvcIc8wQLBAKBQGASnFG0FQzgHz98uKdYkv9zYc5ubKtte68FL+SR0Z7aYlERa5zXvIoxgKqKWGONSaOSRRSLYEgWhb1q6tadpecWRNG2qm+r6pAmebcFQTtM1J0JSEIIVSAQCATOdc4o2lvS1/9VOmaU4gKLLGmqonLyRWkV8Ao+8ftWQFSgnUREafYtrx5PllwkUdwRQdYRRy9Sb69AIBAIBM5zxm0e90Y056Radd7XvdcR36xTIHTMm4Fkxp79CRFJIqkCgUAgEAiMi4l5jydlII2I6HgThoQ5ciAQCAQC04OZ+iYCgUAgEAicDYJoBwKBQCAwTwiiHQgEAoHAPCGIdiAQCAQC84Qg2oFAIBAIzBOCaAcCgUAgME8Ioh0IBAKBwDxhrtfTDgROhwCyKU0HcCh97TuxsI0CsjEdpC5L0/JtI82eO4ESsIFAIDCbBNEOzDdkE5hDIH3gAL9tfN/TvpNXqZO1kKuAvhz81iDigfnPdOS0Cs/AHCWIdmBesAlsOpOODyViDWDWLetaZo+bBWrai31euzxY4+3FSXb8BAWxSOyM22vAa9sMinX9Lmeqlx5rPAe0AXam29wEZlsi8KHjCsw3QhLKc5wg2oG5jgC6LRXq23t7F2oc39iW+PJbhCuk7q5web3IChdYNeUIjIoWT9yMqlXTUFAfMaiYF2ybg3u7S4+o+t1OzIE80ZO3whP7gVuBewcHDWHmHZgvqMomEbMbzI6TW5XORKfgx7N9OoGTE0Q7MNfRd0Huqz3lV8Te3xT79ksxektO7HKFPCgimtSF0zMqbBHACAtRuTitXPM6EevE+6oz8U683u8ND0kkn79lUWnfA0frs33+gcCZSMRWRPYszL0tH9tXrRuxRk0ERckJcqxg678GHO/rH677FJgjBNEOzDWGO4lrllLpGSp+26NG7lTlZZExF2bK7DXpRzKd1hO3cTKGvzRciz2p1R4ZkQWi3IqRW53Sr20ewXPfTeXyPzxUq33lZMcXCMw1tG1fnbPmLjfJO9QIePRIbIp/CByHxmyfUmAMQbQDc4VMDHUNFBZXSt8sdX23GG4yhl5VxY90RDrme+OtuH7Cx7IC7zryhhjoNSIvU6svE++/dX1X8b9j7J8+NDS0k8TsKCNfDwTmDiI0nCqTFG1VEEWdNmQyM/XAWSCIdmDW2QQ2W7O+uVx+sbX6s0b1tcaYRafogKbT2eaEbXmSmbwA1siVKFei/tXrukr/IJ4/B/bfV6+b9LuTWTsMBGYECQPJc54g2oHZxm4Dt3blynI0ePwdxvgfNypXqgixqjKL3rAK2YDBW8OVXvkVhNcA799QKX0cYHu1bpnc+mEgEAhMmJAR7Txk2A4NiNfZDBExgFtfKl2Yq/b/jhX9gCBXOvA+PbzZbqvsOGNNJuDGsAHRP1cr73X5Us+GSsnNoeMMBALnOEG0z0MUJRI0JyJDDTeboR3+poVd14nVP7XouxXJOcWR3JdzSggFjIJJjk+Witdfl3bt92KJrtxQKc2lAUYgEDiHCaJ9nuEBI2IAcfBwtevZA3r2PaIF4Jbu0nrr3IeNkTf6ZHaNgJ3tNjoD1oMXiCKRdxriD3rc1alwh+cpEAjMKKGTOU9IvaR9XoRua6Tf+YcGaP8eUOfsirYAekuhcKkovxuprPeaeK3KPJmtChgP6hUsvAqxf+yxV2+olDzhmQoEAjNI6GDOcXz6Ly8iZSumJNIacPqvLY3uAh7ecN9Z9YA2gK7r6lpuc/IHVrjVpWEmzBPB7kAyv4AIXom4PwL3olS457q1IBAIzFOCaJ+DZF7PTqEgQtmI743M80557HAc/+RRHXrXEAOPXffgHhGSJN1nQTFlE8idayh4437JiLyRcyA8RUE9EMGrFPN7Jle/ODinBQKBmSKEfJ1DZPHFVoSKFYyIDsRO9jRbrQMt96UlpWgz8PjrHzkgSRIFzprr+GaQ+9fgjh8ofrs18n1+JIvZfBc3SYVbjcjr47j4i3G1/hOc/WWHQCBwHhBEe56jgE8XhAsC5chSc8qeZptnGm35crXBl6uN/PHYv6ru46MXSP6DrymXH5ZaLSuGMeNsBnP/GvzA3sLl5HivgS6fxDbPpBl5ONNZx6hgpgYIkjakN/C9hZ7SV9cO1P9ox4jZPwh3IBCYFoJoz1MyMcqJUI6E2Ct7mzF7m02erDd5dKjJrmabtleMYHJGFiyOcj8w6PxNTvVnbu4q/M+DQ82zISiyFZRdKjdXur4jZ/RGPxLWNRPNgnSskVtGL9jriSlQp+08FdQgRef153KV4pfXVhtf2jEDJxkIBM5fgmjPcTKFkY5/VoRcmnF7T6PNrkaLPfU2u5ptvlFvcdx5DGBEyBvBJtvRlgcr8hKQD6uXH11XLn/q/lptpoVbQP3L8oUrmmLfodPrKT48kbZJcwgILe/rBloYOeScvIDxq0UpeMjljOlOvpjkMteTbGsKGA/eGrlAvf5urqfnmxgYODqDbRsIBM4zgmjPITIByVTNAFGiRABYgaZPTN9P1Js8UW+zt9nmuWbMMecxAhFCwcio7CTpTFMAHPhIuDQ2+usS6+PAHpJdzZAHufqX5Qu0I/MtBtYouGmKxfYCxgh4JXbK46j/by/yiIg/4p04a+SYmHhA1Sy3qjmn2La4C6zqhV7NS7xwe2RkKYrJ1vjpaKuJHg9gDBhVWiCfbw8MhBJJgUBgWgmiPYtkIUOZR5aVRKQjk7wfKzhVhrzniXqLJ+ttnmm0ONh2HG07jsUeEcgLlIyMips6TV1pcaAiXK9583Ya/Gr2PtM/45aX5QvazuWWeePebkb2M1V8OqapxV7/R5CPqERfjQcHnwHa2Yc6EoI/0fnlGChVKktj7y9ScTd6kTdblY0CPQr4ke2P9zo6CxYBr/qIen7zzqHGxz5dKXmqoR53IBCYPoJon0UyIR2uICVCPhVpAzRVqTtPXT3PtxxPNZrsqsfsbbY57hxDTql7j5CYx7usnKC041Bd8eByIjZWfcVa+J0dUGOGnLTauRwQXy+Yq7P9T3GTziRZyb7mrPxWS+v/BhwHoHf8GxmkehjL4VK7/GVv7b/HNNfnxfygKK+ySNmNzyKggLeCxXNccX/v4PetMU/e3VXk/mo9OKEFAoFpJYj2DJLNorNeOzKp+doaBKh7pd95hlwyc97TarOr3uYb9ZhjztHynoZCrEoEiVAbM6rgx2QUQQCHIqpLL1pUWb3jaPVrzMxMW7cPDcm67tIdae7uqa4bqwXrVB+y3nx/3dQeAXikn8wTfiLHnx5HTdaXyy9gC5/E+QdjG7/NqPyEgct0pHb2yepwewPGIFbxjznh/RcPtj62rzvf2j7YMOu7i35dV1HvHwoW8kAgMH0E0Z4mtONVFYwknt2RgbwIXpUBp7zgYo7HnsPtmOfaMXubMfuaMQdbMU1VvOqwWTcSGTZ9Z+I/WaEeg6CwOB91vXpBafHHj1ZnrF3WJvfYy00yw5/KoXsrGOf1QVF3F5ivZmLdZfF1N+FF+eFLdl+tJpvAPNPdfShy0R+bvHvYx/JrRtjodaQgWscXfSQYr9r0yj95Yz5w8UBtxzYQBltmfXfRq4cg2IFAYLoJoj1JOtXHkAi0ASIjWIS6dxxznkOtNi+0HQfbjkMtx/PtmH2tmKNxTFvTvJ4qIIpBUpM5w7FJHTWdpwUBGqq6JIq4c0FX/WXl8gAcnrE6mJVKpbdJfHm69cnuQgXEqTzXiPV/lyxfvaBWsySmchqOSU21O7e/DRyDgwZgA11fRNo/5NS834i8cUyYmM+BceiTIvqBrnLjbxYcZGhbeghBsAOBwEwSRHsMYzv9TttoGmWFkJi5RZJ16ZYqB1uOo7HjQKvNgWYi2MfjmEPtmCNtz6Dzw9lETOrllEu3YQQyH/EsWcp0k9m+25ps/+W9Je5c2NVaUpHaTLZn2/tVaihPcUTgDdgY/TBw7/ahttmU+pl1WjimAQ/I9qEhu6Gr6+vWxj/hYalRWe9BDYiiEsPHVeU3e8qN+xcchFSw/fruIkGwA4HATHJeivaojj6dYmYhUjYVZdPhh60iSFrVou49L8SOfS3H4bbj+Vabw+2Y/thT9cqx2NEfO2JNBN1I4lacM0Keky+QTpPJ+6Rk+2qr0lZYYC3ftKiLty3ppiAi+xt+xrKEAerFXwlSnML5eQHr4AAx/zn2jxN0whsPCrjtQ0NmQ1fXN/D+x73l/0XC5bHqc4j8dsHU/ypf5Hgq2EIQ7EAgcJY4Z0W7M+Y5EcURj+1ktpuYs61Jet2YZN3ZqeKB2HsGvedQK2ZPK1mHfq6ZCHQbYTB21L1SdZ6W6nA8dSRQNCdGC3V6ec14CjJGjNFNn5xPEeH6rgLfuqTCjeUCvdYy4ByFmb4ORlbI1O4zNQKx8gjGPIMbNcHmhF+mD799aIj1ldIDzuivqPI2Yn6nWKh/MV+Ezxwc8Qc8BwR7+JbZdIYljGtAtyY/zuRYc7YZd3sAbBvj0jLbB3+eM2wYncS163yds8xb0R47W86EGRJBzoQ5C6eKxKBAS0m8sr2n7ZU2Si1WDsaOY7FjfzPmWOw50G4zkM6Y615pq9LwHpc6mUUIViBvhGLHvaFnON6ZJLMUxJqEj3kP3VZYUyzw6oVlbuwqsCiytH3y97PCdFSYVsHgn+lfPXQsv7t4do47xRnlwYHGP17f2/ufiwr9x/r6EfpHOud5KtiyCcyhtFPrS5YaPMC2CWxkE9jdYCqgfcn356tojWoPklB+BTg0ji9v7Pi5CrkK6LLETyJrk8DMIZtB7gFTBfnmkXt5XO2+efSv5h6w6bVLUzbMPeasaJ8w/NHs9+SHSGREnE0yw7ViMCo01VP3Ss15hryn4ZW212Tm3Ha8ECfrzMdSB7Gqc8QkDl+x+vQ12ZclNXMDZWOQDiex7Phm86lMTPmACG31DMRKQYSlecsVxQLre4q8uKvAgsggCPU0d2dxRtzOph9NEsGAylGg9XCjcVYP/MGBBtf39rpF9B/r6x+dOW6eCbZsGhk+OcAtG/mbvbGXbiPF3qjtKoa8lZPc1hGIMe26uGiwXqzV9sCABVcHSJK1mo1g+0bKuM9lOoU6PtSRi6cEhecrlZ5SFJdp226fjNNPaA+valQkFu/7Ta5eu2GAQTqS+7wLeAKiIOAzgtkIpg/c1o77bQewdiG9vlHqylm3QDQXySna3aoan/fHW3E0dKRarQINwD8DrAZuSfM0zDUBnzXR1lP9nv6QzJAlzaE9Ys7Oi+BIzNJNp9S8o6qJQNe8ZyhOYp+zteXDsWfAeY62HTXv05AsHb4Kmfk8cw4zaV7vgkmcw3SsQM+Rxy6z3zlgyCtt9SzPWa4q5riqnOeGcp6ry0VKJtG4llc8Ou8KqAvZNdLea6/F7tzJWa1VfX1vL4vop68/WbvO3p9Hgp3dKn5bKkxrK5UlJecu95ZVsfEr1nmzGsdyRVcaY5cpPtcRoz5MDKJq+7H+eWmVjgnuCZCjXuyBdd3xk8BTDfAMtrKvzGB63Km1xybwmVDXursXe22/yCIXWOOXNb1ckRe3Qh2LRPxyEaKTtIcasKANL3oAXzr6aIVD4J8UzFFxPH2oVH/yJUcZ6LBeTDHIIUBHduY+8Js2YY98Nr+m0YqucOIuxNsVpq0XY3UJmIvU+PypGtuBUSf7rbgXVlSKh8AcFOOfUWf3xzbeuxu+AbAW2DHQnDPXbtyi3UMyDOk86sn0nELmLZ04aGXe05njV5TGNB+LPU3vGPJK1Sfe1zXnGXCOmlMGnWfIJYLc75TB2DHgks9pRyaPrORTtm9BksFAutBqzIgw0HF+M+HBPRXGrok3vdJUpTcyvKRS4JJinisKea4p51iSi4iAmMSs7zpymcMcuOsmeupJetAFj99DCZi5oPKT8Fh/f/bjqGa7b3BOi/XY20VfSdfyWldrozfR9eL9tbHlGhG9IKe2rAYLiqic+d7InCUMoJFPxtD+ON4+IUYf816+fkul+JUHqo17GZVJds6gm0APVSpLWqqv9sRXG9rXG+EGgyw3aosYjUxH53Gmfs6IvCRrF8HGXqn7SJ9d1C499my3f3K9RE+IG/pvTmJt3z40280x71CA27pL62PPun1367Ve5VqDvyrC9mKS2kHouNXpagAxklj1MI3YuKORmieN6COKfN3Z+Is3L8w9frIvP3isPd79TBtnFO0t6eu9zaJdGGmlR0TzIh6wIqMfcVEZdYMb6fw5+VvDK/2xo+WV487T0ESMj8ZKrMrxtmModQJrOaXmPTVVhmKloT75ribiDiNhWNlDNvy+GV0ZqzMnNx0/zzVxzs5p1DGSmO6TfORKXuCarjzXlgpcWshzeSnHynxEToQ2Huc1sfMwMkiatXMxo2qXTApVBTWXRq3CUmhWCTWqT0VnsjwA1vV0vUZ8fGcdfwNib8oJCzBZxhjBp2s9Y8asZ96PIoIaVYwgS8WyVDC3Y9R5lWfWdZd2iOeLbZV/eq7dPjDoHC1VWqpn+9qNXtLoLb90r/PfLOI2ALdGYnuyUjGexGlzdJNMqD3QpE/tNnCtFa4VLE79gErxflW911n3SeDBka/G4V4+NaPa5ubu7sVW47cKvMx5XmoMVxgxVkRRTVt/Mvdy8mkRVBRKFrkQuNBgXuFU26ZtHzPCV5zKfzxXrX8aqAPsA7l5YU7PtnCPe6a9P3ZGlNKyXKKHde/dkdibtk+WHI0IQ85zqB0Pi8ShtqORmmUPtZJkIrEqdZ8IdM0pMUrTJz97oOo8MSPe2JnoZD1/zhjyJ7Q4pxwRT2MWsRmj09tbNRFol3YgyXkL3Ua4rJTjunKBS4t5VuYtK/MRJTG0UOK0TX3HNueEKVz0OTwtRHKT3IJJo/LWVrxeDTw926c0B5FNYDLz91XQvaCr+AZrzNucd7dYYy6EJIlPR6KeU6UkGPcAqzPpTGKpUhGwVrjciFzujH5LTvV/XZKPPmeN/PUXB1u7LHh38jH0tLdJun2/EaJmb+4GYvtDOL9RRNZYwXiS5yw9ipO1R+frxNoj+Z+QLEn1WGNe41VfY7z5LlX9nLPy5w8O1Hfc1BPpQwPxnDG9zhGGl3QA1i9adKG2Gu8wxK9DdK0VU/bpEqfT4cDdk31/IpMFHTNKk7RGRC4y8lJBXqr4N63qLt6L+r+uVVufXgRDqWCf1YHXeE5KAHTzZvml//uHmw40/ea26lUOTM0rTjUmycFsYoWad8MC1HBJbDAodZ88INkataQmaklNtzbdlRmHOWq+05mkBRKRbqsSp21RACJjWJyzXF6IuLZcZE0pR681LIosZWuIVdO0pxPfvyquYo1teP9o2+pb19y/+6nUKX461x8F0PWV4m3AJ41I7xQ27oyIdaofiwfr37fjxJWa85nhDv+WRYt6aDfuMOh7BNZbkV7tSIt7tslCLL2q956nxMrfNtr6fw+2288Nes+d3tttM2BC3wTD211bLF5sI/lxC5tEuEhEso5+VtpjeEFW2a3IX1mnf9nKtZ+bonAPDzDWdRf/MBL5kUlmUcwSCB3UWNYC+++rn/WiN8MDurULF/bm2s23CrxbRK8XIa86e04S2cTRKcdV+LQx8W8O9be/8ujIn8/KoY1npp1luPTAP/7fQ/07Li7k7uox5lsiI1daIfLJzDAWRGymu0qHAAs9FkYsER0IJ753jjE87EsHK21V2k5pp+ddFuixhm5rWV6IuLwQcUUpz8WFPN1WKBtLwSSi3k6LjEx0GDkLKEDOm91t62tMqAbXCVivqgJvyVVKn6Va/7ONEPUloTnnM5ZUnG7uLb/Ytus/LejrEbMIIFadqey04yLJwJck6bVGrvLK5kJO33BxrvBH7YGejz8o1dpGHZzW67gRom0QX8PSSnf30FsN+hMgNxgBp5rYUWexPTLTrREuA90qkd6eb7Hlpp5o+0MD8Rx/pGecYeG7ubu4wbSbPyHiv8kgXR5I6wDMWhuliqzGyAJU36YuWtvVm3v/rVHt7+99gUHOknCP1zyuAL+295j8Ouzas779K2/YUfmbfvxbEL1NRK8zYlchECfJPOLU8Xt4QjnXXEhnkhGRTgapsUIrFWoH9FjL0pyhO7IszllW53NcXoy4tJhnQWSJ0vhvw0gY2mDMsP/PnDB7j5MVtdoLe3sKz6KykilU+VLAglXRLet6CrsZaH6mc0Z1vpGd+8ZeFrTi0nfh9H8bYY0mM0kvEzcPzgjZ8x+jasBalfWKuyZX6b91qdg/3FPtfhIdnA7zcBZzHt/eW7isHQ/+jIHvMki3RzXWcfmUnbVmcWnSIFF5rUa5KyPVLUr8UTk7Swdzjux+3sSq0rOVF95hVd4ropeoCLEO17efC9dPXDIQVStcrt5/QNvFq9f35N9338DAUc6CcE805EvTg4qBr32pWvs/1/fSm2/nN+SNvErgRo/eFBnpFZJY56yy0xx6YKYVGfOzh+G1+6Y6BKHHWC7KRyyKLMtzllXFiAtyEasKOZbkDDkxwzNxsu/6xPSdjXpm05lsijhV+arCuqnY2SSpEoZBVqDy4VZv4S76m5/taPrzqZOTbeDWVSpXt5z7JTF8G1B0aal2mYPjunQlTF2y1NFj0B9B3S0rKvo+qt3/8YwOZoOMqZiHdUOl+LLYy69Fhjs0STTkJMk5NKcQEFXUJdXrLvHK72+oFIpabf6ZjJzT+XJPm23gbu5m8X498itG5J0CXXP1fs4GxA68QcoKP6ra6n5lV9cvfnZo6OBmMFtnULgnE6ftpQ+BqgD+sX6OQetTwH/dUVx4gYsat7TQa61yo1ezLhK9MBOzMWcxlcixs8ZYT+7OnzNHCJ86j8UoRSMsjSzL8paVuRzL8pbFkWVFPmJFLmJZ3iIiqFdUEu91TWfj2fp01nvNuZ5mcjgrfM4rd03H6XjwFlZ7b/5yb0/ptzZK/h/6+vuPd3zkfOjs9Paurle3Jf5NQdamEQZe5v7YTgDrkpkT1ujNXvXPVlbiS58Z5I8YscRM9PopwIZK6VsV+V2LXubB+2R2bWf7pM/QHpIOZBag/NaGnpJsHnjvn29laxb8ca7fywL4O3oLl7a9/J6KfEvSJuqZ+/ez8aCiRAa5q2q9uZnun9nK4AvM4Ix7qm3SOToedXO9qpvFNS1eK+g1KnKTqtyByOWRqD1JbWjVtPziNB3XpBqg0y7VGa+taR62bIUw8/DOGbiokGNplAjzRcUciyJDT2RZFBmWRhGVyCSeX5r0qj4V+c59nO2TPkuOaJB4NevThcJlubzcC7KsY1wyFbxNHpi6F/7HOP271lDj33dAZ8WyuZjYYyoMd+DrugvvMNhfNXCRG3F6neP92wkoyXW0CnU8v9tVqf/mZw4yxCTE6rbe0replz8Q0VVpIMqcWB6YAM6Cdeghr/Ku11ff+29b2Tree3i+OqIJoK/qLVxW9/JhQV7pRrrFOTW7PgOeEaPob+QH67+S+mnMSNtN5019yrWYG5Yv7yo1q5fjdJVofCOYV4hwvcF0e7SUJjwj8wzUkXXKrCGmdJyjRLFjZODT/WXCnP2cebNnoWxeoTcyXFDIsdAaVuUjluciFkSGBZGhyxq6rKXXCjkR4tRjN13fP2nA52z2JmdbtPeuosRA6c9E+R6dnmzkkI53rID3ehz4Asjf1Gz+M4+MzLyzUKj5nkJSSJKC2P3dxR9H+RWM9M62Y840oQIiqPeYv4hM7ee+2M+xCbQL63pLb7Ze/1BELuxY/5yPxFaIHNxLM/f21zV/Ytc4hXs+irYAektv4dLIy18Y5JUx83KwleENGFWtYfj+/EDj7/tmaOIwK41zxxJW+lp5WcuYy4y6m1S4NSey2uMXgCywiQdXMivNcoqMhB53RkuNOolOUc7SvPhUQNNtDcdAqyYx3xFJytTccAEQw5LIcmE+EeUL8zmW5gy9kaVkDXlJcpAXjSGXeKRma/fEqnNGmE/HWRRtAFm/CtX+8usF/VcgxzQ/mFkcf+z1mIg87lU+qk7/84F6fV/2mY0QvfwkqzRbZ6SFp7f9AK6BXKW7+OORymYxdE2yU56zZJEmXvkLjdlyX72+n9PPVAzgN3SXvxn8nxqRVedAm6iC5sB45XePV+u/sHMkl/npzm6+ibYAensvC2Nf/AeLvHa+j6pTUmsJO6OWf6NtNnf3zcBs+2zmHh/upL9whANQOwA8sukaPnngaKW3VWWpUX+dWr9eVG4AWaLocoOsiERyMrz+Syq5gknWPpJsYZk4+8Qu4dPCH0Wb1LEuGENBhIJJ/hWNsCSKWJpPTNlLchFLrGVJ3hKRem+LkBchn4ZqxamZPKn85anBCeb1uSrUs4gAGke1e6O4+KlI5M2pE/20rTWmFhM1RhaKcjuiL8HqXeu68n/vNPqC1gq7q9D/CeAyjmVFADygG4G+2W6h07ed2Qz6X92lH7HKL6uce4INSTiPEbzBvNNZ/9D6UunPLqrXzSmiAwTwN5fLL0Z1qzWyKp4Bq4OOttCojE6e0pkTabo8mwVQD15F3tZTqfzH0mq17/A51K2khkxes5yuwXrxtwzyWjd91rdRuxqzCqkk+1Ydk9l6Gi0zNk5m3NfExtz1RfgVRqwH0/bUnk3RzlLXyBYwO0GuAWEn8TVUDwOHgZ0Dq/iPp45XuoYKrcXtpr26pdzkRC9z3i2Jjax0Ti9AzCJPUse6bAwlI+SNoWSTMpklayins+JFkWVBx7/FUZK0pNsaREcXI0nKeaa13TSZnceqtHxiPpcOt84g0OPGv24f5hML6SeWv3KWV4nQNY1m8gxxqeuBgS4RWW+wLxXDPu1ufA7R/841cl8+QPeTALcDr2oNmq2gq0H3zHYrneR8ANkM7u7u4ndb5ZcRuv0UwuYmwEnTj8iol+nfpyjW4+6JxH8utpZtyZLAqHKhmWfu+kWlC4n9+wR5aawnFPOY/EGka+1CEmI4HL1xks37dBCfDhod0yAAAsaBy8FFMf7NK+GhIRiqTWWjc4dhsRyodf2g4L5Xmb5rR4dQG7A2jboV5IQdJOY2za6dT32qpjz4ytKOqNV3bKhU/nZ7tfr16W7EmRbtsQ2QjVZPPerYRx2qdaocAZ4APv5na9eW24eee+kzGr8Eda9ueX99JGZRwUpvr7X02ES4u62h2xp6c5Zea6gYM5yhUETSYZ52mM6zBy/J3NYimamPXfue6y6Mc52tAMcwa1nw37br6L9GYt7eMYuZttbNVkY0ma2oEfJJEgsuQ+U72oX4YVH5FNY9cGRp8wt/B82Nu+Bhkswv/bPdUKNOBTaD/1RP+c5I/fsRFs7QjKSTzBlUTmYG6Zh2TvfAQSMwMfqoE/kZ1Dx5X7Uu6yslv61ap0O4ZSvoNdeQ93v9j+bEvsGrTts6aCrUYkSsTzr03U7Za0SPe9XnUerpx1TUFL3oBcAyRS+2xlyQ5VWY6pQqCW9UBXlLoVj8x0WNxvY2HTU/5ykbk3lRvK67fKfgf8kghWkchKoBMWnn7rwe9bBLhMPi9TBwTJP9eyCnoktAFqtykSBX5UxWjnnKGAU1Ihd4jb8V+E3mmXn8hIM9sOGyZa1q3G7afGQjc4lV8i1pRTk1F3hM2YsrqsqFkZD3KiVrpNtqfyFaWVkoaEGSh8R6hAhJO5LRCZWHPb07f/cjHuCa/XHM4vg5FGY118jEpkZB3+/arI3gOsf0msk7kDSuW1HVtHZMVwS3qeFWdbJ/ycHSF53w+aGifmJFo7H3eZL0sc30+8zyEttm0P+sVK6JNP51g6yMSeKNp3EXmblw2FEERGLvWyocVjV7kWFfEkQpIP4iQZZHIqKMjoLoaK+JPkHeJrPLhxX5Iav60PbBhmzoLur2wTrrKyXGCLeWdqJStk84q89HsDKe/LUabgMr4BQfw8OR13uc4UlR+7W6be9VmsfzA1R3dJjq14JtQaWyuLLctP3FHr0K5Q5V/RYrkp9ixh/jwOeMrtJIXlyJou3VOGaA+R0O0ZdZWy3PmZgdKrw6i99ncsKtJEINijhlj6KfNsjjKrLbq/2G89VDB6sM7Use7ey5NtdAsVJigY26L/bOXeWMv1FV3hQZLo2n4ckXQUTkjRvZ+Dt99E1r5sYzNlT60Oqff/Pa8lUD7rblQ9VevLayfCBGfYxSMEYuN8YXrEjsQXDWY1gsyjJBrU9KqHSp6iIVcSAGdLkgkaIGWIxSEKNRxdhcVqJzOMQqlWbns8pXoyryDF/Bsa9jTzBo8ll3RBtmE9g9i/LOtHmjqPmoEVlwFmaP0NGpSyZUSeawIRX9qioPWMu23PHG9i9C3NHhzkbYmGwG/Z/e3oVt3/qjSPgup8RM0wBbUy9XSC94svpznygPWS+PxzZ+nrYZMJE/4gXn0wc11yTXMH5pFOUWWZGFTv0NKrzMINcaIe9HlHsiM980dE8f9sgPGbh/+2Bd1ncX9b7BBhu6i2wfbLC+UuK+MTNuBW7uKrwqEn4tMmZdnJnUxv+IewFjAaf0e/i4xPopH/mvPlBtPcE4M+3d2lNO6tQrtIkW57T5ck/0k8borVPx7k8d0sTj/6mpuXcfrNWOvOD9cNL9McwnRzS5ZUFZS8drK5pdpfcby3ej6QB7/G2ViDWggvdev4LIRyXmvn31+mOkVbjGw4XlMjby3DvQsBtKpZcS6V2K3CWQn8JgIs1mqUfzRl7/hYH6A0zjROCMB7Q57bi+/eYXLYb2h7qRV3loqGYdraomsZaLJHnN1q4pGSOlNB3nsNB2DMuzSi1JkpLRCUuyz5zuqk3oRALDzJZop8gti/KKk3cab37fQMVxVsN0hmeEmXhrElmwR7zscKJ/b0zus8BRgPsGBmRzYpY9W+ItAOsrpXeJ6J/CcI3rqd7iyVpf8jh6VZ4B/km8v1ud7O6/7LIDJCtE46JnYKCk/YdWeZHLI3ilevMtInKJiOa9DuddON01jS1ETvVhlVML9pm4Kdd1Xb7k3o/K6zuTzJyhHTDJ9a97/N2mxZ8eaza3c5Ja7TvP3O46RrhRuCrC/bpB3+KnMChNenk9qM68YX+jsWOf95kj1ck+CvNDtCEVbuOjRUrr3aLySybJ6HdGa1I26BTAKU+I8X+iTf4DeOZkn7+/2Tzt9VsF2iHc3LmGwguHCndZlV82yMrJmu/ThGJtRX/hgcHG7zCNoj3uetr9tqovtHM9lVxuYc37YaesrFPpMCkM/6WpSj32E7Kbjbd1gkjPW/SBoy1uWZT/S48gXn83gt44KSx8Nhwjh2+dbICYiDerMbraqr5SfPvLDv8PWD6zvqfnma0DA5rmRj4bkSl624LcjT7mvYLINA1ofGJhEKOqez3+b1X1b1219RTpUmlp584JbbCdzGaeAp5aBZ/dn+/+S19ovwnP243ItaSZvk7RCTsLUYw+Zoy8S5QHJyPYAA+1h756hy3+YBzxG0b4diA6lXCnAwkMiFd2G+Q387a5jSLHlxZPvv2NZ7jeff1w70AtmXGL8uDAoNzc3f2EjQo/6dr1ohF5w2SFWwEjZrlaVk70u3McfeB4jVsWlI++/njjNz7dUzqmXt8XiSw6Qz/gIrCK9qvyUVrRnyr2awD3t6qnEsXTXr99ALUaF5bLAHL3Lpp3rmn+6fGDxYrC+wRykxk0p9lhcqpy43Q33rhF+9udlzzSrHul7k9aKkdO9kbwsg6cjAeOtuSWRfyl95EX1c2RsDpd4z7rhQFSXwdVUCuyQOCVBnOrOn3Y0fzr23sLn97W39y9Kfn4jBYpWb+KUvu4/fG8cFl85tnquE4v3Yb3+H9H+e37q83ta8HvGP14TmYwIoDsgDatwSdo8Tu35vP/rkXzgwrfHSFLx4b3KfgIrCp7rdefVisPbh+sG2DCgp0dwxcajb239/a+x9Pah+dHbGK9GTVgSGdoYhInr39pW/PrFWpfBujrn/wyyMbe0cK9vqekhYHBqNbd/Wyk9vcUt1ZEVozDAnBSDIpPiu2cczxwvMYDoJsH6h+8u5R/3lj7W1ZY40+yxNJx3+xy6rYWh9r/1MhXGqlYpx+ZHJlwryuX9eJazW7bhW7sbXy44YuvzYm8Op5kiKoRiNVfNt3tNtGbSDqEWMb8Y+y/QOA06ANHW0Zz8Ufa6Pd6+KJJ/QB1dvxtJA230WR2K0Ursj4S8/vOm4+uq5TfdaC3dyEzN7CQ9atA+osvMSJvc9MTCpM44akOKvx2QRvff1+18SVAdySd0JhswhPfPiPWBwNwb6v1xPUDjZ9VkXer0y/bkWuqpF7iquxVZ39Mrfn0qsF65tGrkxDs7Bjki/39x3L99S0q/LxHDyczsuH7SFNzeFvRD+ad+ZEKtS/39WP6+ofr/EyKvv5EuCERboPwcvAPDg7KEHzVC19Mk/9MyjzqFWJxF+/zL8lN4TrNabaCubPe+hdF71JluyR613lfutT34bG26PcWh9p/2wfN+1vV6agOByTCvb9W49ly2W0C6evnuCCfckp70gPnxM2xez0sYpJm9pMxX9P9Bc4N9IGjLSN5/3nb8m936Id8YgLLHsazThaW61BNhbNg4DYj+nvON//y2d7SWzaNdMDTJdyyfhU6sI+8R3/YQJdOwwzbgqjygqI/uWB5fXNfEkaZzRim21rgIXE2/HOI7++v/7MT/90O/RdJynJKejx7DfwYkfv49sGR5CmTFOzhcwVMHzReN1D/IN79qFd9Kpeu36cXKfaG91fLjfeSqz1PPxHTtNwxVri3ptt8dGjoiChfTfysJnevCGDUXHJj766u9ETPtfmQAroT7GuqjS/EEr3DI/9qZCRJngHr0UcReWd5sLG9b8RCPK2D+0y4r8nkVnWHqh4UJj+wE5V8oVBYNJ3HGUQ7MJsoiXDbVpfu1lzjZyP0nYp+1UqH28QsCHgm3j6deQNdFnmzeD74bHfxTzZUKi/qOK6pdqQysA8qleI6UflmnfrswSfrtnrUif7kghXNv7h7F01Sp9YZbE/tWDow91dbX2s786Oq+tFckidhrzp+zAkf3z444uA0RcEePmfSOO7XDbU/pvB9Dr4UJR7iosIftNfUf3Vhg6G+fmxfkjhx2ugU7pQ0K+vU9nNOTq1PcprbwG0F802Dg09KTt/jVf8YwIJR9NFY5PvzA/UHSQR7xu7hfSR5JTaDtq3uQ2RApvB0qwz3H9NGEO3AbKOAe+BoSyA/0M41Ptr27juc6p8oNNLCLVkHOGviraAxYGCZFflBL+5jt/YU3nMN5BmZdU/m8RZArwVrDXcZkV6dwgpT5rWt0HSqmxctb3z07l3A2Q1fy8zmNm/cgUYkm53Kryr2J4j4+PbBevaZyZrET7dftoK8rtr4kvP2XQ7+2ysfrdjir1V20U7Xr2fEJ+Fkwj0NAzAAjYw5H/TbbwV53dH6fu1d8l5V3ezRHSbO/WDXQP3BlyfWlJgZ7gc2k9xDkZOVKN06x1o+iHZgrqAPHG0BeaTQfvyqweU/LbhNDv5LoGpETBKOklQ5nYXjExipCheJXK8qv91TKf3Zuu7uK5j8rFs2gT5XLF4ontvSxH2TPj8DXoTYKX9ydOVFH04Fe0rrtlPANSKh7OyeCwaHflXF/XMq2MC0zbDHooBuBV5fre7UmHc0sT/V9sf6p7p+PR76krR6SdheDwsNch2qdprC9s4HdCvwun376u1q4zes0bdF9cH7+s5i2OU9ab5/kOsRls61a3c2c48HAmckEW54gD0NBvnEui4ebJrc6/IavUPQtZGYnrRiW8xIga+zjlPFIAUR3uHVXbeuu/wr9w/W/pOR45nQ+Nzl5U3G64VeT0jUNxFUwHrhM/U8H9i1a1cry9U9G20E8JXjw6LsGByd82IGBHsUWwGSamHD7XMWTlk2QbS3h5a6wg1G9I6O8V6YJI2T1ETdpr+5G+DlM3Ttto75fSNEy0DvgaKi3xSJFOdaudcg2oG5jLl/iIPQ/ugd5fZnWhTutFa/E2VtzshCn1R4mzXxTpXQW+EmDx9cVy78RlxrfmRHYg1AztzRGMAfggjVV4iRspt8B5EkxlBe8I4PPtZf37cJ7NYZDE+bJ0w5JGi8+0lrt+veHlpQWCMi7xWRVb7Duz4wflJBPRsphQWQtWCXQfsQ0KwUf8qIvHou1qwPoh2Yy2Ret+YLNQ5A8yMbuvikUHyt87xexd+RE3uRJuKt6dN1th8w41BvhEuMkd/Nl4sLtdZ4/5YJiMVQb+/Fede8lKmtf4oIOM+/mqH6f3UkgznfmakOXzpedVPqTLW+B2xcfn1s+Ukr+urZ8MM4x5iJ9htbcsKvBb0M/N6lPWtMo32XKO8GSjpSRGfOEEQ7MNdRRmKjdfsQh6Dxt2tX8i/5ga71sfjXi/F3GMw6ywleKmdrlGyc4oxIRQ1bbi0XubfW+C1IHFo4Q8djtXmzwmqmUNoxKXihB701/3QJ1LeNxGEHxs9EZuXDJQ42Ac/2Fi65NY5uU9U71PpvjUSWuzk4SzuHmcy1A9CNUKl1da17Vtx6aTbvFMztJDmd5+T1C6IdmC9ks0YD6I4D1GDos8A9N3Xnr4hUbkf01ap6pzWyIC2sKzry3RnN+ZPm3fciFNXKr26oFHV7tfH+raf9SpoH28nVYljkp5JQJfHX/uKxodo9DybbON/N4qdi1AyZMR34mb6sILd2dS1tG7cmEnupeHfpXuRyiVnjjX+JFelSFYJgzxidz3GnJWlcA9Q7Fy3qOR4PLRNvrnNer0C4pClcbMRfHyGrdbhy5Ny9fkG0A/ON7EHNOl3/0GDriZu6eSLqLf6rVFvX0dJbvfBt1sg1CmWSEChSz/NJz2bHQVJLF/IefuH27vzXGGz9B6eebSfvGVaZpKqdA3IT3WlSPEGHEPnvXSMlCAMjyKakHGMWigYd12Mn2EGI6kvJVSOKZiC3PDLa601uBd73iNjVeL9IRVbeqroAfCVSWYK6pRjpjRgpVZoWO5qzHf48REiun3Tk/u98lsxasO3l5HMtooIrLPGx75VcdLF4rSiscMhio7pMYGl/u96DSo9HLzSGxdYYK9m1Y3jLc/r6BdEOzFdGieBDgy1ugqNRb/Hzvtr6fF31H7ra5hoV/yYReYXAhUbo0qQc5UyKt3jAivQ67K/d1J1/8qHB1hOcIk76xSsqS7XqLkIUhUnlcTACDvbGuM+dlZafH8imkevrALcTOASR6+3trjeb3QXjFnljblIxlxr1q2iYi3LoQrHSpZ68eMqoyYPvNiLGpAmbE9VIVjuT7CknjMfmbIc/jzAbk+sXA3oI2AiwlEqzWuptWNdbxF6lRq9FuTBfl9WgixTpxpqierpVJYdo2UDeGsGkxa00rezXWVFyDHP6+gXRDpwzPDTYgsGWAGxYUHxmKOeeuai86J6D1RdWWbGvxPM2K3qVRS5AhFh1xjzPXZJG9Aav9mfXsvYHL2OH33aSGXeu7i8EXeGTEjwT7iwS6RBB2f+Gauuph4bfPm8Z9uLOsrO9euHC3qH20EpnoovFc7OJmy/N5+QKwS4EWSBQFjHGiKDZJTCpMAOpyVSzDr7jIs3pzn0+shnMzmRW7frS5aINC4oX0+BCjczV2vTrJdIXl7DLRLWiXrpFyAnJfwpp2MbItQPUpYOrc+HaBdEOnGsowPbjDQHkkf4DNeBJ4Mn1PT0fq8VDtxRs/tvE68bIyJWp5/kZ6/hO8kDUCG/Qnq+9kgEyj+5Ra80Su0UitofRHcq4MSCxeq/Ilwne4oYOsd5QLr8ktu7GwbhxG9j11uuFIlQQyUla4kiS1Uv14DtmXWNHUMIkrSCBcSMkOQUcwE3F4kUmr1fj7Xrv3CttzrwI6BaVskh65UaqC3kdPWOWsdcu++FcIIh24FwlW/uSzUk2Je4bGDgK3L2aZfesKB26UfD/y4u+JSdmlZv+2BzxyWx7map+z25WfmEHB+qMnW1bWa6qWdalic74VUCcypBE+uhsNfQcwZCE7uRsd/611sutGH1zhLkMoZD02sNmUa9JLy8d4TzmXOnU5yHZ0pHb0Ft+Cd6/0iOvMXCTiC4kSYYIKKp4n61NjIjzeXXtgmgHznV064hjidkMwJ4Gde7/BHxZKsV/VfXvFJG3WaSQToOnzRHFAyL6qnzX0Q0M8T8bIeosVqFKniR/+cRPjKTXsmjNt3XfLLbxXEDXd5feiOfbQO80VlakddKHa6Wr6nAu+fOpk58H+Nu6uq51+O/x3r/RiLkqUrVeJat175Vw7TKCaAfOF4ZzUjNiMmuvrTb6Bpeyo7uW+6QzuZ+JRNc6HS70MOX+QcFbZIUTvRP4bF9i/hvebuIXhzOQm0JRa+esGZrl9j3bDFssburqus4a/78FfYMxskKRrLpMZwjded/ZzyGGr93alZTzteIPO+/fYYVrE+c+xXVYygjXbhQhtd55SiYQxvnz8R7IQn9kB1A6THWw3P5H0fi7nboPKTSnUkO3A8l2psgr1nXn15Ak4xhuc4tZHiHFNJf65Gouq7jImZlN5D23MCTtaNd3F9+eN+4fLbxTkBWOJCmGjqQOndH4/MCEGb4Wa8vll+arxb9Rz29Y4VqXhF1px4DZEK7dCZyPHfZ5T/pEeGPEWnx7to9nlpuCHcDOw0h/qfX13sHW/1axPwH+gJmmcpaqYOBFxsllAIc6E6uglUhGjmXiCGoYaoscGH7j3EYAf2Nv74JnK8WfN8gfGpFrOgOwmSNCrYkV5Xx3DuwkC8PTWyqlTXnr/8Yg32aQyI3c/XPi2jE6pn9OEUT7PENBragvGDHO6yOPH8/vV0XGUdziXEd3HkbuhtbCgeqfCvJehx5Kw8Gm0jaSZEqTLm/kxZvB3DOSlhVVraXr6JPsqBTx5Ctd7cpsN+BZQABdWyxeXHStP7DIZoSedpp3fq6QinVswdjQx2YIaSjXhkrprRb9PSNyjQOdY8qoCk4EMTI3r92cPKjAzOAUtaC9UZSrOv/FgYb/LaDJlrNSSWc+oIDcDbZnsPG3ivlpVR2Qkb9NhmETuQi3/E9vby+gm9M/euFgrNo2U8gVrqLFRsMu7jiHc5FEsBfSG+XklyPhe1WQtCranJiZdYp1TiTyqk949GER8VO8h+Y7w2lHb6mUvlXRDxiRVbGO9u+YRbJr5wTICxal5dFPKnpgri2oB9E+D8gWiBbmjERGTL+L/7G/pT9krXn09bt2iWydm2agWcID/m6wDwzW/tajH5HRoUGTIQkpFbMytq0ywM6RIss+S6860Y0KSW8jiFFnyrPdcDNIJtjk4+L3W9Hv9uD8zKakndDBGZCcYCKRyKt/1qn/UNvJ29XxDxLywAPozT2lmwz6u0ZkVczM5EaYKKktXiIweRHrVYc8+u/q5Ed8bH5RkEPpgzln+sjgPX4Okg3n085Ei0ZERVttR1/D8y+ykL8vov2X/ffu2TaLz9UZfua5qiL6J075NitcNAXvbkHAqL+IVtQ9ugE0EiSaSjsolIyJV852o80gunYh5FqFV4uVnxOk6NDJ1h0/5T7G/C5jfzjhNU3Z4VS9R7+mXr4CPB4j22uDje0tpLWoUnglc0CcZhEB9NbFi7t9q/ZrkchlMyTYndfvlNdu+Of05vEqxLgjHvOIFX1AkAfjorkXONhuudUFJxOuBTDTBNE+R8hiUkUgEjAkCzJt9bqj2pKnm83/WZA37wb2UIPv+trzsyqYm5PsR3Nm9HoSPCD3D7Z2rasUP67IeySb2E6crJ9Y3PK+1PkH5+zzkeWQoBd4JmzqzaqY9XiVG4CPzXajzQRrFwJNVmLMjxtY0ladrk5fsywdpGFFoxo/+cULEquqenQAeEGR5ww8r8peFX1W1B0wXp+Oa927QQYcHoewi7rcMokCMOcYeuvixbhW4weM8DqneKZJsDMnP0mu3YkZ65KCXd6oOJdkMj0s6Ase87Sqf87As+rNsyJyUCJ9RmGPRCCt1DDiNTcXE+EF0Z7HKIltVUiEOm8Fj9BWzwttx8NDdR6qNuQb9ZiDbXed8/5XS2J/D3jkD8vlpL+v1c72YRuSeGk/NtHIHCQp2RTJ/4jjPVMZ4aRTd4mM7xnVGFaPAQMCF0xyu2pB8HrdbDfWTJAKNjlT+BYj3JmuI0y101dNBkg2kmTg45NUtoOgdaf6jGB2KTztxB/Me7Pfo8djF9cKRmpNZwd68/mhT7/udf0ITrzDeMXVugGBu/86C1dywcETGdLaBQX0PaKCn6bcBwJqBSskfSAwhFDzqvu9yhPW6AGv/mnEHHLeP49IrN4NSiy1XD46XllxwQBJRbwTuHvXLgu4tT2FOXntgmjPMzyQZHYSIgNdqZfEkFcOtWP2NGIeqjb46lCLw+2YQe9FgLKRi4w13+u8Xwfyc9ur9X9jemKRx02nSN+4MHdtvZ17622x/8iXGo19Z/M4JopR2ZvWHJiUOTZzQhLEquqFANuyzjxmHxEHRHjRcJWDSexAhIs+3dW1jKGhQ7PdXtNKEyq9lSWNwfgNRojiKXajaYdPhFiPelH2OWGfQp/ivoTP7RHvj1WKxWr72LEhOgaVhfQ1ok2z0WDjtqQEjKQ3hiMR7b7hXZ33yI2LSlpsyfcZ4ZK0QabkG6LgrBBJkuLusMKzir9PMffFbXky9nqoVGgMaA91gfqog0lfY1ocb+w67X5mu+FORxDteUAi1ImhJi9C0RpUod95DrTbPN927Kw1eaTa4Lm2o+k9LU1m3+VU1D2oV9SKXOVVP7ihXI6BT2yv1c6GmTyrvBSvhV7bXX5LFPv/jeg1PqdyG8UtX2o0piUmekZouAGflwOCrJpKprR0tj1K+Kv1+qGeSumgiCBJ9MtEZ5GiCh65FOteCfxjx+7mNZvB3NNb8a1qa50R+zI3DYJtBZMmH38Y5T/bBf6Npnnm4qHVx4DW8IfrsI1jki7jdGxi7CZHsoAEb7MTWXm0XjjeVf4mM3VvPAU0J0RedV+Mfl7U/FMc60PRktYRgXqO0WsR9+0b9ayd9NrNR4Joz0Gyu8krWIGSCAUrOJTnm45D7Zj97ZhvNNp8tdrkQOxwXonTFde8CBVDlsoxQwCJwUUiK53xW5ql/Nep8Y0ZXl82m8BvA7euWLndRO7doG8CqQCqmO+TyH7stmJx56sbjTm5zq0QgxwXWDWV7Qjg3PD5ZeLfEuOf16R/MUxiUOCByLCw7eS1wD/MdntNE7IFVA5U5Zae4to80hNPLRrbGzBe9RAqf+PE/Xm52trNUDKTPsROloG9ZiTVrQLMxftxPpDOMbRaKa5H9NIpKmTmdOjbXj/pVT/ge5rb5VixBhAfKfKGRiMr6Zk5kcIUr50IOmnr1wwSRHuOkaxPCzmBghiq6nmm0WZfM+bZZotnmjFPN9ocjmNiD4IiIliEopXhpNmnmpUIWJck+3hp1Gh/z2bYvHUkC9G036CbwB/oZeEtrvhDgnunMXJ5mlvYCYiFi2Nxv7ygseodW9nVmqnjmNI1KRCJ0jXV7ShgzfBkIEuzqd6bJ71QN1CadLExBURvv7W3/OJ7+2sPZ53mbLfdFBABv7FcXtFAb0lrL07WtKqJYMvTxujPHx+s/+vSdFa9LCmXmnX0YbI8Tbw8sRjFbZVXiLB0CurpDRiFQfX+D5uS+wPbUz0sx4o8lFjnAPShGRhcWZ+3EMtce4qCaJ8lThZPkmXCF8AiRAIO4WA7Zk+jzZ5Gi/2xY2+jzXPNmGOxx0jyWSOQM4lYZyqn4+zxk6xoGKO8/BMs7IVj/Uw981fnqSnAJuDp7tIbI6c/ZI3cKWBc0vlq6kykPvn5Lccrz/3PndU1f9HNrhNqTs8m63sKWBsVXOwvlpHzmxCpOkuyLq4Hs3baDGwDjJf7EH1WLFf5JFnIhB2tHGCNrPFOv+vW3vLD0l8zWbKI+cimZNaEs7raKDfoyH010VNSScqk7jGYnwD/bwB9I/f7jNxrm4F0xn5eztSXDfclcq1FrZvktTNgVGl78R8oDjXfV6AZ91Wx0JixNKPZtTOqK1W0W+dYOe4g2jOAdr7qSAYIKyN58TpjqQ+3HbuaLZ6utznQijkcO460HUfaMQ2vWEkEvWSlIzHvSMLqyQf46sJKobaUJv0dncxkyQ7NA6zrzl/xrJp3R+h3RcYsc6r4kQd3OHzSg7eQA/3FY937H2Nwzf0b2TUnvMrX9xS4b6ApGyp6hRFrp6Hyl3PY5wHSGt96DbCqtujr+ytH9gpyFZO/nGoUcei3oO1/vLW3/NDb+mt2Pgs3QAOWFZBeP9lkcSBGJHbefxD4t3sHGpY0gc4MH7pfDyXBLFFU5thkbaYRwN2yaFEPrfqkoiJSknrx8Nmeweb7WxD3nQX3ga3Dz7hbpkqXzrEHKIj2FBkWTQVP6tUtDAttdoe1PbTU0/ZwpB3zTCNmT6vNM402x5xjIPb0O0/deQTBmnRt2spJ9zkVUodXFuei7jsWFC/o29fcNUXBHm6KWxcv7qY99Cav/LgVuVmBjrXIk4RSYhz4yHCJevmDI717v3NJ/5rdsCtiFoU7FWw2btxoW1++/7VTGhwNtw6NSNqjzmknyLVQj0Xut8orphLO5AAjcoXzuffUq90/vI1aTRLTop/lfqdz+WVCzZhTv1LFTqreeLZjr/po1Io+4fOweaS++kyfr7aLxaUR/mqrMm2lXucJAqhvNi+2Rnt1kn6bad9QU9H/BwyR6NWM9wmbSC1g6BWI9Ex6yWqGCKI9AYbTZCmkRdmJRBKBNpATg1doqKfmPXWnDHnPwVbM/lbM7mab/Y02A87TUKXuPHUPiJJLxb5izaj9TTcGaHhYlDO8bmFXc8Oi7kH2HWEaZtrcVCrd7JqNH7HIJmsoOx1fRyUkOaSt6Dp15lf39x5+z539a47dza5Z8SjPBBswjYceWozIa62kmc0mgWQrziL7JLKD0M7aWjeD2QlqYv6dSN9ukFU+OeeJhpdlWU2xwltKleP331Bd/sGFHLQyOonIbNAp1uO6ptekn/eiJTt5sRMRiFV3tBZ3P1MYHOQsCDab0uM1EZdY4bqOvOPnhWhn5x+JW6wqlcmedWq2O+LJ3Q8N7pmBGfZJDk2uAX0X5B4TebEVbFvnRsrVjCDap2CsQBsgZ0z6KuQMoEK/8/THnoY6jsfK8djxfDsR6WfqLQ63PU1VnCrt9B+MiH1PBKoysr8ZPCcrQsN7HOgre8u8fkGluSzPAMAWpiTasqGr8MMYfgrxl6JCrBNKMymamMG8NfyvLtdqHS/t/+U762v2r2PXWfUo7xTsdV1dXsS9XUQuneoBpNaYvTaOap1vbSUZ2VOvP+a7izutsIpJTk3SdvRp+P7PFXqO7z42sPxuEuH2syDcBtA715DvP1B8c9vFzz7UiO/lzM6GAvi1a8mxyy5X1WjyD4Zg8Icc1F5TrZp7z8K9tA38pmvIm2d5mcJyTauzzivFLpWgXp/SJrxVK04mnWpWEpPgoA4O7v7MWUpNlpYOdV8rlW5SWJcmr5pTl+68F209yc9WIIdggcgKORFaXjnmHEPOczR2DMaeQafsbbU50o45GnuebbapOo8RwamOSi2aOJoJBZP4v2ROY1ONPR0PqYmQAedZmo947YIy37m0hwg44vx05G+23pj/lRMujRXnUTPRvNBpL25UUWN4h0cXH608+/P3V9fs5CzNuDPB3gT22a4uZ1Vf7IUfT03Mk50pqZD2OJ6d9aHq8TF/99vYZ9ZDXTF/p95vFJHCFPZnYvAWc5FVfqfQ88KRGwaWP/QoB2WynlyTJHP00hcOFN5VMPI+JP/1W7vN2+8dbD3BOKIElu5YVDreXV8C2Mkn5lC8MdGOdx0wO7YOn/4MPnUDBvDPf6NwocnLm0UkcskAdk51/KduLVAl8o3GEgP7p9JeUepoOuljSa5W3lFZANXDTJ+z7KmQ1MJj2hFvtiKrnapjDs2y4RwX7U5nr5OROIelDmKpsAow4DyH4pgB5znYjhmIlRdiz+F2m0HnOdROHMXqzieeEh3bzGyUUep0Jultlh2Lm4XKv1WnFI1wW2+R1/RWuKlSpNsIA27adNAZb/7EGX8TkJ/0NJER64YReRNqlh/rfu5X7xxc86m72TX2Y9PKCYIdx5e7iD8wYi7wU9e6JOITfRhobznRRKwAvYNy90A3T1m4brKm+LSBTJrH/Fqj0Z+Ueo//7A39y+95lIOTdsGe2O6BJE1tsdlT/Emj/LQKvYKu89g/vbU7/+7xCrdOcYalyUjw8o2/W1nUR/XIzJ76YHY+No54B8gNfmIWp7mBSFGMXo7jkdk+FK/aUyrKFTQ4fDbOHPD/VSneBvr2tKue0v0ioDmRaTXrzzvRPlVaG+n4B1ktxczbWkd+Tp8gEWEg9hyJHc+3HUdjx7GW40js6I89g95RdX7495bqsKibtCCHlWQ7w+FbY44pE6CzQeed5dL9tlTJibChp8iGnjJruwosyVlaTmlOn6FUNnR1ab489B/NevFLRuSV6ZrslLTbg1qRdbHoR4527//wza78xw/Was93NG/nqHvKvnmpYOuzXV0utvHlIuaDRniZTm59uRMVMN6zx3l5CkbKcnZ+5j4QGDp8uxb+yAl/lvoKTuUimSS0T25xTj5cqQz93A3V5f+cCTfTP/gZ5Wh2c3f3lU2Nf8ko346Qj9O61wZeoWo/tKGSf/f2auvrnGaNu776aEteKPSLMR7FTOJgkzZUuTkWtwY4kmbmm/a1UdfRnut6S9+K0x8FnVL1ts7NWzmzA/pGMM0pDi7T8MSys/oKnPxL9v5kzkNHd8kTPpbkwZMlPmrfAdy7cZz+EBOhb+T8EsFeVLqQNu8zsNJNsRpZ2mClRl6W0WDPZNtxLHNKtE9mqu6cpWY21xHxHRHRbO05Ww706RcdyuHY80I75ljsOB57Dqci3e88Te8ZcJ4h56k5peZ9GkScmMetZMlO5MTybh1hV8k+zz4mPQyn0FYdXjzrtYYbu0qs7S5wfbnI8pylrUrD65QU9WSXbfvQkGygq4rV33aqGwxMxbw73LAO1CrLgPd68a++pbv4z+LtR+8cGjrc2dw70wdrTDakM24/jQX2gG4CBqGgRl+d9/IrCLfoSAKUKSGAN/qQl+iZy+jIOz6mHQEsuX+JxX23Ue6Yjhm+Jln11njiD3X1DtxwR7v8IeAAoF+o1bL0sn6c7XbC9tPvD8fMroWydBXfaLX981bkxjQFr2azTQ8Y4eWq5oMbKvkfToXbMlpIdSuYzXto3N2lz6ESg+aZRHtosr9VMf6NqtwvMnxNp+dxVeStHQOB9eXyneL0N0VkkeMEQ9xkuaDaaJSBwVMdxcbMs1o4lExXlEk+g8klcrzW5/2lt+QLT5f6m5Py2nYxKlNLTeKtYGPl2zZ08ZG+IQ5tnH4P8uxe0DuWlFe2G/5DRuQVqaVqymZxhS6nspxp7HJnXLT1VD9r9l5mg0hnroBJBdKmT7pJczvFSSYtvCqxQqwer8nTciyOOdp2HEvXnI+1E6/t487R8olHdyZaTac0UpG3mUCns+aKNcOtq+M8r7NNNtN3qjRUiT0URSgZ4YJ8jpu7i6ztKnBBIUevtXiUmh854pmwD24fGpL1q1b1Sf+RvzUiP+CSSzXVm17SAUbOGlkH+mLEffvdleLHXcFvi9rFw/cNDBzjxJnT6Ub4wwK1LX3jxt7eBU/r0BWW6F3G61tEZOEkPbjHouk5eEE+f1m1euTQGTqdvmr1yK29pT/Ac5MIeR0Zp076ABTUIEvU88ux1VvVuA9GLv/F2yuVwwfA3Q7YajWCJCnGKQY/wwOdQx21Fw6B2wg0e3oWqTbWCfJOVF5phYUdI4FRx+8BK/IKj/3Tjhn3KOHelMSxs07lmAE3yamxpM53NkK+d11X/l7V1iffJthDSfEax+QfZbMRzDKIt4FbC+Wou/ztAr9i4JL0vp2WR03Ra8vOlwHZCKZvzAAHoJrmBfYqA1amNmD2oEbkSpz+6H3V5k+T1AzIXZakIz7pvbFpZH8uG5TeEhef0XzzBUEunuyxOEWNyC1qSj+zkfrP90G8Mb12Gyd57frSwWZ2vADryuW1ccu/z4i8Pt3olAfr6Xa6I9WLN1RK2lut5++Gdkf7TdZXYEL4LCtB5x0x1gScJWxNhHfEfNz5c2RSgTYGC7TSOGan0PSeGGim+bRbPvG6fqGdCPKAS2bML8SOQaccjR0t71MPbYhRYq+0UnHPhHk4+5iRtB6PnHRQMaeC8lKywYtTpemVhvcUxbAgMizJWa4rF7mxK8/FhTwLIkvJQKxQ98mEYoa9YBQw9+3bV9/Q1fWHTtxGI3KlZ1qEO0tbpYIUjLDWKTfmW/b7PK3Hbuku9VnvH/WSe8461x+XSlVggFNcxtLRo1Gtu7vXmFa3b7klJrLXi2+9zhDdDnIhRkhTZk7HOqRaMLHniUjjvkN0Zoo6NV399bsHK6W/j+Cu9hRNdCnZ4EeM8Grv7M1tcdvB/J3R9kNabe2J04pIe4H16ZfuG73i42FkoAOwESqNSv4isNeItr7TYm4XZJkaOEO4n7qkbV7usL+/cVHp+/uO1vcxZga8CdgbcQDVBlBickiy1GJWRUZ+89ausmyn9slN6T27EexpBiqjtpMNWJaNZFLzD0BxfU/pBnV6l1H9TjF0jzfUcRyoghhkmUT6Teujwh83k6QtyfUZap7gmGWQF2LVpoHiZNtLh5Mrmneu6yrtKUb5jwLHDyXXHIC+/n6zOfnxZFYaBcQ0+5/HlvqncPdmgy5FeXejpzhwu48+1FetHt4IVE8/kBi1nc0ky1K7wayF9u5UrG9bWLw4juXNgv4QKi+aBuvWqEaIoBiLvnlhrvG3LGLgzvRvdx89YTV1/I0yjh0bwD+x9solJeP+umLs6+vejxpFRma06ThKBdIrVL0b9pAech4HtLzSVE+swpDzKMpArByNY+peGfCOmktEetB7jrYcMYpHh4tgOE2cujQ1DSfr1Km4kQhcNnMfmdVPspVmieycXLo+3XBKwQhLIsuSnOXKUoEbuvJcUcrTY03i/CbQ9sngRU4x1FfFVayxDe8fbVt965r7dz+VWtWnZDLcnBYe2dBduAvMH5GYyac0Uzzh2JOQJjEioqp4pWmFIQ/7nepeEXlOVXabpKM/GYu8cKkRf7FBLgVZBJQRwav60zTbJA4VjKCxlw88UK39zOZk9nimNhZAby3nXuyN/Zgx5go/vR6s3iAmtXENobrbwWet4b7Y85xK7qCJ4yFXLw4C/QCXcczurlQW2rwrmma8UG1+hVWWe+9uFcNGkIuAbkmeecc4rnky+0/Wub3yUVHzs9uTsqLDzlybwD3X1XVtbPzfW7h+ivZstSCqeshjPojlP+7rf8MjnGCl2TZ23fGk65C3FAqX2gJXei93GpG3CHoRCNNoEh8mGcnoAVR+VXD3oK2j1w9xDGj/efqZTWAPgWt0l18P+n8jWDHJ1KHD7SUgotQ8/DPObcPknmmrHrmsVnuBNHf7HugxpVJ3LLJMQC+pveExwB1iWwTEjUrpr6zw9imGs2ZtGgP/6nF/FUddX6ocO9bf+aG+E6/VSa/dRpZWWj3Vq733LxaR7xCVW0UoTpN17YTjVohF9K+8569NzN69jSWHSAfJ+9g34Y2OW7TvWbtySdzM/cvyXHRHzTuXTmBpe2XQ+2HhbCsMOk+chjwdbjtin8QpH3NJzHLdewZiT1vhaNvRTAdKWbyykKy7ZrdcJromdS7LZszDDmBZ9oJ5Ks4nuyCZUDdV6TLCylzEhYUcl5VyXFbIcUUpz8LIkBnzPYlQex3JZ37KazpDok1ivrPNVeR8f+kPLPwAI5dlOjuyLFmISnofjiHmVI47qoZMAEXQ5D716a02rQ+sFcR52Z1X+dZXDA09tnX8a6kG8BsqlU1G3IcUFqZiMC3Hl7WdSVZZkimnUnfoC6qyFzgK/gWPOWgFL6oFxaz0aLeIXmBEVhmViooWs1RffnJtqKTinQr3z28fXQ9c1kIp6i79YSTyzmmIvPAmSQPvPfqEqt4thofU8qx1+QNrlw3su3cXvr/jHPKgl/bSdcRVVuSIl8XCatRcouhGI/piEbOIJEXvdA74TsAkvX8tVn0c5BnQgwapSzv3Z/c2B75BYjXwrrf3sti3/ioS7phq7XEy4U5iRo87eEYxzwp+L0jdCG1VViosAa5AeLQ+WP8+YGhhugzUqJTfJfgPiEh5ioeThU6Kej3q0E+JMdstfpc2cs/mS9Xnq/0MdV67XvAFKMaF3iWm2F6oPl4F9lK8Xi+G2wxcClLI7t+Z9PK3CA7do8rXjOozKlK1En3+S4OD/8EEHdTGYx73AIfrCwd211744z3Nge6G1xdnNZ7bXjnuvMaaRDfFqvS7xNt67MKi0PHGmDt8WIQzz2xG/m7McHIKOl5GSvPMM3UetbTQcT5xum4fe6UnslxbzrO6ELG6kOOifI5LijkWRmbE2kCyBNDZW9oZ6TLGjfaB37iPeq1c/xVvS1dGsHGyXk6na8Ls1lGGi450/i06ndu+Zo79yWdEZiDxRdLPEXuRv3tFdeixnSc6W522HQHZXv2pf95Q+e0XCfrLRoim6NzXeWxCksxGJRkfWw8lQVZZYZUCIiaNuUhaSIfdtxOV90muAWVknDiZNsyuYWSEd3gct1cqP/fFavUwI11Czah/ALF3pbOWqWAceIMaA1eLkau9UtU2B9W09z34fGlvvoJfMiYe+GisFbHxyrbKBREsFUMxKbCXLKWkg6AZTZ7iE6NiORK5WYWbBYMVaNvmf9HkG4C+HMzW/v5n1lcKexBzxzTsVnxyj2BEFlh4MeiLExVPnXDTUZsRaKnuzYG2gWzd/bbY3x1H8gsWVk/RZT8x2ydr3Isike8W5DuclxfIu93NuHggX5Hqko7nQ5JlmBLSWqqexai5KDLSg8VkeTJ0ZLA1k2F5mqS4ZrUxrDbprR071wX8x0Q3Nu417bft3NkGPrYwl9u5IjJvLRj9Hiv2UlDJHqZkwCkYQQrJlR0OsuwU5+yHse+dbGFkPopyJ53nmC0M+rTTy1JUZfpyUSHiqlKBS4o5VuYsK3M5VhQsXcbgSNbnm6n3d2eTzLFUS74PzMYazzd75Sed+o8alWunIXTqlE08ZnYznmJn2fhwplADEqt8RZQ/2UmSJWsi30+Ocatv5fhDG5euycF3uGke+2QuHiQDn6yTy0IiZNjiNfq4gOGcQTD1cWI2WTdG5C5HrK+EzZ+F/ZtBPgF49fehZqcRrp1qXyBpKJwOnyMVK1REufzUD1LykA4v7OuwZ3Yyvjk7cdiiyfUh6f+ThnAdbjn3JMcRI/KoU9oCuaneMNmz5ToHxh37H35HUREamWiPfJ1ngS8qrJ6GeCeBZFaMYgSNjMhygeWYk18CA8MdrCZLYGPnfmej+5SRiUIWCqd40dZkNjYRR7TsJL8KfLWs0cfVutu8yrda5SUi0otJtqdJD50NrIattXqKDc5jTR7F8PhThmdaOJK196yziSRZb4/EsMRarijlWVNKTN+LrGVxzrAwsuSAVupUN5Q6k+nY/cxdfB/Ixv7al+vdpe8H/YhBXjRdjmlnYLabRo0gztNvPL+8qjZ0cNvk4jMVMM/V6b+o4H/BqZStypumuE55yjYbM7YePoCxnxvz+Wnbv5LFcZt3DlVKO15Zrf9pRzz7o8C/C1zL9Jx/h/50LN+c2fw+dr30bN9rY6/PqPF7XzqmEGf+W43+gBWumK6A9FO5x3S0wynbwxn+QJQ3GujW6Wkzk+583l679I1JLUeeUbTH7ulYu82xZCj1MPDwxqX8c7tRvNR7f6ca8yYrukyRJVESrpLOKokZmd3Mr+xAp2mX7ISyqMjMvO18ItRWhIIRuowhb4SlOcvF+YhLijkuLuZZEhkq1tBtE29vp0JLPQ2v1Dv2c6prMcdRgNJg/b56d/mnBf1jA5dMNWHBHEdTx8cY5P+sqtX+a1tHW0wCf6CBgebTlxSLP+ZiwYq+yY0EcMyzW+L0JNYJHpIGOxYDH0uFfO1QW3M90cfbXjdZkTXT7Ow1ke3MtfYeezzZffEV0CdF5IoZnhGdqT30S40Gt1F80EX8i4i8g+m1uM3nazfpY5pKnLYA9B3meWg8vwkeeLpY/AsfRZcYE9/hVV4pykUKF0ciRRHNZp5ZjOqE81PPFiPiPFqg26lAt9VjgC5r6I0sZSOUrWFpFHFxIeLiQo5LCzm6ozT/uBgKachbW5O17P5YQfT0Q9Z5SB+YjYO1TzYrxeMqfCiHXNeGOBXuc+U0IQtNART98ECp8sFt1do0WATxBxoINPZcUCq+Rx0SIW/0I+nr53sbJg6FgokdXxDf+qlVcfzgxxjxQRVg80D9oU93lX5fhA9Imot8ppy+ZuxE00EIM3vcAqgTtuF5hRFKfnbbSb7UaOiGSv63PPZlBi6bAS/ts8Gw78JsH8hURHvYWjscytJo7AX2boJ7j3Z3/1ndxZf6yN2B2pdY4TKPXpkTs1RInKjSjsfTqYmzyKg19nQGnSRyUdrp7LmNEpEkYVmai6gYoccaFuUsK/MRK/M5LshbluYiSiZL3JKU3VQSgXaq1NxwdqhRHvDnINoHZmO18aVGd+n7HfyuFblNk/Cqzmafz2T1qsWjHxZp/NLOw43qNG5fU+F+9oJS8UdNTF3gLSQOZPMvt3XHeQEYwTj03+NYf+LSZrx7W9IfDAt2+upvGSr9DZXGhsjwnXHiR3hWKj9N17naZD19ppcDPYAfbGwz3cXvFeGVibfY7Ar39mrr6xu6y7+mqh+SaXSqPJvnEAkyF/yrpiMjWlZUXgAznBpycPAF4AVgx0Yo+N7elbFvvcShNyFchOr1gtyYE2zmnAVnb337ZHalduJJl5i3URxKSSwL0wQmXdawOIpYlK47r8hFLIoMy3MRlcigmvrbSofjSlqOs5lF7cvIzP1ctRF3sjERbZaBPTRYv7/Wnb/LevNziHxfGv803x7esQyHTjmVDxVN/ef7+jnO9OdJ1sRU3nh2Va77hy3x0wZ+zAolp/NPuDWNmwY0dvrn4uVXL2029m9L222MYAPIAxwduEm634d3ayLDuvY8mrFZQbxnl4pWBFlxFkSrBuZ3nfdrRejxMxA/Pk6G173zg7W/r3fnXxJh3wPzx1KU+ic1neqjxsjNqS/wrN1305nGVEkyC2XnmZ2U74MG/f1PA08D/7Icui4tl68Cf52zssYjN6D+OhG5PBLJwkmGN8oJP45yQj/lwYx9TT3ck+0zvN6ORylLMnPuiQyLI0tPOpNeEAm9NmJZztBlk6QmZSPEOpL5TdO4AZ++N+yh2OFiew7PpM/IxuS+cIDdONh6ssrCn8h3NXao0Z+2yCUd3jTz4iGm41gtiFftd2J+z2ntgzMk2Bn+QAMLgy+sbrDVVcrfEPzWCFnp5k/7KUCUtNtx9bz/eK3xxzfA4LY0LG6sYGfpGgDz0ODgE7f0dv2Cev2DCK6b4+v7Colgq+ouo/rDDvM6EX4q/eOMXa8dIAzW7t5QKf25EX6GZP4wW22kgPRB41Xdha21oXi58bwtvWfn8sArSzCDUX4nRj8nnm0ismA2BxwzlXu80wo0NiyZgzB0sFb7MvBlgA1dXcvUyyVqudCrv0JFblJ0QyRmGWiOJKZ+2AN9uFY1qftkp4AyZs+pcPo0G8yCyLIwsiyIDEsjy4LIsiwf0W0Th7EumziHlUXojQxWhFh1VGx0zemoExxrHej0Ig8kbCSJ3ewD2cix/urQwj+x3Y0dKvIzRvWNBnI+iQvtXC6Zc2Trkuk/VPSrorLlgYHax0kGJsLM1o5xBxoIReqrq7UPUyzudJH+ojHyOhTjR45xTnWEne1mABXu9chvFW+uf+qGPuJ0hn0qwR42kQPmgf6hz97a1fVjzvg/iuBax8wnx5jk+RqbHPQTHnmviHwGNc97/CYrXByPrHHPFN5ifzvW+FIr8tZZHuAoYP7nucEX1i8q/WTs5ahB3ynJcz/XBl7Jsk0S1eBA37dq6LLfeICdZkW59Jko4m1OiZmlglszstOxbv1bQLZ0vG7bNPL3TQAfGzoMDGdCenl3ZclQrrmi2bLLEbfGq9yM+hsUWWSMlsRLtxGKSfEtSQuLJPkQckZYEFkWRxELIsPiKDFlL4oMvdZSMkLeGgoiVGziFFa2Se3rODWPZzPwus+GAmOuJvPaq3vWSIVbU+HW6uDC+0yP+wEvrTsF88MGXStQZMRhsTP53WyS+V5g01UNr3pMjfyTeP97acGL4c+ejeM50ACKsLrR+JIrl+/y4r9bVH40ElZrWk97BrK8TfxAE2FSm8Zze+VobPjL2OofV25oPLusD7aNREieTrA7hVvuHRr63IZy7ntia37RYL7VCtYnkZWzGqEyfL6CFcXHns/RaP+iFHP3o4bC0NBTzUrxXxH5cdEZFSsFJJb4cNzmJ8mpWOQtPonJn60IDg/IfUfr+9eu5KeioeIeq/KzESxIB16zHVmiCs6muujR57zobzww2PyTNFc9zvK3RvWbBSnO1vFO6GbRTdgdu9ee9oFYe9kOv2VbcoJb0q8xmY5s0zV5Ft6uNJ+w//DFp5Z+vd5efERblzY9L14Q2Y0erq4Ys6RsjVkcWRZYw4KcodsaLELeJOU08wI5Y8hLUmIz8WDXkfzlJHajKTXMPGMG05iOYuMp3u/r+HuVheR6HNa2LnYtfZMx8r2iXImRXgCnw2Oosx1tkK25ZTMmgwqKHvYq29XHfxb3tu7ZcYAak4vDnhZWFmF1A1y5jIO1OevfbTGvBl0tSepElyUvOZvtlz5aakWiNP/HEaf6eeP1jw+tbN574YU0U8HOPj8ewR61xg3oxkplSVPaP2ZE7hKVC9NaBNmA72ydr2ZibYQoTdu2J/b8P/H8CZb9qOG+oSGzvlL0TvyVObEfsXBrnPi42skcqxG8E/+q+/ub93Q0DxvKZbbXasMfW99d9IWcrGq0eL8VNiFEPgmAmbY2MoAT/aQMNDbVoP7o6Z+J5NpB1OgufROqv2hE1kriWBl3DLzOSjecrZIaiIwI6n2/R74g6G87o59/YKCZnaJuBNvsLr0vEvk5p+rSUdeEhDs7Ka/6gfurjZ9kgv3HREWbHbvXTrhRymZocb7ZssVC3rncUMG7Yq+rOys5pOnMInB5MWoib5d7q6UILTvMJQ7N5WBxQWRhwZhcwbK45bSnrixoqS+jkpNUjCNRDIKRJM4+9U5PZ84jM+hTZmg7j5hLot03MtPwABuKrI4LhVdYZ95q4BqES21a3cwn4yxlpJbKdF++UUJtkixduGQx8Gsefdyp/D9r6n3AUYD7BmZXsAESz/Lk+NeysszCYy+JYr7PqrwM4YqseE9qvZipDvGkgxwvekCRB73X/1uy9b79Szl+4YXQ1zfSbhMV7BOEG6JqV+H2vDE/DPpyK2apJsHyWX6IM6Xjn+r52kiS2uUe9jrkS1HbfPA1jeqX7u4q+fuH6mZ9peRT4Zb1laLGRm7OK78jyMsU7bQsjUdEVZNa08TiX/tAf/OznFq0AWR9d1ELg40FzZ7yjxnV7xPkkkns95RMULSHjwvQW3p7LxXferuFtwFXJ2ndZnywnq14qoUoXQatCjzgnP+b3qj578cpHH1gYLiSmm5OCiLp7fQu8JXm+xD5foFCPDGroJKslXuv+qH7q433MN2inZq69ak1awq53vaGtthLBYn9SZwaLCoOWQK+R0S8VY0Ril7NZYLmRKStqt0oq4xgVYiKYpfkhZwXNarkfBIWYbwma9mZEGc9jQKxz1IKJkVGOh3Lhs3XQZxPyVwS7Y73hh0XAW5ZtKjHtmovVpHXW+EG77lK4HJrRhwV/ZiUpWM65jP5KI5KZ5itt1qSjHVtVUTZJYYnnPovq7H/VszXngCqAH2HsZy8LOFZYeVJCi/e3hjJb74XSlqJ1qrkvjlveHHs9aVRFm6ZDICGvXc7Gmoij0kmuImzVVr23pD4gAj6oPc8GHt/d5QrfqkgA0f3L4WX7MJu62i3yQr2GOEG0FsWLeqRVv3VxvBmPOuMkSsMic28Y7lgMl1Cp6tMtt5pkmqC0PY4a+Sh2MUPq8q/VLt67gWqOw8fFkDWJcLN+kqJzhm3aeWuinPtH7eGt0ZilvrkWE+bhjdN7yCRCA6l6du376jGX+L0og3pjPuiOxt2/6e6Xubx3ydGXxmJXJiFonaE3064fQTwop+Qgca3T0S0N6cD9p2bsPv+q/RS7/3brDEbvLI+J2K9Km6a79XUr0KsSDqZ8/ss5oG2c3cbaf5bt+XQcQqkgj22TxRA10PJ9xTusmp+0CDXi2g2o/CnOumsj4nSeEbn+T/bh+q/yAyItgH8125+0eKca/z9ikJuY0uJnZ5oEkg7hMgn93LSUEkUlIz+3Eg1r+zhG3EoyxzMsoSxyduJl7aiSQoSkayWwSSu4PnOXBTtjr8Nj2whKTm4u8LCSAvXKebFxuga4EWoXIpwSU7EdN4oGac6kc4h+0jvJLRVPejzgvkG8Lj3+jXJ6SP4xmOvG+B4tsmtYwYXs8HK01RKTmfdnc5wZm2lssjSus2KvRWRF3mv1xrh8igtBNL53I1natTZjlnhgbZq1Yp8RdFHvZcnHOazfmjoyVxPT7sgAyzrx24b8R1Nr9jUBLvDv0Q2pZM9gN1QplJ8Sc6YV4v6l6DyUmO4yKR5Fzov3kTOdyT7YXK+RvWriHlYVR92Lfe5oVbrGdKSlZvSWVm2i3VdJU4m3EeqjcKiSv7OSKLXg9/gRW7IDfeMI5hsv6iK12+ImAe913ux9f9330Bi9ck4hWhDOuO+6M4GT2yjK9dTuK3g7Wu90VvUsyE3Og31Gduns++1Ai38F+KB5p1tqI1TtEdOL93lJrDPdndfZox7hXj/UlXWqpGX5hCT3asTvXbZA5FdvzgJ9/kahp2Cfs3l+Hx8tPlAvov+bgufHjjhGTrl8a7vLb9UY32LMf5lXuWGnJEeOcn1S5eqcKqHLPJ15/2XIqK/+9LQ0OPjbKMTzuuUbE4P8NtvvmBx3hf+bkGUe10tqad9UvwJkVlJEpXOz3SOJMcMK4flvXNEFQR5epnLop3+vdPMNPaYotuKxQviiItVuShClmDMhR7Xg8hqUUoe8qL+YkTyjIyyDUjTwC5AVLQuynOqcgxlv7F6wDv7QtvapysDA3sYydyXHdOowcRscTrB7qTTZN7xtqytsDjKVV4ksb9M1F8A8iIvrBHVJSosNkqPNSY/dntZD+a8P67IAOgLYngWL08Zw7Ou7fZYL4/nms1RbTd2+YOOg5qqYJ+kXzjhnK+ssGQRxWvBXGFFrvD4S1X1YhVZKcoiK1IZnmGM2VBb1avqcUH6VXhORI+I6k5R8yxwQHFP5KutXSc5XzYn+StGcTLhztplLeSknLsuEnsNyFIMK0B7svMxmGe86qA3pt/45rPHqvGjHgYBnhqzn9OI9nAbbdqEPrENHgWztqdwaQ5ZK7G5EqNXIKxW5TJFF0TGdJ+q/3Xe170waGAf8Iyq/ud91eZHGH81u7HHNeo+WQu5/MLcVbTs9Yi5GNE1mtQtv0pVe6zIInMKdfCA9/64Ci2BAyLsV2W/qPmGquxr++ZTrXzXU2XbOBYfbZLvglSwx/ucjxqUrC8U1ti8uVrVr8DbZc765ZKWmgA5irLPiDS8c/vbjqceajafHsc+Tn0BT8do0S5+pGTtN9e911N99xQblHF8JnCWmOuiPeazJxOfscg1kMstKi0tOJ83ilU1i2PVzugIKYrEsfHPOzBta5rR0foxoHaa7Sbxrmfe/1lhvILdySnEe5hbFy/urrery01se6zxXSKmgmp57OdssgHXRo9ZkYb3phpVOLz94NARTn7fnHK/0yXYpzNDnmLf9uYLuhfokeaSYsEuaHnTZcX3CNixKmOBWKSh6gfVSd06d3wolxsADnZ+bvHQEHDifboZGCvacFLhPtWpyDWQa6XbNZimR/HGYLzjWEejHxvzxTOI9vD2N206cb97/mdRD25oMd4sd96XrJheGE7oOOZC+oFYpG7xRx35Q8CRHdUpJwI85X2znlWleOGRJTknK/Ba8iILUHInHFY65vKRHrcxzqg7roXoGEfrR2G4rAMAbSDfBduHJuWbcrpnK1oDNp/87ZTVvHZOooEmGvIlJp35zoBjRyBwAhvH9yAlD8bR+v6O93ad7IMTveHPtP++8W5oikxGsNPvnfb4nx56YZB0xjbhIVv/aY9LAQ40TnxzugT7NB3Qqc7ZPfhcmqlxMkURW6f90rg6/PuH6qzrKnFfNRHu9ZWSnmZ7w3s0GDpFOw2RAqBn7DfHdx1127aTvX10ABggSYQ1kcaZRINOrB3vY1+dY+wF9k54q0Ptk769IRHs0+53MscKxLvGWOumi1kJDg8EZpq+U/fpsz5jniiTFeyJ0DEjHy8TbsfpFuypXMhJTDqm7b7pFO7xkok2qWifTpf3TM9hTtjR6ywybdcuFex5RRDtwDnJOGfoU2amZ9pnQ7DT/cxIe2Uz7ZkQ7Cma+mZ18JYJ93iZiGiP3c98bJ95fGwzzkTXtP+qy9pvrnk/W8nnA9PAfFrTDgQCgcAIcyZXbyAQCAQCgdMTRDsQCAQCgXlCEO1AIBAIBOYJQbQDgUAgEJgnBNEOBAKBQGCeEEQ7EAgEAoF5QhDtQCAQCATmCUG0A4FAIBCYJwTRDgQCgUBgnhBEOxAIBAKBeUIQ7UAgEAgE5glBtAOBQCAQmCcE0Q4EAoFAYJ4QRPs8pKM8m4jXUK0tEAgE5glBtM9DFMUIWBHiRhTP9vEEAoFAYHwE0T7P8KBGBBGl6f3XSl2LD6QV5c/rwvKBQCAwH4hm+wACZwcFVVVfMMYWjLH97Xi7tWbrRffdVweMgJ/tYwwEAoHA6Qkz7XMcD+pVYwssjKyNRKtDzv1Tm+iu1Q/s2kkQ7EAgEJg3BNE+R/GK96ouLyKLclFkhLjp/ReHYn6KdvwDV+148utbgmAHAoHAvCKYx88hFFBFBbRixZSs5XjbH296f18TPtOvbKu4eO8lj+wBMFuDYAcCgcC8Ioj2PCZzIJM0iiuP0JUz4lRlyPuvtp37fN3TN6TtLzjJHai0Yy55ZI9sAQmCHQgEAvOPINrzCAVVEoU2IFaESJCI5M0hx6HB2H1GkHuHiLd/rLznsW+vXhw7yVFpx/zVI3vM1kTrg2AHAoHAPCSI9hxGU4s3qioiEgkmJ4IRwamSF2kMtP0RRD8H8nlFv3YUvgraD5Y3Vi/DiXDdQ9+QNINKEOtAIBCYxwTRnmP4RKS9gIqIzYuYvDU4VZxqqyCmv+rdcy3199XQzxXE7DwEzyZCfSJNVXasvUwfmu0TCwQCgcCUCaI9yyQijQdVC+SNiUrWWCvCkPcYry8ocrDq9GlRfWCo3b43svLkmpWLjgA1gIsAPrEjS0cakqQEAoHAOUoQ7bNMkuQEVVStQEGMLVixBRGaqjScHo/VP9v0sq+h+oRHH2jGrYdXLVxyYGG7MgQkaUcHYVtfn30cdEtmRg8EAoHAOU0Q7Rkmcx5Dk6DogojkrUjZGOreU3X+qHi+4fB7asgzXvWxY675lQr5Z9ewsAa0ATgGUGXbZTvspm2JSG8Ct2m2TzAQCAQCZ40g2lNEO2a4WehVZqeORLCC5ETIi1D1nqbXA87x9bbGT7SUXS2vuyWSJ56qDjz78p2Ha5zoLCbbNmEe35bMqDftwM32OQcCgUBgdgiiPQ6yeGgFRNFUncWAiCAGwQAiWTiWAOqHVAdanm80la9acY8j7HfqDkhcfPqfhtwBoDki8b08uqYXgKO7dhmALanZe9O2MKMOBAKBQBDtUaQLwyqamrRRFcCIGCsiRiAiiZ7yKF5RI7QLQnPQ+abz+qSIPCNiHoP2E2rs4fZQdKRaO3wA6PDuHuC2jv2u3X1MxhxGCM0KBAKBwAmcl6KdiTM6vOSsAIkwi40MYhFyAl6TsCmEmoWmRQeGvNZjdC+Yx8Tr0w3kyZyPnnfl+HjtWKsKHE325IAWxWLXaY/n8Wu6ghNZIBAIBM7IOSvawzWiO2bNCmoFtYjJxDkSQ0EEBYa84tXXVWVQhcFY9UjN6aBTvxuRxxU94J0+GXWZY15M/QrbHgQao3a81ELfHjn54QQCgUAgMHnmvWhrx1qzkvlpJ7NmK2KsQaxADkvBQKww5D1O9bhTjnovx8X6wy1lYDD2B/OGXbHz+2LMc3Vae0yPqS1uuuZF9+1rcBLx3QJmy2ZgK3T8PYh0IBAIBKadOS/aevL3UmFGcohEkoo0QvIzDDhPy2tVlSMeORrjD3nV5+vKsab6I+p41og857R1YH+1fch2aX1t95Ut+vrcKXYrgNm2CdmUeHKzJYmR9qlgBwKBQCAwo8yYaOuol1MzNkxq+GdJin0bkfQV7MjvIsAx5zX2esgZDqJ6zKgcFPwhUXm+jb6g1rzgnB7xNj7aFHl+3wv2+P27drU5haPXf3AAgC3JIUj6c+bFDeA3bSP7TCAQCAQCZ5UJibYozis+yeg1SmezcCfprEIlknzGIMMfNjK8rVR6YUQTBQPeoN4KftD7VtvrUVSOWpHnRHkBjQ8YK/s99DvHgObkmFdzTJxWC63W0b9c9OwgWdawsVyY/kvZ0jcszLJl9ABj2Dlty2xfoUAgEAgEUsYt2sarqGhPb2RM5JNZcCeOLPVXonZOVQX1IBihZZLZrY+EpiB+SLXRcu6YIINeZa8RHRRlv4oetXn/vLRsf1O1kXd+UL3U61FhsOiLtb965JEBJhEStWX0IGPU2vOWsAYdCAQCgXnAuEW7EC+L46j6LOjXrOA01W0DqKIN56tO9QiqBpG2R54RpIp6FTFPq/ihWF3DKM+rzTfyRpqRxI2K8a3nhkxt+aJKe9nLd54sI9gotnzrpM81CHMgEAgE5jVypg9sTl+3gHnqxWsW13yroiLDAlgEvBEtR9ocsq5ljnvpykVeui5oDAwMuGtLOxUxbRVPrGAU1OaJDKCt0Tu7H9mSmKrHriVnBOENBAKBwHnLGUV7Oshm5ds2JftLC16cTJiDKAcCgUAgcAomJNqbwWw5zd+3jP45iHEgEAgEAoFAIBAIBAKBQCAQCAQCgUAgEAgEAoFAIBAIBAKBQCAQCAQCgUAgEAgEAoFAIBAIBAKBQCAQmDX+P9dAMk7DXHhiAAAAAElFTkSuQmCC;" vertex="1" parent="1">
          <mxGeometry x="588.75" y="520" width="102.5" height="42" as="geometry" />
        </mxCell>
        <mxCell id="IonQVXjq1AOYUMtXGqEm-9" value="" style="shape=image;aspect=fixed;image=data:image/svg+xml,PD94bWwgdmVyc2lvbj0iMS4wIiBlbmNvZGluZz0iVVRGLTgiPz4KPHN2ZyB3aWR0aD0iMzg4LjhwdCIgaGVpZ2h0PSIxMTVwdCIgdmVyc2lvbj0iMS4xIiB4bWxucz0iaHR0cDovL3d3dy53My5vcmcvMjAwMC9zdmciIHhtbG5zOmRjPSJodHRwOi8vcHVybC5vcmcvZGMvZWxlbWVudHMvMS4xLyIgeG1sbnM6cmRmPSJodHRwOi8vd3d3LnczLm9yZy8xOTk5LzAyLzIyLXJkZi1zeW50YXgtbnMjIiB4bWxuczp4bGluaz0iaHR0cDovL3d3dy53My5vcmcvMTk5OS94bGluayI+Cjx0aXRsZT5QeXRob24gcHJvZ3JhbW1pbmcgbGFuZ3VhZ2UgbG9nbzwvdGl0bGU+CiA8bWV0YWRhdGE+CiAgPHJkZjpSREY+CiAgICA8ZGM6Zm9ybWF0PmltYWdlL3N2Zyt4bWw8L2RjOmZvcm1hdD4KICAgIDxkYzp0eXBlIHJkZjpyZXNvdXJjZT0iaHR0cDovL3B1cmwub3JnL2RjL2RjbWl0eXBlL1N0aWxsSW1hZ2UiLz4KICAgIDxkYzp0aXRsZS8+CiAgPC9yZGY6UkRGPgogPC9tZXRhZGF0YT4KIDxkZWZzPgogIDxsaW5lYXJHcmFkaWVudCBpZD0idmxwYyIgeDE9IjE1MSIgeDI9IjExMiIgeTE9IjE5Mi40IiB5Mj0iMTM3LjMiIGdyYWRpZW50VHJhbnNmb3JtPSJtYXRyaXgoLjU2MjUgMCAwIC41NjggLTkuNCAtNS4zMDUpIiBncmFkaWVudFVuaXRzPSJ1c2VyU3BhY2VPblVzZSI+CiAgIDxzdG9wIHN0eWxlPSJzdG9wLWNvbG9yOiNmZmQ0M2IiIG9mZnNldD0iMCIvPgogICA8c3RvcCBzdHlsZT0ic3RvcC1jb2xvcjojZmZlODczIiBvZmZzZXQ9IjEiLz4KICA8L2xpbmVhckdyYWRpZW50PgogIDxsaW5lYXJHcmFkaWVudCBpZD0idmxwYiIgeDE9IjI2LjY1IiB4Mj0iMTM1LjciIHkxPSIyMC42IiB5Mj0iMTE0LjQiIGdyYWRpZW50VHJhbnNmb3JtPSJtYXRyaXgoLjU2MjUgMCAwIC41NjggLTkuNCAtNS4zMDUpIiBncmFkaWVudFVuaXRzPSJ1c2VyU3BhY2VPblVzZSI+CiAgIDxzdG9wIHN0eWxlPSJzdG9wLWNvbG9yOiM1YTlmZDQiIG9mZnNldD0iMCIvPgogICA8c3RvcCBzdHlsZT0ic3RvcC1jb2xvcjojMzA2OTk4IiBvZmZzZXQ9IjEiLz4KICA8L2xpbmVhckdyYWRpZW50PgogIDxyYWRpYWxHcmFkaWVudCBpZD0idmxwYSIgY3g9IjYxLjUyIiBjeT0iMTMyLjMiIHI9IjI5LjA0IiBncmFkaWVudFRyYW5zZm9ybT0ibWF0cml4KDIuMzgzZS04IC0uMjk2NCAxLjQzNyA0LjY4NGUtNyAtMTI4LjUgMTUwLjUpIiBncmFkaWVudFVuaXRzPSJ1c2VyU3BhY2VPblVzZSI+CiAgIDxzdG9wIHN0eWxlPSJzdG9wLWNvbG9yOiNiOGI4Yjg7c3RvcC1vcGFjaXR5Oi40OTgiIG9mZnNldD0iMCIvPgogICA8c3RvcCBzdHlsZT0ic3RvcC1jb2xvcjojN2Y3ZjdmO3N0b3Atb3BhY2l0eTowIiBvZmZzZXQ9IjEiLz4KICA8L3JhZGlhbEdyYWRpZW50PgogPC9kZWZzPgogPHBhdGggZD0ibTE4NC42IDYxLjkzYzAtMTQuNTYtNC4xNTItMjIuMDQtMTIuNDYtMjIuNDUtMy4zMDQtMC4xNTYtNi41MzEgMC4zNzA0LTkuNjY5IDEuNTg5LTIuNTA1IDAuODk2Ny00LjE5MSAxLjc4NC01LjA3OCAyLjY4djM0Ljc2YzUuMzEyIDMuMzM0IDEwLjAzIDQuODgzIDE0LjE0IDQuNjQgOC43MDQtMC41NzUxIDEzLjA2LTcuNjQyIDEzLjA2LTIxLjIyem0xMC4yNCAwLjYwNDNjMCA3LjM5OC0xLjczNSAxMy41NC01LjIyNCAxOC40Mi0zLjg4OSA1LjUyNy05LjI3OSA4LjM3My0xNi4xNyA4LjUyOS01LjE5NSAwLjE2NTctMTAuNTUtMS40NjItMTYuMDUtNC44NzR2MzEuNTlsLTguOTA5LTMuMTc4di03MC4xMmMxLjQ2Mi0xLjc5MyAzLjM0My0zLjMzNCA1LjYyNC00LjY0IDUuMzAyLTMuMDkgMTEuNzUtNC42NzkgMTkuMzMtNC43NTdsMC4xMjY3IDAuMTI2N2M2LjkzLTAuMDg3NzMgMTIuMjcgMi43NTggMTYuMDIgOC41MjkgMy40OTkgNS4yOTMgNS4yNTQgMTIuMDggNS4yNTQgMjAuMzd6IiBzdHlsZT0iZmlsbDojNjQ2NDY0Ii8+CiA8cGF0aCBkPSJtMjQ5LjMgODMuMjdjMCA5LjkyMy0wLjk5NDIgMTYuNzktMi45ODMgMjAuNjItMS45OTggMy44MjEtNS44IDYuODcyLTExLjQxIDkuMTQzLTQuNTUyIDEuNzkzLTkuNDc0IDIuNzY4LTE0Ljc2IDIuOTM0bC0xLjQ3Mi01LjYxNGM1LjM3MS0wLjczMSA5LjE1My0xLjQ2MiAxMS4zNS0yLjE5MyA0LjMxOC0xLjQ2MiA3LjI4MS0zLjcwNCA4LjkwOS02LjcwNiAxLjMwNi0yLjQ0NyAxLjk0OS03LjExNSAxLjk0OS0xNC4wM3YtMi4zMmMtNi4wOTIgMi43NjgtMTIuNDggNC4xNDMtMTkuMTUgNC4xNDMtNC4zODYgMC04LjI1Ni0xLjM3NC0xMS41OS00LjE0My0zLjc0My0zLjAxMi01LjYxNC02LjgzMy01LjYxNC0xMS40NnYtMzcuMDhsOC45MDktMy4wNTF2MzcuMzJjMCAzLjk4NyAxLjI4NyA3LjA1NyAzLjg2IDkuMjExIDIuNTczIDIuMTU0IDUuOTA3IDMuMTg3IDkuOTkxIDMuMTA5IDQuMDg0LTAuMDg3NzMgOC40Ni0xLjY2NyAxMy4xMS00Ljc1N3YtNDMuNTRoOC45MDl2NDguNDF6IiBzdHlsZT0iZmlsbDojNjQ2NDY0Ii8+CiA8cGF0aCBkPSJtMjg0LjEgODljLTEuMDYyIDAuMDg3NzItMi4wMzcgMC4xMjY3LTIuOTM0IDAuMTI2Ny01LjAzOSAwLTguOTY3LTEuMTk5LTExLjc3LTMuNjA2LTIuNzk3LTIuNDA4LTQuMjAxLTUuNzMxLTQuMjAxLTkuOTcxdi0zNS4wOWgtNi4xMDJ2LTUuNjA1aDYuMTAydi0xNC44OGw4Ljg5OS0zLjE2OHYxOC4wNWgxMC4wMXY1LjYwNWgtMTAuMDF2MzQuODVjMCAzLjM0MyAwLjg5NjcgNS43MTIgMi42OSA3LjA5NiAxLjU0IDEuMTQgMy45ODcgMS43OTMgNy4zMiAxLjk1OXY0LjY0eiIgc3R5bGU9ImZpbGw6IzY0NjQ2NCIvPgogPHBhdGggZD0ibTMzOCA4OC4yN2gtOC45MDl2LTM0LjM5YzAtMy40OTktMC44MTg4LTYuNTExLTIuNDQ3LTkuMDI2LTEuODgxLTIuODQ2LTQuNDkzLTQuMjY5LTcuODQ2LTQuMjY5LTQuMDg0IDAtOS4xOTIgMi4xNTQtMTUuMzIgNi40NjJ2NDEuMjJoLTguOTA5di04Mi4ybDguOTA5LTIuODA3djM3LjQ0YzUuNjkyLTQuMTQzIDExLjkxLTYuMjE5IDE4LjY3LTYuMjE5IDQuNzE4IDAgOC41MzggMS41ODkgMTEuNDYgNC43NTcgMi45MzQgMy4xNjggNC4zOTYgNy4xMTUgNC4zOTYgMTEuODN2MzcuMTl6IiBzdHlsZT0iZmlsbDojNjQ2NDY0Ii8+CiA8cGF0aCBkPSJtMzg1LjQgNjAuNTNjMC01LjU5NS0xLjA2Mi0xMC4yMS0zLjE3OC0xMy44Ny0yLjUxNS00LjQ1NC02LjQyMy02LjgwMy0xMS43MS03LjA0Ny05Ljc2NyAwLjU2NTMtMTQuNjQgNy41NjQtMTQuNjQgMjAuOTggMCA2LjE1IDEuMDE0IDExLjI5IDMuMDYxIDE1LjQxIDIuNjEyIDUuMjU0IDYuNTMxIDcuODQ2IDExLjc2IDcuNzU5IDkuODA2LTAuMDc3OTggMTQuNzEtNy44MTcgMTQuNzEtMjMuMjN6bTkuNzU3IDAuMDU4NDhjMCA3Ljk2My0yLjAzNyAxNC41OS02LjEwMiAxOS44OC00LjQ3NCA1LjkyNi0xMC42NSA4Ljg5OS0xOC41NCA4Ljg5OS03LjgxNyAwLTEzLjkxLTIuOTczLTE4LjMxLTguODk5LTMuOTg3LTUuMjkzLTUuOTc1LTExLjkyLTUuOTc1LTE5Ljg4IDAtNy40ODYgMi4xNTQtMTMuNzggNi40NjItMTguOTEgNC41NTItNS40MzkgMTAuNTQtOC4xNjggMTcuOTMtOC4xNjggNy4zOTggMCAxMy40MiAyLjcyOSAxOC4wNiA4LjE2OCA0LjMwOCA1LjEyNyA2LjQ2MiAxMS40MiA2LjQ2MiAxOC45MXoiIHN0eWxlPSJmaWxsOiM2NDY0NjQiLz4KIDxwYXRoIGQ9Im00NDYuMiA4OC4yN2gtOC45MDl2LTM2LjM0YzAtMy45ODctMS4xOTktNy4wOTYtMy41OTctOS4zMzgtMi4zOTgtMi4yMzItNS41OTUtMy4zMTQtOS41ODEtMy4yMjYtNC4yMyAwLjA3Nzk4LTguMjU2IDEuNDYyLTEyLjA4IDQuMTQzdjQ0Ljc2aC04LjkwOXYtNDUuODZjNS4xMjctMy43MzMgOS44NDUtNi4xNyAxNC4xNS03LjMxIDQuMDY1LTEuMDYyIDcuNjUxLTEuNTg5IDEwLjc0LTEuNTg5IDIuMTE1IDAgNC4xMDQgMC4yMDQ3IDUuOTc1IDAuNjE0MSAzLjQ5OSAwLjgwOSA2LjM0NSAyLjMxIDguNTM4IDQuNTEzIDIuNDQ3IDIuNDM3IDMuNjY1IDUuMzYxIDMuNjY1IDguNzgydjQwLjg1eiIgc3R5bGU9ImZpbGw6IzY0NjQ2NCIvPgogPHBhdGggZD0ibTYwLjUxIDYuMzk4Yy00LjU4NCAwLjAyMTMtOC45NjEgMC40MTIyLTEyLjgxIDEuMDk0LTExLjM1IDIuMDA1LTEzLjQxIDYuMi0xMy40MSAxMy45NHYxMC4yMmgyNi44MXYzLjQwNmgtMjYuODEtMTAuMDZjLTcuNzkyIDAtMTQuNjIgNC42ODQtMTYuNzUgMTMuNTktMi40NjIgMTAuMjEtMi41NzEgMTYuNTkgMCAyNy4yNSAxLjkwNiA3LjkzOCA2LjQ1OCAxMy41OSAxNC4yNSAxMy41OWg5LjIxOXYtMTIuMjVjMC04Ljg1IDcuNjU3LTE2LjY2IDE2Ljc1LTE2LjY2aDI2Ljc4YzcuNDU1IDAgMTMuNDEtNi4xMzggMTMuNDEtMTMuNjJ2LTI1LjUzYzAtNy4yNjYtNi4xMy0xMi43Mi0xMy40MS0xMy45NC00LjYwNi0wLjc2NjctOS4zODUtMS4xMTUtMTMuOTctMS4wOTR6bS0xNC41IDguMjE5YzIuNzcgMCA1LjAzMSAyLjI5OSA1LjAzMSA1LjEyNS0yZS02IDIuODE2LTIuMjYyIDUuMDk0LTUuMDMxIDUuMDk0LTIuNzc5LTFlLTYgLTUuMDMxLTIuMjc3LTUuMDMxLTUuMDk0LTFlLTYgLTIuODI2IDIuMjUyLTUuMTI1IDUuMDMxLTUuMTI1eiIgc3R5bGU9ImZpbGw6dXJsKCN2bHBiKSIvPgogPHBhdGggZD0ibTkxLjIzIDM1LjA1djExLjkxYzAgOS4yMzEtNy44MjYgMTctMTYuNzUgMTdoLTI2Ljc4Yy03LjMzNiAwLTEzLjQxIDYuMjc4LTEzLjQxIDEzLjYydjI1LjUzYzAgNy4yNjYgNi4zMTkgMTEuNTQgMTMuNDEgMTMuNjIgOC40ODcgMi40OTYgMTYuNjMgMi45NDcgMjYuNzggMCA2Ljc1LTEuOTU0IDEzLjQxLTUuODg4IDEzLjQxLTEzLjYydi0xMC4yMmgtMjYuNzh2LTMuNDA2aDI2Ljc4IDEzLjQxYzcuNzkyIDAgMTAuNy01LjQzNSAxMy40MS0xMy41OSAyLjc5OS04LjM5OSAyLjY4LTE2LjQ4IDAtMjcuMjUtMS45MjYtNy43NTctNS42MDQtMTMuNTktMTMuNDEtMTMuNTloLTEwLjA2em0tMTUuMDYgNjQuNjZjMi43NzkgM2UtNiA1LjAzMSAyLjI3NyA1LjAzMSA1LjA5NC0yZS02IDIuODI2LTIuMjUyIDUuMTI1LTUuMDMxIDUuMTI1LTIuNzcgMC01LjAzMS0yLjI5OS01LjAzMS01LjEyNSAyZS02IC0yLjgxNiAyLjI2Mi01LjA5NCA1LjAzMS01LjA5NHoiIHN0eWxlPSJmaWxsOnVybCgjdmxwYykiLz4KIDxwYXRoIGQ9Im00NjMuNiAyNi45MWgxLjU2MnYtOS43OTZoMy43di0xLjE2OGgtOC45NjJ2MS4xNjhoMy43djkuNzk2bTYuNjQ3IDBoMS4zMzR2LTguOTQ3bDIuODk2IDguOTQ2aDEuNDg2bDMuMDE4LTguOTE2djguOTE3aDEuNDU2di0xMC45NmgtMS45MjZsLTMuMjk4IDkuMzkzLTIuODEzLTkuMzkzaC0yLjE1M3YxMC45NiIgc3R5bGU9ImZpbGw6IzY0NjQ2NCIvPgogPHBhdGggdHJhbnNmb3JtPSJtYXRyaXgoLjczNDEgMCAwIC44MDk1IDE2LjI1IDI3LjAxKSIgZD0ibTExMC41IDEzMi4zYTQ4Ljk1IDguNjA3IDAgMSAxLTk3LjkgMCA0OC45NSA4LjYwNyAwIDEgMSA5Ny45IDB6IiBzdHlsZT0iZmlsbDp1cmwoI3ZscGEpO29wYWNpdHk6LjQ0MzgiLz4KPHNjcmlwdCB4bWxucz0iIi8+PC9zdmc+;" vertex="1" parent="1">
          <mxGeometry x="107.21000000000001" y="585" width="145.59" height="43" as="geometry" />
        </mxCell>
        <mxCell id="IonQVXjq1AOYUMtXGqEm-12" value="" style="dashed=0;outlineConnect=0;html=1;align=center;labelPosition=center;verticalLabelPosition=bottom;verticalAlign=top;shape=mxgraph.weblogos.java" vertex="1" parent="1">
          <mxGeometry x="622.8" y="569" width="34.4" height="65" as="geometry" />
        </mxCell>
        <mxCell id="IonQVXjq1AOYUMtXGqEm-13" value="" style="dashed=0;outlineConnect=0;html=1;align=center;labelPosition=center;verticalLabelPosition=bottom;verticalAlign=top;shape=mxgraph.weblogos.java" vertex="1" parent="1">
          <mxGeometry x="422.8" y="570" width="34.4" height="65" as="geometry" />
        </mxCell>
        <mxCell id="IonQVXjq1AOYUMtXGqEm-14" value="" style="shape=image;aspect=fixed;image=data:image/svg+xml,PD94bWwgdmVyc2lvbj0iMS4wIiBlbmNvZGluZz0iVVRGLTgiIHN0YW5kYWxvbmU9Im5vIj8+CjwhLS0gQ3JlYXRlZCB3aXRoIElua3NjYXBlIChodHRwOi8vd3d3Lmlua3NjYXBlLm9yZy8pIC0tPgo8c3ZnIHhtbG5zOmRjPSJodHRwOi8vcHVybC5vcmcvZGMvZWxlbWVudHMvMS4xLyIgeG1sbnM6Y2M9Imh0dHA6Ly9jcmVhdGl2ZWNvbW1vbnMub3JnL25zIyIgeG1sbnM6cmRmPSJodHRwOi8vd3d3LnczLm9yZy8xOTk5LzAyLzIyLXJkZi1zeW50YXgtbnMjIiB4bWxuczpzdmc9Imh0dHA6Ly93d3cudzMub3JnLzIwMDAvc3ZnIiB4bWxucz0iaHR0cDovL3d3dy53My5vcmcvMjAwMC9zdmciIHhtbG5zOnNvZGlwb2RpPSJodHRwOi8vc29kaXBvZGkuc291cmNlZm9yZ2UubmV0L0RURC9zb2RpcG9kaS0wLmR0ZCIgeG1sbnM6aW5rc2NhcGU9Imh0dHA6Ly93d3cuaW5rc2NhcGUub3JnL25hbWVzcGFjZXMvaW5rc2NhcGUiIHdpZHRoPSIxNDUuNzUiIGhlaWdodD0iMTU3LjgyNzY3IiBpZD0ic3ZnMiIgdmVyc2lvbj0iMS4xIiBpbmtzY2FwZTp2ZXJzaW9uPSIwLjQ4LjQgcjk5MzkiIHNvZGlwb2RpOmRvY25hbWU9ImphdmFzY3JpcHQuc3ZnIj4KICA8ZGVmcyBpZD0iZGVmczQiLz4KICA8c29kaXBvZGk6bmFtZWR2aWV3IGlkPSJiYXNlIiBwYWdlY29sb3I9IiNmZmZmZmYiIGJvcmRlcmNvbG9yPSIjNjY2NjY2IiBib3JkZXJvcGFjaXR5PSIxLjAiIGlua3NjYXBlOnBhZ2VvcGFjaXR5PSIwLjAiIGlua3NjYXBlOnBhZ2VzaGFkb3c9IjIiIGlua3NjYXBlOnpvb209IjAuNzc5OTU2MDEiIGlua3NjYXBlOmN4PSI1MC4xNjgwMiIgaW5rc2NhcGU6Y3k9IjE5LjYyNDU3MSIgaW5rc2NhcGU6ZG9jdW1lbnQtdW5pdHM9InB4IiBpbmtzY2FwZTpjdXJyZW50LWxheWVyPSJsYXllcjEiIHNob3dncmlkPSJmYWxzZSIgaW5rc2NhcGU6d2luZG93LXdpZHRoPSIxMDI2IiBpbmtzY2FwZTp3aW5kb3ctaGVpZ2h0PSI3NjQiIGlua3NjYXBlOndpbmRvdy14PSIyMjAiIGlua3NjYXBlOndpbmRvdy15PSIyMjAiIGlua3NjYXBlOndpbmRvdy1tYXhpbWl6ZWQ9IjAiIGZpdC1tYXJnaW4tdG9wPSIwIiBmaXQtbWFyZ2luLWxlZnQ9IjAiIGZpdC1tYXJnaW4tcmlnaHQ9IjAiIGZpdC1tYXJnaW4tYm90dG9tPSIwIi8+CiAgPG1ldGFkYXRhIGlkPSJtZXRhZGF0YTciPgogICAgPHJkZjpSREY+CiAgICAgIDxjYzpXb3JrIHJkZjphYm91dD0iIj4KICAgICAgICA8ZGM6Zm9ybWF0PmltYWdlL3N2Zyt4bWw8L2RjOmZvcm1hdD4KICAgICAgICA8ZGM6dHlwZSByZGY6cmVzb3VyY2U9Imh0dHA6Ly9wdXJsLm9yZy9kYy9kY21pdHlwZS9TdGlsbEltYWdlIi8+CiAgICAgICAgPGRjOnRpdGxlLz4KICAgICAgPC9jYzpXb3JrPgogICAgPC9yZGY6UkRGPgogIDwvbWV0YWRhdGE+CiAgPGcgaW5rc2NhcGU6bGFiZWw9IkxheWVyIDEiIGlua3NjYXBlOmdyb3VwbW9kZT0ibGF5ZXIiIGlkPSJsYXllcjEiIHRyYW5zZm9ybT0idHJhbnNsYXRlKC0zMjYuNTkyOTUsLTE2OC4zMzM0OSkiPgogICAgPGcgaWQ9Imc4NDg3IiB0cmFuc2Zvcm09InRyYW5zbGF0ZSgtMjAyLjU3NTUzLC0zOC40NjM3MTEpIj4KICAgICAgPGcgdHJhbnNmb3JtPSJtYXRyaXgoMS4yNSwwLDAsMS4yNSwtMi41MDY1MTk1LDE3NC4xNzIyKSIgaWQ9ImczNjUyIj4KICAgICAgICA8cGF0aCBzdHlsZT0ib3BhY2l0eTowLjg1O2ZpbGw6IzEwMTAxMCIgaW5rc2NhcGU6Y29ubmVjdG9yLWN1cnZhdHVyZT0iMCIgZD0ibSA1MTIuODcsMjYuMTUgYyAxLjQsLTAuMDIgMi44MSwtMC4wNCA0LjIyLC0wLjA1IDAuMDIsMC43OCAwLjA1LDIuMzMgMC4wNywzLjExIC0xLjQ0LDAgLTIuODgsLTAuMDEgLTQuMzEsLTAuMDEgMCwtMC43NiAwLjAyLC0yLjI4IDAuMDIsLTMuMDUgeiIgaWQ9InBhdGgzNjU0Ii8+CiAgICAgIDwvZz4KICAgICAgPHBhdGggaWQ9InBhdGgzNjY0IiBkPSJtIDUzMS43OTM0OCwyMDcuNjU5NyBjIDMuMjEyNSwwLjAyNSA2LjQzNzUsMC4wMzc1IDkuNjc1LDAuMDUgLTAuMjc1LDUuNzUgMC44NSwxMS43MjUgLTAuNzc1LDE3LjMyNSAtMi4xLDQuMDI1IC03LjMyNSwzLjIzNzUgLTExLjA4NzUsMy4zMTI1IC0wLjE1LC0xLjI3NSAtMC4zLC0yLjU1IC0wLjQzNzUsLTMuODI1IDIuMTYyNSwtMC4xNzUgNC41MTI1LDAuMjUgNi41LC0wLjg2MjUgMS4yODc1LC0zLjk4NzUgMC43MTI1LC04LjI1IDAuMzg3NSwtMTIuMzUgLTEuMSwwLjAyNSAtMy4yODc1LDAuMDUgLTQuMzg3NSwwLjA2MjUgMC4wMzc1LC0wLjkyNSAwLjA4NzUsLTIuNzg3NSAwLjEyNSwtMy43MTI1IHoiIGlua3NjYXBlOmNvbm5lY3Rvci1jdXJ2YXR1cmU9IjAiIHN0eWxlPSJmaWxsOiMxMzEzMTMiLz4KICAgICAgPHBhdGggaWQ9InBhdGgzNjY2IiBkPSJtIDU5Ni4xNTU5OCwyMDkuMjM0NyBjIDMuNzg3NSwtMi45MjUgOC43NjI1LC0xLjcyNSAxMi45NzUsLTAuNTg3NSAtMC4wMTI1LDEuMTEyNSAtMC4wMjUsMy4zMzc1IC0wLjAyNSw0LjQ1IC0zLjI2MjUsLTEuMzEyNSAtOS40NjI1LC00LjE3NSAtMTAuMjg3NSwxLjIyNSAzLjA4NzUsMC45Mzc1IDYuMzUsMS40ODc1IDkuMTUsMy4xNjI1IDIuOTc1LDIuNDI1IDIuMTM3NSw3LjkzNzUgLTEuMjg3NSw5LjYgLTMuOSwyLjMxMjUgLTguNTI1LDEuMDUgLTEyLjYzNzUsMC4yMTI1IC0wLjIzNzUsLTEuNzEyNSAtMC40NzUsLTMuNDEyNSAtMC42ODc1LC01LjEyNSAzLjQ2MjUsMS41MjUgMTAuNDc1LDUuMTM3NSAxMS41MTI1LC0wLjcgLTMuNDc1LC0xLjMxMjUgLTcuOCwtMS41IC0xMC4zMjUsLTQuNSAtMS4xMTI1LC0yLjU1IC0wLjkyNSwtNi4xIDEuNjEyNSwtNy43Mzc1IHoiIGlua3NjYXBlOmNvbm5lY3Rvci1jdXJ2YXR1cmU9IjAiIHN0eWxlPSJmaWxsOiMxMzEzMTMiLz4KICAgICAgPHBhdGggaWQ9InBhdGgzNjY4IiBkPSJtIDY2NS4yNjg0OCwyMDguMzcyMiBjIDEuNDYyNSwwIDIuOTM3NSwwIDQuNDI1LDAgMC4wMzc1LDEuNDEyNSAwLjA4NzUsMi44MjUgMC4xNSw0LjIzNzUgMS4xMjUsMC4wMTI1IDMuMzg3NSwwLjAzNzUgNC41MjUsMC4wNSAwLjAyNSwwLjg2MjUgMC4wNjI1LDIuNTc1IDAuMDg3NSwzLjQyNSAtMS4xNSwtMC4wMTI1IC0zLjQ1LC0wLjAzNzUgLTQuNiwtMC4wNjI1IDAuMDYyNSwyLjg2MjUgLTAuNjc1LDUuOTg3NSAwLjc2MjUsOC42MjUgMS4wNzUsMC4xMTI1IDMuMjI1LDAuMzI1IDQuMywwLjQzNzUgLTAuMTEyNSw1LjI2MjUgLTYuMTEyNSwyLjg3NSAtOS4yODc1LDIuMDUgLTAuMjg3NSwtMy4yMTI1IC0wLjQyNSwtNi40MjUgLTAuNDI1LC05LjY1IC0wLjgxMjUsLTEuMTM3NSAtMS42MjUsLTIuMjg3NSAtMi40MjUsLTMuNDI1IDAuNjEyNSwtMC41NjI1IDEuODM3NSwtMS42ODc1IDIuNDUsLTIuMjUgMC4wMTI1LC0wLjg2MjUgMC4wMjUsLTIuNTg3NSAwLjAzNzUsLTMuNDM3NSB6IiBpbmtzY2FwZTpjb25uZWN0b3ItY3VydmF0dXJlPSIwIiBzdHlsZT0iZmlsbDojMTMxMzEzIi8+CiAgICAgIDxwYXRoIGlkPSJwYXRoMzY3MCIgZD0ibSA1NDUuMzY4NDgsMjEyLjc3MjIgYyA0LjA3NSwtMC4yMTI1IDkuNzc1LC0xLjcyNSAxMi4zMzc1LDIuNDg3NSAwLjkxMjUsNC4xNzUgMC4zMzc1LDguNTEyNSAwLjQ3NSwxMi43NjI1IC0xLjgyNSwtMC4xNjI1IC0zLjY1LC0wLjMzNzUgLTUuNDYyNSwtMC41IC0yLjA3NSwwLjE3NSAtNC41MTI1LDEuNzEyNSAtNi40MjUsMC4zMzc1IC0zLjE3NSwtMS41MjUgLTMuMjI1LC03LjE1IDAuMTEyNSwtOC41MTI1IDIuNDI1LC0xIDUuMDc1LC0xLjE3NSA3LjYxMjUsLTEuNzc1IC0yLjQxMjUsLTIuNSAtNS44Mzc1LC0xLjU1IC04Ljg3NSwtMS4yMjUgMC4wNjI1LC0wLjkgMC4xNzUsLTIuNjg3NSAwLjIyNSwtMy41NzUgbSAzLjk3NSw4LjU4NzUgYyAtMC4xMzc1LDEuMjEyNSAtMC4yNjI1LDIuNDI1IC0wLjM3NSwzLjY1IDEuMzg3NSwtMC4wNzUgMi43NzUsLTAuMTM3NSA0LjE3NSwtMC4yMTI1IDAuMSwtMS4zMTI1IDAuMjEyNSwtMi42MjUgMC4zMjUsLTMuOTM3NSAtMS4zODc1LDAuMTYyNSAtMi43NjI1LDAuMzM3NSAtNC4xMjUsMC41IHoiIGlua3NjYXBlOmNvbm5lY3Rvci1jdXJ2YXR1cmU9IjAiIHN0eWxlPSJmaWxsOiMxMzEzMTMiLz4KICAgICAgPHBhdGggaWQ9InBhdGgzNjcyIiBkPSJtIDU2MC4wNDM0OCwyMTIuMzM0NyBjIDEuMiwwLjIzNzUgMy42MTI1LDAuNzEyNSA0LjgxMjUsMC45NSAxLjI2MjUsMi45IDIuMTI1LDUuOTUgMy4zNSw4Ljg3NSAxLjAyNSwtMy4xMjUgMS45NzUsLTYuMjg3NSAyLjksLTkuNDUgMS4yLC0wLjAyNSAzLjYxMjUsLTAuMDYyNSA0LjgxMjUsLTAuMDg3NSAtMS43LDUuMzYyNSAtMy42LDEwLjY2MjUgLTUuNzI1LDE1Ljg4NzUgLTEuNjUsLTAuMjEyNSAtMy4yNzUsLTAuNTYyNSAtNC44NSwtMS4wMjUgLTIuMjc1LC00Ljg1IC0zLjc3NSwtMTAuMDI1IC01LjMsLTE1LjE1IHoiIGlua3NjYXBlOmNvbm5lY3Rvci1jdXJ2YXR1cmU9IjAiIHN0eWxlPSJmaWxsOiMxMzEzMTMiLz4KICAgICAgPHBhdGggaWQ9InBhdGgzNjc0IiBkPSJtIDU3Ny40Njg0OCwyMTYuMzIyMiBjIDAuMzUsLTEuMTg3NSAwLjc1LC0yLjM3NSAxLjE4NzUsLTMuNTM3NSAzLjg3NSwtMC41NjI1IDkuMTI1LC0xLjM4NzUgMTEuNzg3NSwyLjIzNzUgMC45MTI1LDQuMzI1IDAuMzUsOC44IDAuNDM3NSwxMy4xODc1IC0xLjgzNzUsLTAuMjUgLTMuNjYyNSwtMC41IC01LjQ4NzUsLTAuNzUgLTMuMjc1LDEuNzM3NSAtOC43Mzc1LDEuMTEyNSAtOC42NjI1LC0zLjUgLTAuNjI1LC01LjQ3NSA2LjIxMjUsLTUuNTUgOS45MjUsLTYuMjc1IC0yLjIzNzUsLTMgLTYuMTEyNSwtMS40MTI1IC05LjE4NzUsLTEuMzYyNSBtIDQuNTI1LDUuMTUgYyAtMC4xMzc1LDEuMTI1IC0wLjI2MjUsMi4yNjI1IC0wLjM4NzUsMy4zODc1IDEuMzc1LDAuMDM3NSAyLjc1LDAuMDc1IDQuMTM3NSwwLjEgMC4xMjUsLTEuMzg3NSAwLjI1LC0yLjc2MjUgMC4zNzUsLTQuMTUgLTEuMzc1LDAuMjEyNSAtMi43NSwwLjQzNzUgLTQuMTI1LDAuNjYyNSB6IiBpbmtzY2FwZTpjb25uZWN0b3ItY3VydmF0dXJlPSIwIiBzdHlsZT0iZmlsbDojMTMxMzEzIi8+CiAgICAgIDxwYXRoIGlkPSJwYXRoMzY3NiIgZD0ibSA2MTAuOTA1OTgsMjIwLjQwOTcgYyAtMC4zODc1LC02LjggOC4yNjI1LC0xMC4zNjI1IDEzLjQzNzUsLTYuNzM3NSAwLjEyNSwwLjk2MjUgMC4zNjI1LDIuOSAwLjQ3NSwzLjg2MjUgLTIuMzc1LC0wLjc1IC00LjgxMjUsLTIuNDUgLTcuMzYyNSwtMS4zIC0yLjcsMi41NzUgLTIuMTM3NSw5LjExMjUgMi40Mzc1LDguNzI1IDEuMjYyNSwtMC40IDMuNzc1LC0xLjIgNS4wMzc1LC0xLjYgLTAuMjI1LDEuMDc1IC0wLjY2MjUsMy4yMjUgLTAuODc1LDQuMjg3NSAtNS40MTI1LDIuNTUgLTEzLjU3NSwtMC40NjI1IC0xMy4xNSwtNy4yMzc1IHoiIGlua3NjYXBlOmNvbm5lY3Rvci1jdXJ2YXR1cmU9IjAiIHN0eWxlPSJmaWxsOiMxMzEzMTMiLz4KICAgICAgPHBhdGggaWQ9InBhdGgzNjc4IiBkPSJtIDYyNi44OTM0OCwyMTIuMjg0NyBjIDEuODc1LDAuNSAzLjc4NzUsMSA1LjY3NSwxLjUzNzUgMS40MTI1LC0wLjUxMjUgMi44Mzc1LC0xLjAxMjUgNC4yNzUsLTEuNTI1IDAuMDYyNSwxLjIgMC4yMTI1LDMuNiAwLjI4NzUsNC44IC0xLjgsMC4wODc1IC0zLjYsMC4xNzUgLTUuMzc1LDAuMjYyNSAtMC4xMjUsMy41ODc1IC0wLjE2MjUsNy4xNjI1IC0wLjE4NzUsMTAuNzUgLTEuMTc1LDAuMDEyNSAtMy41Mzc1LDAuMDI1IC00LjcxMjUsMC4wMzc1IC0wLjA2MjUsLTUuMjg3NSAtMC4wNzUsLTEwLjU3NSAwLjAzNzUsLTE1Ljg2MjUgeiIgaW5rc2NhcGU6Y29ubmVjdG9yLWN1cnZhdHVyZT0iMCIgc3R5bGU9ImZpbGw6IzEzMTMxMyIvPgogICAgICA8cGF0aCBpZD0icGF0aDM2ODAiIGQ9Im0gNjQ3LjIxODQ4LDIxMi42MjIyIGMgMy40NSwwLjc3NSA2LjkyNSwwLjUzNzUgMTAuMzYyNSwtMC4xNSA1LjM4NzUsMS4xMTI1IDUuNTEyNSw4Ljc1IDMuNDYyNSwxMi43NSAtMS43LDMuNDUgLTUuODYyNSwzLjEyNSAtOS4wNzUsMi45NSAwLjAyNSwxLjgyNSAwLjA1LDMuNjM3NSAwLjA3NSw1LjQ2MjUgLTEuMiwtMC4wMTI1IC0zLjYyNSwtMC4wMzc1IC00LjgzNzUsLTAuMDYyNSAwLC02Ljk3NSAtMC4wMTI1LC0xMy45NjI1IDAuMDEyNSwtMjAuOTUgbSA0Ljg3NSwzLjY3NSBjIC0wLjA1LDIuOTEyNSAtMC4wNzUsNS44Mzc1IC0wLjA1LDguNzUgMS41NSwtMC40MjUgMy41NSwtMC4xMjUgNC43MjUsLTEuNDYyNSAwLjg3NSwtMi4zNzUgMC4xODc1LC00LjkzNzUgMC4wMTI1LC03LjM4NzUgLTEuNTYyNSwwLjAyNSAtMy4xMjUsMC4wNjI1IC00LjY4NzUsMC4xIHoiIGlua3NjYXBlOmNvbm5lY3Rvci1jdXJ2YXR1cmU9IjAiIHN0eWxlPSJmaWxsOiMxMzEzMTMiLz4KICAgICAgPGcgdHJhbnNmb3JtPSJtYXRyaXgoMS4yNSwwLDAsMS4yNSwtMi41MDY1MTk1LDE3NC4xNzIyKSIgaWQ9ImczNjg4Ij4KICAgICAgICA8cGF0aCBzdHlsZT0iZmlsbDojMTMxMzEzIiBpbmtzY2FwZTpjb25uZWN0b3ItY3VydmF0dXJlPSIwIiBkPSJtIDUxMy4yMywzMC43OSBjIDAuODksMCAyLjY3LDAgMy41NSwwIDAuMDYsNC4xMyAwLjA2LDguMjUgMCwxMi4zOCAtMC44OSwwIC0yLjY2LDAgLTMuNTUsMCAtMC4wNywtNC4xMiAtMC4wNywtOC4yNSAwLC0xMi4zOCB6IiBpZD0icGF0aDM2OTAiLz4KICAgICAgPC9nPgogICAgICA8ZyB0cmFuc2Zvcm09Im1hdHJpeCgxLjI1LDAsMCwxLjI1LC0yLjUwNjUxOTUsMTc0LjE3MjIpIiBpZD0iZzM3NjgiPgogICAgICAgIDxwYXRoIHN0eWxlPSJmaWxsOiNkNmJhMzIiIGlua3NjYXBlOmNvbm5lY3Rvci1jdXJ2YXR1cmU9IjAiIGQ9Im0gNDM5LjAzLDUxLjIgYyA5Ljk3LC0wLjQyIDE5Ljk2LDAuMTIgMjkuOTQsLTAuMDUgMTEuMDEsLTAuMzUgMjIuMDEsLTAuMDYgMzMuMDMsLTAuMDIgOC43NCwwLjAyIDE3LjQ4LC0wLjA0IDI2LjIyLDAuMDMgLTIuNzUsMzAuMzMgLTUuNTIsNjAuNjYgLTguMDcsOTEuMDEgLTExLjcxLDMuMzMgLTIzLjQzLDYuNjEgLTM1LjE0LDkuOTIgLTEuNSwwLjYyIC0zLjA0LDAuMDQgLTQuNDgsLTAuMzUgLTExLjEzLC0zLjIgLTIyLjI2LC02LjM3IC0zMy40MSwtOS40NSAtMi45LC0zMC4zNCAtNS42MywtNjAuNzEgLTguMDksLTkxLjA5IG0gNDQuNzgsNy45MSBjIC0wLjQxLDE0Ljk2IC0wLjA2LDI5LjkyIC0wLjE4LDQ0Ljg4IDAuMTEsMTMuNjggLTAuMiwyNy4zNyAwLjE2LDQxLjA1IDkuODQsLTIuMzIgMTkuNTUsLTUuMTcgMjkuMjYsLTcuOTggMi40NCwtMjUuOTcgNC44MiwtNTEuOTQgNi44NiwtNzcuOTQgLTEyLjAzLC0wLjEyIC0yNC4wNywwLjAyIC0zNi4xLC0wLjAxIG0gLTEyLjUyLDU4LjQyIGMgLTUuNzgsLTEuNTggLTExLjQ5LC0zLjQgLTE3LjM1LC00LjY1IC0wLjE3LDMuNDggLTAuMTEsNi45NiAwLjI5LDEwLjQyIDguNTgsMi4wOSAxNi45OCw0Ljg0IDI1LjU3LDYuODkgMC4wNiwtMTkuODEgLTAuMDMsLTM5LjYzIDAuMDQsLTU5LjQ0IC0yLjgsLTAuMDcgLTUuNiwtMC4xMSAtOC40LC0wLjE3IC0wLjMyLDE1LjY0IC0wLjAyLDMxLjMgLTAuMTUsNDYuOTUgeiIgaWQ9InBhdGgzNzcwIi8+CiAgICAgIDwvZz4KICAgICAgPGcgdHJhbnNmb3JtPSJtYXRyaXgoMS4yNSwwLDAsMS4yNSwtMi41MDY1MTk1LDE3NC4xNzIyKSIgaWQ9ImczNzk2Ij4KICAgICAgICA8cGF0aCBzdHlsZT0iZmlsbDojZmZkYTNlIiBpbmtzY2FwZTpjb25uZWN0b3ItY3VydmF0dXJlPSIwIiBkPSJtIDQ4My44MSw1OS4xMSBjIDEyLjAzLDAuMDMgMjQuMDcsLTAuMTEgMzYuMSwwLjAxIC0yLjA0LDI2IC00LjQyLDUxLjk3IC02Ljg2LDc3Ljk0IC05LjcxLDIuODEgLTE5LjQyLDUuNjYgLTI5LjI2LDcuOTggLTAuMzYsLTEzLjY4IC0wLjA1LC0yNy4zNyAtMC4xNiwtNDEuMDUgMC4xMiwtMTQuOTYgLTAuMjMsLTI5LjkyIDAuMTgsLTQ0Ljg4IG0gMy4zNywxMS42MyBjIDAuMDQsMTIuODggMC4wNSwyNS43NyAwLDM4LjY1IDUuODgsLTAuOTUgMTEuNzQsLTIuMDQgMTcuNiwtMy4xMSAtMC4wOSwzIC0wLjIxLDYgLTAuMzQsOSAtNS43MSwxLjUyIC0xMS40MSwzLjA5IC0xNy4xNSw0LjUgLTAuMDksMy40NiAtMC4xLDYuOTIgLTAuMDcsMTAuMzkgNy4yMywtMS42MiAxNC4zNSwtMy42NiAyMS41MywtNS40NyAwLjksLTAuNDIgMi42MywtMC4zNyAyLjU1LC0xLjc4IDAuODcsLTkuMjYgMS40MSwtMTguNTYgMi4yNSwtMjcuODQgLTUuOTUsMC40OSAtMTEuODQsMS40OSAtMTcuNzksMS45IC0wLjA1LC01LjI2IC0wLjA2LC0xMC41MiAwLjAyLC0xNS43OCA2LjI2LDAgMTIuNTEsMCAxOC43NywwLjAxIDAuNCwtMy41MSAwLjc1LC03LjAzIDEuMDIsLTEwLjU1IC05LjQ2LDAuMDQgLTE4LjkzLC0wLjA5IC0yOC4zOSwwLjA4IHoiIGlkPSJwYXRoMzc5OCIvPgogICAgICA8L2c+CiAgICAgIDxwYXRoIGlkPSJwYXRoMzgwNiIgZD0ibSA1ODYuNjA1OTgsMzIxLjA4NDcgYyAwLjE2MjUsLTE5LjU2MjUgLTAuMjEyNSwtMzkuMTM3NSAwLjE4NzUsLTU4LjY4NzUgMy41LDAuMDc1IDcsMC4xMjUgMTAuNSwwLjIxMjUgLTAuMDg3NSwyNC43NjI1IDAuMDI1LDQ5LjUzNzUgLTAuMDUsNzQuMyAtMTAuNzM3NSwtMi41NjI1IC0yMS4yMzc1LC02IC0zMS45NjI1LC04LjYxMjUgLTAuNSwtNC4zMjUgLTAuNTc1LC04LjY3NSAtMC4zNjI1LC0xMy4wMjUgNy4zMjUsMS41NjI1IDE0LjQ2MjUsMy44Mzc1IDIxLjY4NzUsNS44MTI1IHoiIGlua3NjYXBlOmNvbm5lY3Rvci1jdXJ2YXR1cmU9IjAiIHN0eWxlPSJmaWxsOiNlYmViZWIiLz4KICAgIDwvZz4KICA8L2c+CjxzY3JpcHQgeG1sbnM9IiIvPjwvc3ZnPg==;" vertex="1" parent="1">
          <mxGeometry x="153.20000000000002" y="650" width="53.6" height="58" as="geometry" />
        </mxCell>
        <mxCell id="IonQVXjq1AOYUMtXGqEm-15" value="" style="shape=image;aspect=fixed;image=data:image/svg+xml,PD94bWwgdmVyc2lvbj0iMS4wIiBlbmNvZGluZz0iVVRGLTgiPz4KPCEtLSBHZW5lcmF0b3I6IEFkb2JlIElsbHVzdHJhdG9yIDIyLjAuMCwgU1ZHIEV4cG9ydCBQbHVnLUluIC4gU1ZHIFZlcnNpb246IDYuMDAgQnVpbGQgMCkgIC0tPgo8c3ZnIHZlcnNpb249IjEuMSIgaWQ9IkxheWVyXzEiIHhtbG5zPSJodHRwOi8vd3d3LnczLm9yZy8yMDAwL3N2ZyIgeG1sbnM6eGxpbms9Imh0dHA6Ly93d3cudzMub3JnLzE5OTkveGxpbmsiIHg9IjBweCIgeT0iMHB4IiB2aWV3Qm94PSIwIDAgMzAwIDIwMCIgc3R5bGU9ImVuYWJsZS1iYWNrZ3JvdW5kOm5ldyAwIDAgMzAwIDIwMDsiIHhtbDpzcGFjZT0icHJlc2VydmUiPgo8c3R5bGUgdHlwZT0idGV4dC9jc3MiPgoJLnN0MHtmaWxsOiNGRkZGRkY7fQoJLnN0MXtmaWxsOiMyQTMyMzg7fQoJLnN0MntmaWxsOiM0REE5MjU7fQo8L3N0eWxlPgo8Zz4KCTxnPgoJCTxnPgoJCQk8cGF0aCBjbGFzcz0ic3QwIiBkPSJNMTA1LjksNjYuM0w2OC43LDQ0LjJjLTQuNC0yLjYtOS45LTIuNi0xNC40LDBMMTcuMSw2Ni4zYy00LjQsMi42LTcuMiw3LjUtNy4yLDEyLjh2NDQuMiAgICAgYzAsNS4zLDIuNywxMC4xLDcuMiwxMi44bDM3LjIsMjIuMWMyLjIsMS4zLDQuNywyLDcuMiwyYzIuNSwwLDUtMC43LDcuMi0ybDM3LjItMjIuMWM0LjQtMi42LDcuMi03LjUsNy4yLTEyLjhWNzkgICAgIEMxMTMuMSw3My44LDExMC40LDY4LjksMTA1LjksNjYuM3oiLz4KCQk8L2c+CgkJPGc+CgkJCTxnPgoJCQkJPHBhdGggY2xhc3M9InN0MSIgZD0iTTEwNS45LDY2LjNMNjguNyw0NC4yYy0yLjItMS4zLTQuNy0yLTcuMi0ycy01LDAuNy03LjIsMkwxNy4xLDY2LjNjLTQuNCwyLjYtNy4yLDcuNS03LjIsMTIuOHY0NC4yICAgICAgYzAsNS4zLDIuNywxMC4xLDcuMiwxMi44bDM3LjIsMjIuMWMyLjIsMS4zLDQuNywyLDcuMiwyYzIuNSwwLDUtMC43LDcuMi0ybDM3LjItMjIuMWM0LjQtMi42LDcuMi03LjUsNy4yLTEyLjhWNzkgICAgICBDMTEzLjEsNzMuOCwxMTAuNCw2OC45LDEwNS45LDY2LjN6IE01NS42LDE1NS44bC0zNy4yLTIyLjFjLTMuNi0yLjItNS45LTYuMi01LjktMTAuNVY3OWMwLTQuMywyLjMtOC40LDUuOS0xMC41bDM3LjItMjIuMSAgICAgIGMxLjgtMS4xLDMuOC0xLjYsNS45LTEuNmMyLjEsMCw0LjEsMC42LDUuOSwxLjZsMzcuMiwyMi4xYzMuMSwxLjgsNS4xLDUsNS43LDguNWMtMS4yLTIuNi00LTMuNC03LjMtMS41TDY3LjksOTcuMyAgICAgIGMtNC40LDIuNi03LjYsNS40LTcuNiwxMC43djQzLjRjMCwzLjIsMS4zLDUuMiwzLjIsNS44Yy0wLjYsMC4xLTEuMywwLjItMiwwLjJDNTkuNSwxNTcuNSw1Ny40LDE1Ni45LDU1LjYsMTU1Ljh6Ii8+CgkJCTwvZz4KCQk8L2c+CgkJPGc+CgkJCTxwYXRoIGNsYXNzPSJzdDIiIGQ9Ik05Ni4yLDEyNy41bC05LjMsNS41Yy0wLjIsMC4xLTAuNCwwLjMtMC40LDAuNnYyLjRjMCwwLjMsMC4yLDAuNCwwLjQsMC4zbDkuNC01LjdjMC4yLTAuMSwwLjMtMC40LDAuMy0wLjcgICAgIHYtMi4xQzk2LjYsMTI3LjUsOTYuNCwxMjcuNCw5Ni4yLDEyNy41eiIvPgoJCTwvZz4KCQk8Zz4KCQkJPHBhdGggY2xhc3M9InN0MCIgZD0iTTc2LjQsMTA3LjFjMC4zLTAuMiwwLjUsMCwwLjYsMC40bDAsMy4yYzEuMy0wLjUsMi41LTAuNywzLjYtMC40YzAuMiwwLjEsMC4zLDAuNCwwLjIsMC43bC0wLjcsMi44ICAgICBjLTAuMSwwLjItMC4yLDAuNC0wLjMsMC42Yy0wLjEsMC4xLTAuMSwwLjEtMC4yLDAuMWMtMC4xLDAtMC4yLDAuMS0wLjMsMGMtMC41LTAuMS0xLjYtMC40LTMuNCwwLjZjLTEuOSwxLTIuNiwyLjYtMi41LDMuOCAgICAgYzAsMS41LDAuOCwxLjksMy4zLDEuOWMzLjQsMC4xLDQuOSwxLjYsNSw1YzAsMy40LTEuOCw3LjEtNC42LDkuM2wwLjEsMy4yYzAsMC40LTAuMiwwLjgtMC41LDFsLTEuOSwxLjFjLTAuMywwLjItMC41LDAtMC42LTAuNCAgICAgbDAtMy4xYy0xLjYsMC43LTMuMiwwLjgtNC4zLDAuNGMtMC4yLTAuMS0wLjMtMC40LTAuMi0wLjdsMC43LTIuOWMwLjEtMC4yLDAuMi0wLjUsMC4zLTAuNmMwLjEtMC4xLDAuMS0wLjEsMC4yLTAuMSAgICAgYzAuMS0wLjEsMC4yLTAuMSwwLjMsMGMxLjEsMC40LDIuNiwwLjIsMy45LTAuNWMxLjgtMC45LDIuOS0yLjcsMi45LTQuNWMwLTEuNi0wLjktMi4zLTMtMi4zYy0yLjcsMC01LjItMC41LTUuMy00LjUgICAgIGMwLTMuMywxLjctNi43LDQuNC04LjhsMC0zLjJjMC0wLjQsMC4yLTAuOCwwLjUtMUw3Ni40LDEwNy4xeiIvPgoJCTwvZz4KCTwvZz4KCTxnPgoJCTxwYXRoIGNsYXNzPSJzdDEiIGQ9Ik0xNjEuMiwxMDIuOGMtMC45LTEuMS0yLTIuMS0zLjMtMi45Yy0wLjItMC4xLTAuMy0wLjItMC41LTAuM2MxLTAuNywxLjktMS41LDIuNy0yLjRjMC44LTEsMS41LTIuMSwyLTMuMyAgICBjMC41LTEuMiwwLjctMi42LDAuOC00YzAtMi41LTAuNS00LjctMS42LTYuNmMtMS4xLTEuOC0yLjUtMy40LTQuMy00LjVjLTEuNy0xLjEtMy43LTItNS45LTIuNWMtMi4xLTAuNS00LjMtMC44LTYuNS0wLjhoLTE0LjkgICAgYy0xLDAtMS45LDAuOC0xLjksMS44djQ3LjZjMCwxLDAuOCwxLjgsMS45LDEuOGgxNi4xYzIuMywwLDQuNi0wLjQsNi44LTFjMi4yLTAuNyw0LjItMS43LDUuOS0yLjljMS43LTEuMywzLjItMi45LDQuMi00LjkgICAgYzEuMS0yLDEuNi00LjIsMS41LTYuN2MwLTEuNi0wLjMtMy4xLTAuOC00LjVDMTYyLjksMTA1LjIsMTYyLjIsMTA0LDE2MS4yLDEwMi44eiBNMTUyLjEsOTIuNGMtMC40LDAuNy0xLDEuMy0xLjcsMS44ICAgIGMtMC43LDAuNS0xLjYsMC45LTIuNSwxLjJjLTEsMC4zLTIsMC40LTMsMC41aC03Vjg0LjNoNi44YzEuMSwwLDIuMiwwLjIsMy4yLDAuNGMxLDAuMiwxLjgsMC42LDIuNSwxLjFjMC43LDAuNCwxLjIsMSwxLjYsMS43ICAgIGMwLjQsMC43LDAuNiwxLjUsMC42LDIuNUMxNTIuNyw5MC45LDE1Mi41LDkxLjcsMTUyLjEsOTIuNHogTTEzOCwxMDQuNWg4LjJjMS4yLDAsMi4yLDAuMiwzLjIsMC42YzAuOSwwLjMsMS44LDAuOCwyLjQsMS4zICAgIGMwLjcsMC42LDEuMiwxLjIsMS42LDIuMWMwLjQsMC44LDAuNiwxLjgsMC41LDIuOWMwLDEtMC4yLDItMC42LDIuOGMtMC40LDAuOC0xLDEuNS0xLjcsMi4xYy0wLjcsMC42LTEuNiwxLTIuNiwxLjQgICAgYy0xLDAuMy0yLjEsMC41LTMuMiwwLjVIMTM4VjEwNC41eiIvPgoJCTxwYXRoIGNsYXNzPSJzdDEiIGQ9Ik0xOTIuMiw3Ni44Yy0wLjItMC43LTEtMS4yLTEuOC0xLjJoLTUuM2MtMC44LDAtMS41LDAuNS0xLjgsMS4ybC0xNi4yLDQ3LjZjLTAuMiwwLjUtMC4xLDEuMSwwLjMsMS42ICAgIHMwLjksMC43LDEuNSwwLjdoNi40YzAuOCwwLDEuNi0wLjUsMS44LTEuM2wzLjYtMTEuMWgxMy45bDMuNiwxMS4xYzAuMiwwLjgsMSwxLjMsMS44LDEuM2g2LjNjMC42LDAsMS4yLTAuMywxLjUtMC43ICAgIGMwLjQtMC41LDAuNS0xLjEsMC4zLTEuNkwxOTIuMiw3Ni44eiBNMTkxLjgsMTA1LjVoLTguMmw0LjEtMTIuOEwxOTEuOCwxMDUuNXoiLz4KCQk8cGF0aCBjbGFzcz0ic3QxIiBkPSJNMjQ2LjMsMTA0LjdjLTAuOS0xLjEtMS45LTIuMS0zLTIuOWMtMS4xLTAuOC0yLjMtMS42LTMuNS0yLjJjLTEuMi0wLjYtMi41LTEuMi0zLjktMS43ICAgIGMtMS4zLTAuNS0yLjYtMC45LTMuOS0xLjNjLTEuMS0wLjMtMi4zLTAuNy0zLjUtMS4xYy0xLjEtMC40LTIuMi0wLjktMy4yLTEuNWMtMC45LTAuNS0xLjYtMS4yLTIuMi0xLjljLTAuNS0wLjctMC43LTEuNS0wLjgtMi40ICAgIGMwLTEsMC4yLTEuOCwwLjYtMi41YzAuNC0wLjcsMS0xLjMsMS42LTEuOGMwLjctMC41LDEuNi0wLjksMi41LTEuMmMyLjItMC42LDQuNi0wLjUsNi40LDAuMWMxLDAuNCwxLjgsMC45LDIuNSwxLjUgICAgYzAuNywwLjYsMS4zLDEuNCwxLjcsMi4zYzAuNCwxLDAuOCwyLDAuOSwzLjJjMC4xLDAuOSwwLjksMS42LDEuOSwxLjZoNi41YzAuNSwwLDEtMC4yLDEuMy0wLjVjMC40LTAuMywwLjUtMC44LDAuNS0xLjMgICAgYy0wLjEtMi40LTAuNi00LjctMS43LTYuN2MtMS4xLTItMi41LTMuNy00LjItNS4xYy0xLjctMS40LTMuNy0yLjUtNS45LTMuMmMtNC4yLTEuNC04LjktMS41LTEzLjQtMC4yYy0yLjIsMC42LTQuMSwxLjYtNS44LDIuOCAgICBjLTEuNywxLjMtMy4yLDIuOC00LjIsNC42Yy0xLjEsMS45LTEuNyw0LTEuNyw2LjRjMCwyLjQsMC42LDQuNSwxLjcsNi4zYzEuMSwxLjcsMi41LDMuMiw0LjEsNC40YzEuNiwxLjIsMy40LDIuMiw1LjQsMyAgICBjMS45LDAuOCwzLjcsMS41LDUuNiwyYzEuMiwwLjQsMi40LDAuOCwzLjcsMS4yYzEuMiwwLjQsMi4zLDAuOSwzLjIsMS41YzAuOSwwLjYsMS42LDEuMiwyLjIsMmMwLjUsMC43LDAuNywxLjYsMC43LDIuNyAgICBjMCwxLTAuMiwxLjgtMC42LDIuNWMtMC41LDAuNy0xLDEuMy0xLjgsMS44Yy0wLjgsMC41LTEuNiwwLjktMi42LDEuMWMtMi40LDAuNi00LjksMC41LTYuOS0wLjFjLTEuMS0wLjMtMi0wLjgtMi45LTEuNSAgICBjLTAuOC0wLjYtMS41LTEuNC0yLTIuNGMtMC41LTAuOS0wLjktMi4xLTEuMS0zLjNjLTAuMS0wLjktMC45LTEuNi0xLjktMS42aC02LjVjLTAuNSwwLTEsMC4yLTEuNCwwLjVjLTAuNCwwLjMtMC41LDAuOC0wLjUsMS4zICAgIGMwLjEsMi42LDAuNyw0LjksMS45LDYuOWMxLjIsMiwyLjcsMy43LDQuNiw1LjFjMS44LDEuNCw0LDIuNCw2LjMsMy4xYzIuMywwLjcsNC43LDEuMSw3LjEsMS4xYzIuMiwwLDQuMy0wLjMsNi41LTAuOSAgICBjMi4yLTAuNiw0LjItMS41LDUuOS0yLjZjMS44LTEuMiwzLjMtMi43LDQuNC00LjVjMS4yLTEuOSwxLjgtNC4xLDEuOC02LjVjMC0xLjYtMC4yLTMuMS0wLjctNC41ICAgIEMyNDcuOSwxMDcsMjQ3LjIsMTA1LjgsMjQ2LjMsMTA0Ljd6Ii8+CgkJPHBhdGggY2xhc3M9InN0MSIgZD0iTTI4OC4xLDc1LjVoLTZjLTEsMC0xLjksMC44LTEuOSwxLjhWOTZoLTE2LjhWNzcuM2MwLTEtMC44LTEuOC0xLjktMS44aC02Yy0xLDAtMS45LDAuOC0xLjksMS44djQ3LjYgICAgYzAsMSwwLjgsMS44LDEuOSwxLjhoNmMxLDAsMS45LTAuOCwxLjktMS44di0yMC4yaDE2Ljh2MjAuMmMwLDEsMC44LDEuOCwxLjksMS44aDZjMSwwLDEuOS0wLjgsMS45LTEuOFY3Ny4zICAgIEMyODkuOSw3Ni4zLDI4OS4xLDc1LjUsMjg4LjEsNzUuNXoiLz4KCTwvZz4KCTxnPgoJCTxwYXRoIGNsYXNzPSJzdDEiIGQ9Ik0xMzMuNiwxMzVoLTIuM3Y2LjFoLTEuMlYxMzVoLTIuM3YtMWg1LjhWMTM1eiIvPgoJCTxwYXRoIGNsYXNzPSJzdDEiIGQ9Ik0xNDAuNiwxNDEuMWgtMS4ydi0zLjFoLTIuNXYzLjFoLTEuMlYxMzRoMS4ydjNoMi41di0zaDEuMlYxNDEuMXoiLz4KCQk8cGF0aCBjbGFzcz0ic3QxIiBkPSJNMTQ3LjYsMTM3LjloLTMuMXYyLjJoMy42djAuOWgtNC44VjEzNGg0Ljh2MWgtMy41djJoMy4xVjEzNy45eiIvPgoJCTxwYXRoIGNsYXNzPSJzdDEiIGQ9Ik0xNTguMiwxNDEuMVYxMzRoMi40YzAuNCwwLDAuNywwLDEsMC4xYzAuMywwLjEsMC42LDAuMiwwLjgsMC4zYzAuMiwwLjIsMC40LDAuNCwwLjUsMC42czAuMiwwLjUsMC4yLDAuOSAgICBjMCwwLjMtMC4xLDAuNi0wLjMsMC45Yy0wLjIsMC4yLTAuNSwwLjQtMC44LDAuNmMwLjIsMC4xLDAuNCwwLjEsMC42LDAuMmMwLjIsMC4xLDAuMywwLjIsMC40LDAuNGMwLjEsMC4xLDAuMiwwLjMsMC4zLDAuNSAgICBjMC4xLDAuMiwwLjEsMC40LDAuMSwwLjZjMCwwLjMtMC4xLDAuNi0wLjIsMC45Yy0wLjEsMC4zLTAuMywwLjUtMC41LDAuNmMtMC4yLDAuMi0wLjUsMC4zLTAuOCwwLjRjLTAuMywwLjEtMC43LDAuMS0xLDAuMUgxNTguMiAgICB6IE0xNTkuNCwxMzdoMS4yYzAuMiwwLDAuNCwwLDAuNS0wLjFjMC4yLDAsMC4zLTAuMSwwLjQtMC4yYzAuMS0wLjEsMC4yLTAuMiwwLjMtMC4zYzAuMS0wLjEsMC4xLTAuMywwLjEtMC40ICAgIGMwLTAuMiwwLTAuMy0wLjEtMC41Yy0wLjEtMC4xLTAuMi0wLjItMC4zLTAuM2MtMC4xLTAuMS0wLjMtMC4xLTAuNC0wLjJjLTAuMiwwLTAuMy0wLjEtMC41LTAuMWgtMS4yVjEzN3ogTTE1OS40LDEzNy45djIuMmgxLjMgICAgYzAuMiwwLDAuNCwwLDAuNS0wLjFjMC4yLTAuMSwwLjMtMC4xLDAuNC0wLjJjMC4xLTAuMSwwLjItMC4yLDAuMy0wLjNjMC4xLTAuMSwwLjEtMC4zLDAuMS0wLjVjMC0wLjIsMC0wLjMtMC4xLTAuNSAgICBjLTAuMS0wLjEtMC4xLTAuMy0wLjItMC40Yy0wLjEtMC4xLTAuMi0wLjItMC40LTAuMmMtMC4yLTAuMS0wLjMtMC4xLTAuNS0wLjFIMTU5LjR6Ii8+CgkJPHBhdGggY2xhc3M9InN0MSIgZD0iTTE3MC43LDEzOGMwLDAuNC0wLjEsMC44LTAuMiwxLjJzLTAuMywwLjctMC41LDFjLTAuMiwwLjMtMC41LDAuNS0wLjgsMC43Yy0wLjMsMC4yLTAuNywwLjMtMS4yLDAuMyAgICBjLTAuNCwwLTAuOC0wLjEtMS4yLTAuM2MtMC4zLTAuMi0wLjYtMC40LTAuOC0wLjdjLTAuMi0wLjMtMC40LTAuNi0wLjUtMWMtMC4xLTAuNC0wLjItMC44LTAuMi0xLjJ2LTAuOWMwLTAuMywwLTAuNSwwLjEtMC44ICAgIGMwLTAuMywwLjEtMC41LDAuMi0wLjdjMC4xLTAuMiwwLjItMC41LDAuNC0wLjZjMC4xLTAuMiwwLjMtMC40LDAuNS0wLjVjMC4yLTAuMSwwLjQtMC4zLDAuNy0wLjNjMC4yLTAuMSwwLjUtMC4xLDAuOC0wLjEgICAgYzAuNCwwLDAuOCwwLjEsMS4yLDAuM2MwLjMsMC4yLDAuNiwwLjQsMC44LDAuN2MwLjIsMC4zLDAuNCwwLjYsMC41LDFjMC4xLDAuNCwwLjIsMC44LDAuMiwxLjJWMTM4eiBNMTY5LjUsMTM3LjEgICAgYzAtMC4zLDAtMC41LTAuMS0wLjhjMC0wLjMtMC4xLTAuNS0wLjItMC43Yy0wLjEtMC4yLTAuMy0wLjQtMC40LTAuNWMtMC4yLTAuMS0wLjQtMC4yLTAuNy0wLjJjLTAuMywwLTAuNSwwLjEtMC43LDAuMiAgICBjLTAuMiwwLjEtMC4zLDAuMy0wLjQsMC41Yy0wLjEsMC4yLTAuMiwwLjQtMC4yLDAuN2MwLDAuMy0wLjEsMC41LTAuMSwwLjh2MC45YzAsMC4zLDAsMC41LDAuMSwwLjhjMCwwLjMsMC4xLDAuNSwwLjIsMC43ICAgIGMwLjEsMC4yLDAuMywwLjQsMC40LDAuNWMwLjIsMC4xLDAuNCwwLjIsMC43LDAuMmMwLjMsMCwwLjUtMC4xLDAuNy0wLjJjMC4yLTAuMSwwLjMtMC4zLDAuNC0wLjVjMC4xLTAuMiwwLjItMC40LDAuMi0wLjcgICAgYzAtMC4zLDAuMS0wLjUsMC4xLTAuOFYxMzcuMXoiLz4KCQk8cGF0aCBjbGFzcz0ic3QxIiBkPSJNMTc3LjksMTM0bDAsNC43YzAsMC40LTAuMSwwLjctMC4yLDFjLTAuMSwwLjMtMC4zLDAuNi0wLjUsMC44Yy0wLjIsMC4yLTAuNSwwLjQtMC44LDAuNSAgICBjLTAuMywwLjEtMC42LDAuMi0xLDAuMmMtMC40LDAtMC43LTAuMS0xLTAuMmMtMC4zLTAuMS0wLjYtMC4zLTAuOC0wLjVjLTAuMi0wLjItMC40LTAuNS0wLjUtMC44Yy0wLjEtMC4zLTAuMi0wLjYtMC4yLTFsMC00LjcgICAgaDEuMmwwLDQuN2MwLDAuMiwwLDAuNCwwLjEsMC42YzAuMSwwLjIsMC4xLDAuMywwLjIsMC41YzAuMSwwLjEsMC4yLDAuMiwwLjQsMC4zYzAuMiwwLjEsMC4zLDAuMSwwLjUsMC4xYzAuMiwwLDAuNCwwLDAuNS0wLjEgICAgYzAuMi0wLjEsMC4zLTAuMiwwLjQtMC4zYzAuMS0wLjEsMC4yLTAuMywwLjItMC41YzAuMS0wLjIsMC4xLTAuNCwwLjEtMC42bDAtNC43SDE3Ny45eiIvPgoJCTxwYXRoIGNsYXNzPSJzdDEiIGQ9Ik0xODMuMSwxMzguM2gtMS4ydjIuOGgtMS4yVjEzNGgyLjNjMC40LDAsMC43LDAsMS4xLDAuMWMwLjMsMC4xLDAuNiwwLjIsMC44LDAuNGMwLjIsMC4yLDAuNCwwLjQsMC41LDAuNyAgICBjMC4xLDAuMywwLjIsMC42LDAuMiwwLjljMCwwLjIsMCwwLjUtMC4xLDAuN2MtMC4xLDAuMi0wLjIsMC40LTAuMywwLjVjLTAuMSwwLjItMC4zLDAuMy0wLjQsMC40Yy0wLjIsMC4xLTAuMywwLjItMC41LDAuM2wxLjYsMyAgICB2MC4xaC0xLjNMMTgzLjEsMTM4LjN6IE0xODEuOCwxMzcuNGgxLjFjMC4yLDAsMC40LDAsMC42LTAuMWMwLjItMC4xLDAuMy0wLjEsMC40LTAuMmMwLjEtMC4xLDAuMi0wLjIsMC4zLTAuNCAgICBjMC4xLTAuMSwwLjEtMC4zLDAuMS0wLjVjMC0wLjIsMC0wLjQtMC4xLTAuNWMtMC4xLTAuMi0wLjItMC4zLTAuMy0wLjRjLTAuMS0wLjEtMC4zLTAuMi0wLjQtMC4yYy0wLjItMC4xLTAuNC0wLjEtMC42LTAuMWgtMS4xICAgIFYxMzcuNHoiLz4KCQk8cGF0aCBjbGFzcz0ic3QxIiBkPSJNMTkyLjksMTQxLjFoLTEuMmwtMi40LTQuOWwwLDQuOUgxODhWMTM0aDEuMmwyLjQsNC44bDAtNC44aDEuMlYxNDEuMXoiLz4KCQk8cGF0aCBjbGFzcz0ic3QxIiBkPSJNMTk5LjksMTM3LjloLTMuMXYyLjJoMy42djAuOWgtNC44VjEzNGg0Ljh2MWgtMy41djJoMy4xVjEzNy45eiIvPgoJCTxwYXRoIGNsYXNzPSJzdDEiIGQ9Ik0yMDcuNiwxMzguNWgtNC4xdi0wLjloNC4xVjEzOC41eiIvPgoJCTxwYXRoIGNsYXNzPSJzdDEiIGQ9Ik0yMTQsMTM5LjRoLTIuM2wtMC41LDEuNmgtMS4zbDIuNC03LjFoMS4xbDIuNCw3LjFoLTEuM0wyMTQsMTM5LjR6IE0yMTIsMTM4LjVoMS43bC0wLjgtMi44TDIxMiwxMzguNXoiLz4KCQk8cGF0aCBjbGFzcz0ic3QxIiBkPSJNMjIyLjksMTQwLjJjLTAuMSwwLjEtMC4zLDAuMy0wLjQsMC40Yy0wLjIsMC4xLTAuNCwwLjItMC42LDAuM2MtMC4yLDAuMS0wLjQsMC4yLTAuNywwLjIgICAgYy0wLjIsMC0wLjUsMC4xLTAuOCwwLjFjLTAuNCwwLTAuOC0wLjEtMS4yLTAuMmMtMC4zLTAuMi0wLjYtMC40LTAuOS0wLjdjLTAuMi0wLjMtMC40LTAuNi0wLjUtMWMtMC4xLTAuNC0wLjItMC44LTAuMi0xLjN2LTAuOSAgICBjMC0wLjQsMC4xLTAuOSwwLjItMS4zYzAuMS0wLjQsMC4zLTAuNywwLjUtMWMwLjItMC4zLDAuNS0wLjUsMC44LTAuN2MwLjMtMC4yLDAuNy0wLjMsMS4xLTAuM2MwLjQsMCwwLjcsMC4xLDEsMC4yICAgIGMwLjMsMC4xLDAuNiwwLjIsMC44LDAuNGMwLjIsMC4yLDAuNCwwLjQsMC41LDAuN2MwLjEsMC4zLDAuMiwwLjYsMC4yLDAuOWgtMS4yYzAtMC4yLTAuMS0wLjQtMC4xLTAuNWMtMC4xLTAuMi0wLjItMC4zLTAuMy0wLjQgICAgYy0wLjEtMC4xLTAuMi0wLjItMC40LTAuMnMtMC4zLTAuMS0wLjUtMC4xYy0wLjMsMC0wLjUsMC4xLTAuNywwLjJzLTAuMywwLjMtMC41LDAuNWMtMC4xLDAuMi0wLjIsMC40LTAuMywwLjcgICAgYy0wLjEsMC4zLTAuMSwwLjYtMC4xLDAuOHYwLjljMCwwLjMsMCwwLjYsMC4xLDAuOGMwLjEsMC4zLDAuMiwwLjUsMC4zLDAuN2MwLjEsMC4yLDAuMywwLjQsMC41LDAuNWMwLjIsMC4xLDAuNCwwLjIsMC43LDAuMiAgICBjMC4xLDAsMC4yLDAsMC40LDBjMC4xLDAsMC4yLDAsMC4zLTAuMWMwLjEsMCwwLjItMC4xLDAuMy0wLjFjMC4xLTAuMSwwLjItMC4xLDAuMi0wLjJsMC0xLjRoLTEuM3YtMC45aDIuNUwyMjIuOSwxNDAuMnoiLz4KCQk8cGF0aCBjbGFzcz0ic3QxIiBkPSJNMjI5LDEzOS40aC0yLjNsLTAuNSwxLjZoLTEuM2wyLjQtNy4xaDEuMWwyLjQsNy4xaC0xLjNMMjI5LDEzOS40eiBNMjI3LDEzOC41aDEuN2wtMC44LTIuOEwyMjcsMTM4LjV6Ii8+CgkJPHBhdGggY2xhc3M9InN0MSIgZD0iTTIzMywxMzRoNC40djFoLTEuNnY1LjFoMS42djFIMjMzdi0xaDEuNlYxMzVIMjMzVjEzNHoiLz4KCQk8cGF0aCBjbGFzcz0ic3QxIiBkPSJNMjQ1LjEsMTQxLjFoLTEuMmwtMi40LTQuOWwwLDQuOWgtMS4yVjEzNGgxLjJsMi40LDQuOGwwLTQuOGgxLjJWMTQxLjF6Ii8+CgkJPHBhdGggY2xhc3M9InN0MSIgZD0iTTI1OS4xLDEzOS4zYzAtMC4yLDAtMC4zLTAuMS0wLjRjLTAuMS0wLjEtMC4yLTAuMi0wLjMtMC4zYy0wLjEtMC4xLTAuMy0wLjItMC41LTAuM3MtMC40LTAuMS0wLjYtMC4yICAgIGMtMC4zLTAuMS0wLjYtMC4yLTAuOS0wLjNjLTAuMy0wLjEtMC41LTAuMy0wLjgtMC40Yy0wLjItMC4yLTAuNC0wLjQtMC41LTAuNmMtMC4xLTAuMi0wLjItMC41LTAuMi0wLjhzMC4xLTAuNiwwLjItMC44ICAgIGMwLjEtMC4yLDAuMy0wLjQsMC42LTAuNmMwLjItMC4yLDAuNS0wLjMsMC44LTAuNGMwLjMtMC4xLDAuNi0wLjEsMS0wLjFjMC40LDAsMC43LDAuMSwxLDAuMmMwLjMsMC4xLDAuNiwwLjMsMC44LDAuNCAgICBjMC4yLDAuMiwwLjQsMC40LDAuNiwwLjdjMC4xLDAuMywwLjIsMC42LDAuMiwwLjloLTEuMmMwLTAuMi0wLjEtMC4zLTAuMS0wLjVjLTAuMS0wLjEtMC4yLTAuMy0wLjMtMC40Yy0wLjEtMC4xLTAuMy0wLjItMC40LTAuMiAgICBjLTAuMi0wLjEtMC40LTAuMS0wLjYtMC4xYy0wLjIsMC0wLjQsMC0wLjUsMC4xYy0wLjIsMC0wLjMsMC4xLTAuNCwwLjJjLTAuMSwwLjEtMC4yLDAuMi0wLjMsMC4zYy0wLjEsMC4xLTAuMSwwLjMtMC4xLDAuNCAgICBjMCwwLjIsMCwwLjMsMC4xLDAuNGMwLjEsMC4xLDAuMiwwLjIsMC4zLDAuM2MwLjEsMC4xLDAuMywwLjIsMC41LDAuMmMwLjIsMC4xLDAuNCwwLjEsMC42LDAuMmMwLjMsMC4xLDAuNiwwLjIsMC45LDAuMyAgICBjMC4zLDAuMSwwLjUsMC4zLDAuNywwLjVjMC4yLDAuMiwwLjQsMC40LDAuNSwwLjZjMC4xLDAuMiwwLjIsMC41LDAuMiwwLjhjMCwwLjMtMC4xLDAuNi0wLjIsMC44Yy0wLjEsMC4yLTAuMywwLjQtMC42LDAuNiAgICBjLTAuMiwwLjItMC41LDAuMy0wLjgsMC40Yy0wLjMsMC4xLTAuNiwwLjEtMSwwLjFjLTAuMiwwLTAuNSwwLTAuNy0wLjFjLTAuMiwwLTAuNC0wLjEtMC42LTAuMmMtMC4yLTAuMS0wLjQtMC4yLTAuNi0wLjMgICAgYy0wLjItMC4xLTAuMy0wLjMtMC41LTAuNGMtMC4xLTAuMi0wLjItMC4zLTAuMy0wLjVjLTAuMS0wLjItMC4xLTAuNC0wLjEtMC43aDEuMmMwLDAuMiwwLjEsMC40LDAuMSwwLjZjMC4xLDAuMiwwLjIsMC4zLDAuMywwLjQgICAgYzAuMSwwLjEsMC4zLDAuMiwwLjUsMC4yYzAuMiwwLjEsMC40LDAuMSwwLjYsMC4xYzAuMiwwLDAuNCwwLDAuNS0wLjFjMC4yLDAsMC4zLTAuMSwwLjQtMC4yYzAuMS0wLjEsMC4yLTAuMiwwLjMtMC4zICAgIEMyNTksMTM5LjYsMjU5LjEsMTM5LjQsMjU5LjEsMTM5LjN6Ii8+CgkJPHBhdGggY2xhc3M9InN0MSIgZD0iTTI2Ny41LDE0MS4xaC0xLjJ2LTMuMWgtMi41djMuMWgtMS4yVjEzNGgxLjJ2M2gyLjV2LTNoMS4yVjE0MS4xeiIvPgoJCTxwYXRoIGNsYXNzPSJzdDEiIGQ9Ik0yNzQuNSwxMzcuOWgtMy4xdjIuMmgzLjZ2MC45aC00LjhWMTM0aDQuOHYxaC0zLjV2MmgzLjFWMTM3Ljl6Ii8+CgkJPHBhdGggY2xhc3M9InN0MSIgZD0iTTI3OC45LDE0MC4xaDMuNXYwLjloLTQuOFYxMzRoMS4yVjE0MC4xeiIvPgoJCTxwYXRoIGNsYXNzPSJzdDEiIGQ9Ik0yODYuNCwxNDAuMWgzLjV2MC45aC00LjhWMTM0aDEuMlYxNDAuMXoiLz4KCTwvZz4KPC9nPgo8c2NyaXB0IHhtbG5zPSIiLz48L3N2Zz4=;" vertex="1" parent="1">
          <mxGeometry x="121.5" y="709" width="117" height="78" as="geometry" />
        </mxCell>
        <mxCell id="IonQVXjq1AOYUMtXGqEm-16" value="" style="shape=image;aspect=fixed;image=data:image/svg+xml,PD94bWwgdmVyc2lvbj0iMS4wIiBlbmNvZGluZz0iVVRGLTgiPz4KPCEtLSBHZW5lcmF0b3I6IEFkb2JlIElsbHVzdHJhdG9yIDE2LjAuNCwgU1ZHIEV4cG9ydCBQbHVnLUluIC4gU1ZHIFZlcnNpb246IDYuMDAgQnVpbGQgMCkgIC0tPgo8IURPQ1RZUEUgc3ZnIFBVQkxJQyAiLS8vVzNDLy9EVEQgU1ZHIDEuMS8vRU4iICJodHRwOi8vd3d3LnczLm9yZy9HcmFwaGljcy9TVkcvMS4xL0RURC9zdmcxMS5kdGQiPgo8c3ZnIHZlcnNpb249IjEuMSIgaWQ9IkxheWVyXzEiIHhtbG5zPSJodHRwOi8vd3d3LnczLm9yZy8yMDAwL3N2ZyIgeG1sbnM6eGxpbms9Imh0dHA6Ly93d3cudzMub3JnLzE5OTkveGxpbmsiIHg9IjBweCIgeT0iMHB4IiB3aWR0aD0iMzA2cHgiIGhlaWdodD0iMzQ0LjM1cHgiIHZpZXdCb3g9IjAgMCAzMDYgMzQ0LjM1IiBlbmFibGUtYmFja2dyb3VuZD0ibmV3IDAgMCAzMDYgMzQ0LjM1IiB4bWw6c3BhY2U9InByZXNlcnZlIj4KPHBhdGggZmlsbD0iIzAwNTk5QyIgZD0iTTMwMi4xMDcsMjU4LjI2MmMyLjQwMS00LjE1OSwzLjg5My04Ljg0NSwzLjg5My0xMy4wNTNWOTkuMTRjMC00LjIwOC0xLjQ5LTguODkzLTMuODkyLTEzLjA1MkwxNTMsMTcyLjE3NSAgTDMwMi4xMDcsMjU4LjI2MnoiLz4KPHBhdGggZmlsbD0iIzAwNDQ4MiIgZD0iTTE2Ni4yNSwzNDEuMTkzbDEyNi41LTczLjAzNGMzLjY0NC0yLjEwNCw2Ljk1Ni01LjczNyw5LjM1Ny05Ljg5N0wxNTMsMTcyLjE3NUwzLjg5MywyNTguMjYzICBjMi40MDEsNC4xNTksNS43MTQsNy43OTMsOS4zNTcsOS44OTZsMTI2LjUsNzMuMDM0QzE0Ny4wMzcsMzQ1LjQwMSwxNTguOTYzLDM0NS40MDEsMTY2LjI1LDM0MS4xOTN6Ii8+CjxwYXRoIGZpbGw9IiM2NTlBRDIiIGQ9Ik0zMDIuMTA4LDg2LjA4N2MtMi40MDItNC4xNi01LjcxNS03Ljc5My05LjM1OC05Ljg5N0wxNjYuMjUsMy4xNTZjLTcuMjg3LTQuMjA4LTE5LjIxMy00LjIwOC0yNi41LDAgIEwxMy4yNSw3Ni4xOUM1Ljk2Miw4MC4zOTcsMCw5MC43MjUsMCw5OS4xNHYxNDYuMDY5YzAsNC4yMDgsMS40OTEsOC44OTQsMy44OTMsMTMuMDUzTDE1MywxNzIuMTc1TDMwMi4xMDgsODYuMDg3eiIvPgo8Zz4KCTxwYXRoIGZpbGw9IiNGRkZGRkYiIGQ9Ik0xNTMsMjc0LjE3NWMtNTYuMjQzLDAtMTAyLTQ1Ljc1Ny0xMDItMTAyczQ1Ljc1Ny0xMDIsMTAyLTEwMmMzNi4yOTIsMCw3MC4xMzksMTkuNTMsODguMzMxLDUwLjk2OCAgIGwtNDQuMTQzLDI1LjU0NGMtOS4xMDUtMTUuNzM2LTI2LjAzOC0yNS41MTItNDQuMTg4LTI1LjUxMmMtMjguMTIyLDAtNTEsMjIuODc4LTUxLDUxYzAsMjguMTIxLDIyLjg3OCw1MSw1MSw1MSAgIGMxOC4xNTIsMCwzNS4wODUtOS43NzYsNDQuMTkxLTI1LjUxNWw0NC4xNDMsMjUuNTQzQzIyMy4xNDIsMjU0LjY0NCwxODkuMjk0LDI3NC4xNzUsMTUzLDI3NC4xNzV6Ii8+CjwvZz4KPGc+Cgk8cG9seWdvbiBmaWxsPSIjRkZGRkZGIiBwb2ludHM9IjI1NSwxNjYuNTA4IDI0My42NjYsMTY2LjUwOCAyNDMuNjY2LDE1NS4xNzUgMjMyLjMzNCwxNTUuMTc1IDIzMi4zMzQsMTY2LjUwOCAyMjEsMTY2LjUwOCAgICAyMjEsMTc3Ljg0MSAyMzIuMzM0LDE3Ny44NDEgMjMyLjMzNCwxODkuMTc1IDI0My42NjYsMTg5LjE3NSAyNDMuNjY2LDE3Ny44NDEgMjU1LDE3Ny44NDEgICIvPgo8L2c+CjxnPgoJPHBvbHlnb24gZmlsbD0iI0ZGRkZGRiIgcG9pbnRzPSIyOTcuNSwxNjYuNTA4IDI4Ni4xNjYsMTY2LjUwOCAyODYuMTY2LDE1NS4xNzUgMjc0LjgzNCwxNTUuMTc1IDI3NC44MzQsMTY2LjUwOCAyNjMuNSwxNjYuNTA4ICAgIDI2My41LDE3Ny44NDEgMjc0LjgzNCwxNzcuODQxIDI3NC44MzQsMTg5LjE3NSAyODYuMTY2LDE4OS4xNzUgMjg2LjE2NiwxNzcuODQxIDI5Ny41LDE3Ny44NDEgICIvPgo8L2c+CjxzY3JpcHQgeG1sbnM9IiIvPjwvc3ZnPg==;" vertex="1" parent="1">
          <mxGeometry x="613.76" y="650" width="52.48" height="59" as="geometry" />
        </mxCell>
      </root>
    </mxGraphModel>
  </diagram>
</mxfile>
